<svg width="512" height="512" viewBox="0 0 512 512" fill="none" xmlns="http://www.w3.org/2000/svg">
<circle cx="256" cy="256" r="212" fill="white"/>
<path d="M410.985 360C388.118 358.133 370.151 348.683 357.085 331.65C344.018 314.383 335.035 291.633 330.135 263.4C328.268 253.367 326.985 243.1 326.285 232.6C325.818 222.1 325.468 211.717 325.235 201.45C325.001 190.95 324.885 180.683 324.885 170.65C324.885 160.383 324.768 150.467 324.535 140.9C317.535 141.833 311.468 146.733 306.335 155.6C301.201 164.233 296.768 174.967 293.035 187.8C289.535 200.4 286.618 214.167 284.285 229.1C281.951 243.8 279.851 257.8 277.985 271.1C276.351 284.167 274.951 295.6 273.785 305.4C272.618 314.967 271.451 320.8 270.285 322.9C268.885 326.167 266.551 328.733 263.285 330.6C260.018 332.467 256.401 333.517 252.435 333.75C248.701 334.217 244.851 333.867 240.885 332.7C237.151 331.767 234.118 330.017 231.785 327.45C226.185 321.383 221.868 313.333 218.835 303.3C215.801 293.033 214.051 282.767 213.585 272.5C212.651 247.767 210.785 222.567 207.985 196.9C205.418 171 201.451 146.15 196.085 122.35C194.451 123.517 192.701 124.8 190.835 126.2C189.201 127.367 187.451 129.233 185.585 131.8C183.951 134.133 182.085 137.283 179.985 141.25C178.118 145.217 176.135 150.35 174.035 156.65C172.401 161.55 170.885 168.317 169.485 176.95C168.085 185.583 166.801 195.15 165.635 205.65C164.701 216.15 163.768 227.117 162.835 238.55C162.135 249.983 161.435 260.95 160.735 271.45C160.268 281.717 159.801 291.05 159.335 299.45C159.101 307.617 158.868 313.917 158.635 318.35C158.401 321.85 156.535 324.767 153.035 327.1C149.768 329.2 145.918 330.367 141.485 330.6C137.051 330.833 132.618 330.017 128.185 328.15C123.751 326.283 120.485 323.133 118.385 318.7C115.118 312.167 113.018 304.933 112.085 297C111.151 288.833 110.801 280.55 111.035 272.15C111.501 263.75 112.318 255.467 113.485 247.3C114.885 239.133 116.168 231.433 117.335 224.2C118.268 217.9 119.668 209.85 121.535 200.05C123.401 190.017 125.735 179.633 128.535 168.9C131.568 157.933 135.185 147.2 139.385 136.7C143.585 126.2 148.601 117.217 154.435 109.75C160.268 102.05 167.035 96.5667 174.735 93.3C182.668 90.0333 191.535 90.15 201.335 93.65C207.635 95.9833 213.001 101.117 217.435 109.05C221.868 116.983 225.485 126.55 228.285 137.75C231.085 148.95 233.185 161.2 234.585 174.5C236.218 187.567 237.385 200.4 238.085 213C238.785 225.6 239.135 237.267 239.135 248C239.368 258.733 239.601 267.25 239.835 273.55C241.701 268.65 243.801 262 246.135 253.6C248.701 244.967 251.501 235.517 254.535 225.25C257.801 214.75 261.301 204.017 265.035 193.05C269.001 181.85 273.318 171.233 277.985 161.2C282.651 150.933 287.668 141.717 293.035 133.55C298.401 125.383 304.118 119.2 310.185 115C316.251 110.8 322.668 109.05 329.435 109.75C336.435 110.217 343.785 114.067 351.485 121.3C356.618 126.2 360.818 134.133 364.085 145.1C367.585 155.833 370.501 168.083 372.835 181.85C375.401 195.617 377.618 210.083 379.485 225.25C381.351 240.417 383.218 254.65 385.085 267.95C387.185 281.25 389.401 292.917 391.735 302.95C394.068 312.75 397.101 319.4 400.835 322.9C406.435 328.5 411.801 332 416.935 333.4C422.068 335.033 426.618 335.967 430.585 336.2C434.551 336.433 437.935 336.55 440.735 336.55C443.768 336.55 445.868 337.833 447.035 340.4C447.968 342.5 447.618 344.717 445.985 347.05C444.585 349.617 442.251 351.833 438.985 353.7C435.718 355.8 431.635 357.433 426.735 358.6C421.835 360 416.585 360.467 410.985 360Z" fill="#258752"/>
</svg>
