<svg width="300" height="159" viewBox="0 0 300 159" fill="none" xmlns="http://www.w3.org/2000/svg">
<path d="M31.3125 147.816C30.6224 148.064 30.0104 148.266 29.4766 148.422C28.9557 148.578 28.5 148.695 28.1094 148.773C27.7188 148.865 27.3867 148.923 27.1133 148.949C26.8398 148.988 26.6185 149.008 26.4492 149.008C26.319 149.008 26.2148 149.001 26.1367 148.988C26.0716 148.988 26.013 148.982 25.9609 148.969C25.9089 148.956 25.8633 148.943 25.8242 148.93C25.6289 148.812 25.4401 148.604 25.2578 148.305C25.0755 148.018 24.9062 147.667 24.75 147.25C24.6068 146.846 24.4896 146.397 24.3984 145.902C24.3073 145.395 24.2617 144.867 24.2617 144.32C24.2617 143.982 24.2812 143.656 24.3203 143.344C24.3594 142.953 24.444 142.478 24.5742 141.918C24.7044 141.345 24.8542 140.74 25.0234 140.102C25.1927 139.451 25.3685 138.786 25.5508 138.109C25.7331 137.432 25.9023 136.794 26.0586 136.195C26.2148 135.583 26.3385 135.036 26.4297 134.555C26.5339 134.073 26.5859 133.702 26.5859 133.441C26.5859 133.298 26.5664 133.194 26.5273 133.129C26.4622 133.012 26.3125 132.953 26.0781 132.953C25.8958 132.953 25.6875 132.986 25.4531 133.051C25.2188 133.116 24.9714 133.207 24.7109 133.324C24.4505 133.428 24.1901 133.559 23.9297 133.715C23.6693 133.858 23.4284 134.014 23.207 134.184C23.1029 134.561 22.9076 135.245 22.6211 136.234C22.5039 136.651 22.3542 137.159 22.1719 137.758C21.9896 138.357 21.7747 139.06 21.5273 139.867C21.293 140.674 21.013 141.599 20.6875 142.641C20.375 143.682 20.0234 144.861 19.6328 146.176L17.6016 145.766C17.7839 145.271 18.0117 144.665 18.2852 143.949C18.5586 143.233 18.8385 142.471 19.125 141.664C19.4245 140.857 19.7174 140.036 20.0039 139.203C20.3034 138.357 20.5703 137.569 20.8047 136.84C21.0391 136.111 21.2279 135.466 21.3711 134.906C21.5143 134.346 21.5859 133.936 21.5859 133.676C21.5859 133.572 21.5794 133.507 21.5664 133.48C21.5143 133.337 21.4297 133.24 21.3125 133.188C21.1953 133.135 21.0586 133.109 20.9023 133.109C20.707 133.109 20.4922 133.142 20.2578 133.207C20.0365 133.272 19.8151 133.357 19.5938 133.461C19.3854 133.552 19.1836 133.656 18.9883 133.773C18.806 133.891 18.6628 133.995 18.5586 134.086C18.4544 134.177 18.3307 134.288 18.1875 134.418C18.0573 134.548 17.9141 134.685 17.7578 134.828C17.6406 135.193 17.4128 135.837 17.0742 136.762C16.931 137.165 16.7552 137.647 16.5469 138.207C16.3516 138.767 16.1172 139.438 15.8438 140.219C15.5703 140.987 15.2578 141.866 14.9062 142.855C14.5677 143.845 14.1771 144.971 13.7344 146.234L11.7617 145.492C12.2695 144.242 12.7188 143.129 13.1094 142.152C13.513 141.176 13.8646 140.316 14.1641 139.574C14.4635 138.819 14.7174 138.174 14.9258 137.641C15.1341 137.107 15.3099 136.658 15.4531 136.293C15.7917 135.434 16 134.867 16.0781 134.594C16.1432 134.372 16.2018 134.132 16.2539 133.871C16.319 133.611 16.3516 133.376 16.3516 133.168C16.3516 132.96 16.3125 132.79 16.2344 132.66C16.1693 132.517 16.0521 132.439 15.8828 132.426C15.8568 132.426 15.7852 132.445 15.668 132.484C15.5638 132.523 15.3945 132.634 15.1602 132.816C14.9258 132.999 14.6198 133.285 14.2422 133.676C13.8646 134.053 13.3958 134.594 12.8359 135.297L12.5039 133.246C12.6992 133.038 12.9727 132.797 13.3242 132.523C13.6888 132.237 14.0664 131.97 14.457 131.723C14.8607 131.462 15.2513 131.247 15.6289 131.078C16.0195 130.909 16.3451 130.824 16.6055 130.824C16.6576 130.824 16.7227 130.837 16.8008 130.863C16.918 130.889 17.0286 130.967 17.1328 131.098C17.237 131.215 17.3281 131.365 17.4062 131.547C17.4974 131.729 17.569 131.938 17.6211 132.172C17.6862 132.393 17.7383 132.621 17.7773 132.855C18.0508 132.673 18.3503 132.491 18.6758 132.309C19.0143 132.126 19.3464 131.97 19.6719 131.84C20.0104 131.697 20.3294 131.586 20.6289 131.508C20.9284 131.417 21.1758 131.371 21.3711 131.371H21.4492C21.6706 131.397 21.8919 131.514 22.1133 131.723C22.3477 131.918 22.5495 132.159 22.7188 132.445C22.9531 132.315 23.2331 132.178 23.5586 132.035C23.8841 131.879 24.2096 131.742 24.5352 131.625C24.8607 131.508 25.1732 131.41 25.4727 131.332C25.7721 131.254 26.0195 131.215 26.2148 131.215H26.2344C26.4688 131.215 26.7227 131.326 26.9961 131.547C27.2826 131.755 27.543 132.016 27.7773 132.328C28.0247 132.628 28.2331 132.947 28.4023 133.285C28.5716 133.611 28.6628 133.897 28.6758 134.145C28.6758 134.288 28.6042 134.6 28.4609 135.082C28.3307 135.551 28.1549 136.13 27.9336 136.82C27.7253 137.497 27.4974 138.246 27.25 139.066C27.0026 139.887 26.7682 140.714 26.5469 141.547C26.3385 142.367 26.1628 143.161 26.0195 143.93C25.8763 144.698 25.8047 145.362 25.8047 145.922C25.8047 146.638 25.9349 147.126 26.1953 147.387C26.4297 147.582 26.6706 147.719 26.918 147.797C27.1654 147.888 27.4193 147.934 27.6797 147.934C28.0312 147.934 28.3763 147.868 28.7148 147.738C29.0534 147.621 29.3659 147.484 29.6523 147.328C29.9518 147.172 30.2122 147.016 30.4336 146.859C30.6549 146.703 30.8177 146.592 30.9219 146.527L31.3125 147.816ZM34.4766 137.934C34.3724 137.934 34.2292 138.012 34.0469 138.168C33.8776 138.324 33.6888 138.533 33.4805 138.793C33.2852 139.04 33.0768 139.333 32.8555 139.672C32.6341 140.01 32.4388 140.362 32.2695 140.727C32.2044 140.857 32.1458 140.987 32.0938 141.117C32.0417 141.247 31.9896 141.384 31.9375 141.527C32.276 141.462 32.6276 141.384 32.9922 141.293C33.3698 141.189 33.6497 141.078 33.832 140.961C33.9232 140.896 34.0208 140.766 34.125 140.57C34.2422 140.375 34.3464 140.16 34.4375 139.926C34.5417 139.678 34.6263 139.424 34.6914 139.164C34.7565 138.891 34.7891 138.656 34.7891 138.461C34.7891 138.318 34.763 138.194 34.7109 138.09C34.6589 137.986 34.5807 137.934 34.4766 137.934ZM38.8125 143.5C38.5781 143.669 38.3047 143.865 37.9922 144.086C37.6797 144.294 37.3477 144.516 36.9961 144.75C36.6576 144.971 36.3125 145.193 35.9609 145.414C35.6224 145.635 35.3034 145.831 35.0039 146C34.7174 146.182 34.4701 146.326 34.2617 146.43C34.0534 146.547 33.9167 146.612 33.8516 146.625C33.8125 146.638 33.7604 146.645 33.6953 146.645C33.474 146.645 33.181 146.586 32.8164 146.469C32.4648 146.365 32.1068 146.228 31.7422 146.059C31.3776 145.902 31.0391 145.733 30.7266 145.551C30.4271 145.355 30.2253 145.173 30.1211 145.004C30.043 144.861 29.9844 144.678 29.9453 144.457C29.9193 144.223 29.9062 143.956 29.9062 143.656C29.9062 143.396 29.9193 143.122 29.9453 142.836C29.9714 142.536 30.0039 142.257 30.043 141.996C30.0951 141.723 30.1471 141.475 30.1992 141.254C30.2643 141.033 30.3359 140.857 30.4141 140.727C30.5052 140.544 30.6484 140.316 30.8438 140.043C31.0391 139.757 31.2604 139.464 31.5078 139.164C31.7682 138.852 32.0417 138.539 32.3281 138.227C32.6146 137.914 32.901 137.634 33.1875 137.387C33.474 137.126 33.7474 136.918 34.0078 136.762C34.2812 136.592 34.5221 136.501 34.7305 136.488C34.7435 136.488 34.75 136.488 34.75 136.488C34.763 136.475 34.7826 136.469 34.8086 136.469C35.0169 136.469 35.2253 136.56 35.4336 136.742C35.6419 136.924 35.8242 137.146 35.9805 137.406C36.1367 137.667 36.2604 137.947 36.3516 138.246C36.4557 138.533 36.5078 138.793 36.5078 139.027C36.5078 139.145 36.5013 139.229 36.4883 139.281C36.4362 139.49 36.319 139.75 36.1367 140.062C35.9544 140.362 35.7526 140.661 35.5312 140.961C35.3099 141.247 35.0951 141.508 34.8867 141.742C34.6784 141.964 34.5221 142.113 34.418 142.191C34.3398 142.257 34.1966 142.322 33.9883 142.387C33.793 142.439 33.5586 142.497 33.2852 142.562C33.0247 142.615 32.7448 142.667 32.4453 142.719C32.1458 142.771 31.8529 142.816 31.5664 142.855C31.5143 143.116 31.4753 143.344 31.4492 143.539C31.4232 143.721 31.4036 143.852 31.3906 143.93C31.4167 144.073 31.4948 144.216 31.625 144.359C31.7552 144.503 31.918 144.633 32.1133 144.75C32.3086 144.867 32.5234 144.965 32.7578 145.043C33.0052 145.108 33.2526 145.141 33.5 145.141C33.5521 145.141 33.6042 145.141 33.6562 145.141C33.7214 145.141 33.7799 145.134 33.832 145.121C34.0664 145.056 34.3789 144.906 34.7695 144.672C35.1602 144.438 35.5638 144.171 35.9805 143.871C36.4102 143.572 36.8138 143.266 37.1914 142.953C37.582 142.628 37.8815 142.341 38.0898 142.094L38.8125 143.5ZM40.7852 137.211C40.7982 137.289 40.8112 137.387 40.8242 137.504C40.8372 137.608 40.8503 137.732 40.8633 137.875C40.8763 138.005 40.8828 138.161 40.8828 138.344V138.363V138.5C41.1302 138.253 41.4102 138.018 41.7227 137.797C42.0482 137.576 42.3672 137.374 42.6797 137.191C43.0052 136.996 43.3177 136.827 43.6172 136.684C43.9297 136.54 44.2031 136.417 44.4375 136.312C44.6068 136.234 44.7956 136.195 45.0039 136.195C45.3815 136.195 45.7266 136.312 46.0391 136.547C46.3646 136.768 46.5469 137.035 46.5859 137.348C46.9896 137.061 47.4193 136.827 47.875 136.645C48.3438 136.449 48.7539 136.352 49.1055 136.352C49.2357 136.352 49.3984 136.423 49.5938 136.566C49.8021 136.71 49.9974 136.885 50.1797 137.094C50.375 137.289 50.5378 137.497 50.668 137.719C50.8112 137.927 50.8828 138.096 50.8828 138.227V138.266C50.8698 138.331 50.8047 138.5 50.6875 138.773C50.5833 139.047 50.4466 139.379 50.2773 139.77C50.1081 140.16 49.9258 140.59 49.7305 141.059C49.5482 141.527 49.3724 141.996 49.2031 142.465C49.0469 142.934 48.9102 143.383 48.793 143.812C48.6888 144.229 48.6367 144.587 48.6367 144.887C48.6367 145.303 48.7604 145.544 49.0078 145.609C49.4766 145.518 49.9258 145.388 50.3555 145.219C50.7201 145.076 51.0911 144.887 51.4688 144.652C51.8464 144.405 52.1523 144.099 52.3867 143.734L52.9727 145.043C52.4128 145.46 51.8333 145.805 51.2344 146.078C50.6484 146.365 50.1081 146.592 49.6133 146.762C49.0273 146.957 48.4609 147.113 47.9141 147.23C47.6016 147.074 47.3607 146.859 47.1914 146.586C47.0352 146.326 46.957 145.967 46.957 145.512C46.957 145.29 46.9766 145.036 47.0156 144.75C47.0547 144.464 47.1263 144.138 47.2305 143.773C47.3346 143.331 47.4974 142.823 47.7188 142.25C47.9531 141.664 48.1875 141.085 48.4219 140.512C48.6562 139.939 48.8581 139.398 49.0273 138.891C49.1966 138.37 49.2812 137.953 49.2812 137.641C48.9036 137.706 48.5065 137.81 48.0898 137.953C47.6862 138.083 47.2891 138.285 46.8984 138.559C46.5208 138.819 46.1693 139.151 45.8438 139.555C45.5182 139.958 45.2448 140.453 45.0234 141.039C44.9583 141.195 44.9128 141.319 44.8867 141.41C44.8607 141.488 44.8346 141.54 44.8086 141.566C44.7044 141.827 44.6068 142.1 44.5156 142.387C44.4245 142.66 44.3659 142.927 44.3398 143.188C44.3138 143.37 44.2878 143.559 44.2617 143.754C44.2227 144.092 44.2031 144.509 44.2031 145.004C44.2031 145.199 44.2096 145.401 44.2227 145.609C44.2357 145.818 44.2682 146.013 44.3203 146.195L42.1719 146.137C42.1849 145.59 42.2695 144.945 42.4258 144.203C42.5951 143.461 42.8034 142.699 43.0508 141.918C43.2982 141.137 43.5586 140.388 43.832 139.672C44.1185 138.956 44.3854 138.35 44.6328 137.855C44.3203 137.908 43.9753 138.005 43.5977 138.148C43.2331 138.292 42.8685 138.467 42.5039 138.676C42.1393 138.884 41.8008 139.112 41.4883 139.359C41.1758 139.594 40.9219 139.828 40.7266 140.062C40.5703 140.232 40.4206 140.453 40.2773 140.727C40.1081 141.221 39.9128 141.775 39.6914 142.387C39.5091 142.921 39.2812 143.546 39.0078 144.262C38.7474 144.965 38.4479 145.746 38.1094 146.605L36.4102 146.215C36.7747 145.486 37.1198 144.743 37.4453 143.988C37.7578 143.22 38.0312 142.484 38.2656 141.781C38.5 141.078 38.6823 140.421 38.8125 139.809C38.9557 139.197 39.0273 138.676 39.0273 138.246V137.992L40.7852 137.211ZM54.125 144.828C54.2682 144.828 54.457 144.757 54.6914 144.613C54.9258 144.457 55.1797 144.255 55.4531 144.008C55.7266 143.76 56.0065 143.48 56.293 143.168C56.5924 142.855 56.8789 142.543 57.1523 142.23C57.2956 141.775 57.4779 141.221 57.6992 140.57C57.9336 139.906 58.194 139.19 58.4805 138.422L58.207 138.949C58.168 138.754 58.1029 138.572 58.0117 138.402C57.9206 138.233 57.8164 138.083 57.6992 137.953C57.582 137.81 57.4583 137.699 57.3281 137.621C57.2109 137.543 57.1068 137.504 57.0156 137.504C56.9505 137.504 56.9049 137.517 56.8789 137.543C56.8268 137.582 56.7096 137.706 56.5273 137.914C56.3581 138.109 56.1497 138.357 55.9023 138.656C55.668 138.956 55.4141 139.288 55.1406 139.652C54.8802 140.017 54.6328 140.375 54.3984 140.727C54.1771 141.078 53.9818 141.41 53.8125 141.723C53.6432 142.022 53.5456 142.263 53.5195 142.445C53.4935 142.628 53.4674 142.816 53.4414 143.012C53.4154 143.194 53.4023 143.376 53.4023 143.559C53.4023 143.897 53.4479 144.19 53.5391 144.438C53.6432 144.685 53.8255 144.815 54.0859 144.828H54.125ZM62.9336 143.52C62.7643 143.715 62.5234 143.988 62.2109 144.34C61.8984 144.691 61.5599 145.043 61.1953 145.395C60.8438 145.733 60.4857 146.026 60.1211 146.273C59.7695 146.534 59.4701 146.664 59.2227 146.664H59.1836C58.9362 146.664 58.6693 146.632 58.3828 146.566C58.0964 146.501 57.8294 146.41 57.582 146.293C57.3477 146.189 57.1458 146.065 56.9766 145.922C56.8203 145.766 56.7422 145.596 56.7422 145.414V145.395C56.7422 145.264 56.7487 145.115 56.7617 144.945C56.7747 144.763 56.7878 144.574 56.8008 144.379C56.2409 144.926 55.681 145.382 55.1211 145.746C54.5742 146.111 54.0924 146.293 53.6758 146.293C53.5716 146.293 53.5 146.286 53.4609 146.273C53.2266 146.234 53.0117 146.124 52.8164 145.941C52.6211 145.746 52.4518 145.512 52.3086 145.238C52.1784 144.952 52.0742 144.639 51.9961 144.301C51.918 143.962 51.8789 143.624 51.8789 143.285C51.8789 142.79 51.957 142.328 52.1133 141.898C52.2174 141.625 52.3672 141.299 52.5625 140.922C52.7578 140.544 52.9792 140.147 53.2266 139.73C53.487 139.314 53.7604 138.904 54.0469 138.5C54.3464 138.083 54.6393 137.706 54.9258 137.367C55.2253 137.029 55.5182 136.755 55.8047 136.547C56.0911 136.326 56.3581 136.195 56.6055 136.156C56.6706 136.143 56.7292 136.137 56.7812 136.137C56.8333 136.137 56.8854 136.137 56.9375 136.137C57.2109 136.137 57.4518 136.176 57.6602 136.254C57.8815 136.332 58.0703 136.436 58.2266 136.566C58.3958 136.684 58.5326 136.814 58.6367 136.957C58.7409 137.1 58.819 137.23 58.8711 137.348C58.9102 137.191 58.9557 137.068 59.0078 136.977L60.2773 137.172C59.9258 138.057 59.6003 138.956 59.3008 139.867C59.0013 140.766 58.7669 141.625 58.5977 142.445L58.6172 142.504L58.5781 142.543C58.5 142.934 58.4349 143.305 58.3828 143.656C58.3438 144.008 58.3242 144.333 58.3242 144.633C58.3242 144.776 58.3242 144.9 58.3242 145.004C58.3372 145.108 58.3503 145.212 58.3633 145.316C58.6888 145.199 59.0534 145.023 59.457 144.789C59.8737 144.555 60.2773 144.294 60.668 144.008C61.0716 143.721 61.4492 143.428 61.8008 143.129C62.1523 142.816 62.4388 142.543 62.6602 142.309L62.9336 143.52ZM63.3633 138.188C63.7148 138.005 64.0273 137.842 64.3008 137.699C64.5352 137.582 64.75 137.471 64.9453 137.367C65.1536 137.263 65.2708 137.211 65.2969 137.211C65.2969 137.276 65.2969 137.328 65.2969 137.367C65.3099 137.406 65.3164 137.445 65.3164 137.484C65.3164 137.549 65.3099 137.615 65.2969 137.68C65.2969 137.745 65.2904 137.81 65.2773 137.875C65.668 137.51 66.0846 137.211 66.5273 136.977C66.9831 136.729 67.4062 136.553 67.7969 136.449H67.8945C68.0378 136.449 68.2331 136.495 68.4805 136.586C68.7279 136.677 68.9688 136.794 69.2031 136.938C69.4375 137.081 69.6393 137.237 69.8086 137.406C69.9909 137.562 70.082 137.712 70.082 137.855C70.082 137.947 70.0299 138.142 69.9258 138.441C69.8346 138.728 69.7109 139.079 69.5547 139.496C69.4115 139.913 69.2487 140.375 69.0664 140.883C68.8971 141.378 68.7344 141.879 68.5781 142.387C68.4349 142.882 68.3112 143.357 68.207 143.812C68.1029 144.255 68.0508 144.639 68.0508 144.965C68.0508 145.186 68.0833 145.368 68.1484 145.512C68.2135 145.655 68.3177 145.74 68.4609 145.766C68.9427 145.688 69.4049 145.551 69.8477 145.355C70.2253 145.186 70.6224 144.958 71.0391 144.672C71.4688 144.372 71.8464 143.975 72.1719 143.48L72.7383 144.965C72.4258 145.303 72.0547 145.622 71.625 145.922C71.2083 146.208 70.7786 146.462 70.3359 146.684C69.8932 146.905 69.4505 147.074 69.0078 147.191C68.5781 147.322 68.2005 147.387 67.875 147.387C67.5625 147.387 67.3216 147.322 67.1523 147.191C66.9701 147.061 66.8333 146.794 66.7422 146.391C66.6641 145.987 66.625 145.538 66.625 145.043C66.625 144.783 66.6315 144.529 66.6445 144.281C66.6706 144.021 66.7096 143.76 66.7617 143.5C66.8529 142.966 66.9831 142.419 67.1523 141.859C67.3216 141.299 67.4844 140.766 67.6406 140.258C67.8099 139.737 67.9531 139.268 68.0703 138.852C68.1875 138.422 68.2526 138.077 68.2656 137.816C67.4323 138.077 66.6901 138.5 66.0391 139.086C65.388 139.672 64.8867 140.329 64.5352 141.059C64.1055 141.931 63.7409 142.842 63.4414 143.793C63.1549 144.73 62.8424 145.668 62.5039 146.605L60.7461 146.156C60.9154 145.896 61.0977 145.564 61.293 145.16C61.4883 144.743 61.6771 144.288 61.8594 143.793C62.0547 143.298 62.2435 142.784 62.4258 142.25C62.6081 141.716 62.7708 141.202 62.9141 140.707C63.0573 140.212 63.168 139.75 63.2461 139.32C63.3372 138.891 63.3893 138.533 63.4023 138.246L63.3633 138.188ZM73.8906 144.828C74.0339 144.828 74.2227 144.75 74.457 144.594C74.6914 144.438 74.9453 144.236 75.2188 143.988C75.4922 143.741 75.7721 143.461 76.0586 143.148C76.3581 142.836 76.6445 142.523 76.918 142.211C77.0612 141.755 77.2435 141.202 77.4648 140.551C77.6992 139.887 77.9596 139.171 78.2461 138.402L77.9727 138.93C77.9336 138.734 77.8685 138.552 77.7773 138.383C77.6862 138.214 77.582 138.064 77.4648 137.934C77.3477 137.79 77.224 137.68 77.0938 137.602C76.9766 137.523 76.8724 137.484 76.7812 137.484C76.7422 137.484 76.6966 137.497 76.6445 137.523C76.5924 137.562 76.4753 137.686 76.293 137.895C76.1237 138.09 75.9154 138.344 75.668 138.656C75.4336 138.956 75.1797 139.288 74.9062 139.652C74.6458 140.004 74.3984 140.355 74.1641 140.707C73.9427 141.059 73.7474 141.391 73.5781 141.703C73.4089 142.003 73.3112 142.243 73.2852 142.426C73.2591 142.608 73.2331 142.797 73.207 142.992C73.181 143.174 73.168 143.357 73.168 143.539C73.168 143.878 73.2135 144.171 73.3047 144.418C73.4089 144.665 73.5911 144.802 73.8516 144.828H73.8906ZM73.8906 152.426C74.3594 151.762 74.7565 150.954 75.082 150.004C75.4076 149.066 75.6875 148.083 75.9219 147.055C75.3229 147.589 74.9128 148.09 74.6914 148.559C74.4049 149.184 74.1966 149.776 74.0664 150.336C73.9362 150.896 73.8711 151.449 73.8711 151.996C73.8711 152.061 73.8711 152.133 73.8711 152.211C73.8841 152.289 73.8906 152.361 73.8906 152.426ZM76.332 144.906C76.3451 144.854 76.3516 144.802 76.3516 144.75C76.3516 144.698 76.3516 144.646 76.3516 144.594C75.7917 145.128 75.2708 145.544 74.7891 145.844C74.3203 146.143 73.8841 146.293 73.4805 146.293C73.4414 146.293 73.3958 146.286 73.3438 146.273C73.3047 146.273 73.2656 146.273 73.2266 146.273C72.9792 146.221 72.7448 146.104 72.5234 145.922C72.3151 145.727 72.1328 145.492 71.9766 145.219C71.8203 144.932 71.6966 144.62 71.6055 144.281C71.5143 143.943 71.4688 143.604 71.4688 143.266C71.4688 142.875 71.5404 142.478 71.6836 142.074C71.7878 141.801 71.944 141.469 72.1523 141.078C72.3607 140.688 72.5951 140.284 72.8555 139.867C73.1289 139.438 73.4154 139.008 73.7148 138.578C74.0273 138.148 74.3398 137.758 74.6523 137.406C74.9648 137.055 75.2643 136.768 75.5508 136.547C75.8503 136.312 76.1237 136.176 76.3711 136.137C76.4362 136.124 76.4948 136.117 76.5469 136.117C76.599 136.117 76.651 136.117 76.7031 136.117C76.9766 136.117 77.2174 136.156 77.4258 136.234C77.6471 136.312 77.8359 136.417 77.9922 136.547C78.1615 136.664 78.2982 136.794 78.4023 136.938C78.5065 137.081 78.5846 137.211 78.6367 137.328C78.6758 137.172 78.7214 137.048 78.7734 136.957L80.043 137.152C79.6914 138.025 79.3659 138.917 79.0664 139.828C78.7669 140.74 78.5326 141.605 78.3633 142.426L78.3828 142.484C78.3828 142.484 78.3698 142.549 78.3438 142.68C78.3177 142.797 78.2917 142.927 78.2656 143.07C78.2396 143.214 78.2135 143.344 78.1875 143.461C78.1615 143.578 78.1484 143.637 78.1484 143.637C78.3828 143.48 78.6758 143.318 79.0273 143.148C79.3919 142.979 79.75 142.816 80.1016 142.66C80.4661 142.504 80.7917 142.374 81.0781 142.27C81.3646 142.152 81.5469 142.081 81.625 142.055L81.4883 143.48C81.3841 143.546 81.1888 143.65 80.9023 143.793C80.6159 143.936 80.2839 144.105 79.9062 144.301C79.5286 144.496 79.1315 144.717 78.7148 144.965C78.2982 145.199 77.9076 145.453 77.543 145.727C77.2826 146.638 77.0091 147.569 76.7227 148.52C76.4492 149.483 76.1823 150.362 75.9219 151.156C75.6745 151.964 75.4466 152.641 75.2383 153.188C75.043 153.734 74.8997 154.066 74.8086 154.184C74.6263 154.366 74.444 154.516 74.2617 154.633C74.0794 154.763 73.8906 154.828 73.6953 154.828C73.3047 154.828 72.9596 154.568 72.6602 154.047C72.4909 153.721 72.4062 153.201 72.4062 152.484C72.4062 152.042 72.4388 151.56 72.5039 151.039C72.569 150.518 72.6536 150.01 72.7578 149.516C72.875 149.021 73.0052 148.565 73.1484 148.148C73.3047 147.732 73.474 147.4 73.6562 147.152C73.8776 146.879 74.2292 146.54 74.7109 146.137C75.2057 145.733 75.7461 145.323 76.332 144.906ZM102.484 147.27C101.326 147.751 100.368 148.064 99.6133 148.207C98.8711 148.35 98.3047 148.422 97.9141 148.422C97.7708 148.422 97.6471 148.415 97.543 148.402C97.4518 148.402 97.3737 148.396 97.3086 148.383C97.2305 148.37 97.1719 148.357 97.1328 148.344C96.8464 148.24 96.612 148.038 96.4297 147.738C96.2474 147.452 96.0977 147.113 95.9805 146.723C95.8763 146.332 95.7982 145.922 95.7461 145.492C95.707 145.049 95.6875 144.633 95.6875 144.242C95.6875 143.63 95.7266 143.155 95.8047 142.816C95.8438 142.634 95.9349 142.335 96.0781 141.918C96.2214 141.501 96.3906 141.013 96.5859 140.453C96.7812 139.893 96.9831 139.301 97.1914 138.676C97.4128 138.051 97.6146 137.445 97.7969 136.859C97.9792 136.26 98.1289 135.72 98.2461 135.238C98.3633 134.743 98.4219 134.359 98.4219 134.086C98.4219 133.995 98.4089 133.897 98.3828 133.793C98.2526 133.415 98.0703 133.148 97.8359 132.992C97.6016 132.823 97.3411 132.738 97.0547 132.738C96.8333 132.738 96.6185 132.777 96.4102 132.855C96.2539 132.921 96.0456 133.038 95.7852 133.207C95.5378 133.363 95.2773 133.552 95.0039 133.773C94.7305 133.982 94.4635 134.21 94.2031 134.457C93.9557 134.691 93.7474 134.919 93.5781 135.141C93.3958 135.688 93.1745 136.332 92.9141 137.074C92.6667 137.816 92.3997 138.591 92.1133 139.398C91.8398 140.193 91.5534 140.98 91.2539 141.762C90.9674 142.543 90.7005 143.253 90.4531 143.891C90.2188 144.516 90.0039 145.036 89.8086 145.453C89.6263 145.87 89.5026 146.111 89.4375 146.176L87.7773 145.746C87.9206 145.486 88.1224 145.03 88.3828 144.379C88.6562 143.715 88.9492 142.96 89.2617 142.113C89.5872 141.267 89.9128 140.382 90.2383 139.457C90.5768 138.52 90.8828 137.641 91.1562 136.82C91.4427 136 91.6771 135.29 91.8594 134.691C92.0547 134.092 92.1719 133.702 92.2109 133.52C92.224 133.454 92.2305 133.376 92.2305 133.285C92.2305 133.129 92.1979 133.025 92.1328 132.973C92.0807 132.908 92.0026 132.875 91.8984 132.875C91.7552 132.875 91.599 132.921 91.4297 133.012C91.2604 133.09 91.1302 133.155 91.0391 133.207C90.8958 133.298 90.7461 133.415 90.5898 133.559C90.4466 133.689 90.2773 133.871 90.082 134.105C89.8997 134.327 89.6979 134.613 89.4766 134.965L88.6953 133.48C88.9036 133.259 89.1771 133.018 89.5156 132.758C89.8542 132.497 90.1992 132.257 90.5508 132.035C90.9023 131.814 91.2409 131.632 91.5664 131.488C91.8919 131.345 92.1458 131.273 92.3281 131.273C92.3542 131.273 92.3737 131.28 92.3867 131.293C92.3997 131.293 92.4128 131.293 92.4258 131.293C92.543 131.319 92.6732 131.371 92.8164 131.449C92.9596 131.514 93.1029 131.605 93.2461 131.723C93.3893 131.827 93.526 131.957 93.6562 132.113C93.7865 132.257 93.8906 132.419 93.9688 132.602C94.1771 132.471 94.444 132.328 94.7695 132.172C95.0951 132.003 95.4271 131.846 95.7656 131.703C96.1172 131.56 96.4492 131.443 96.7617 131.352C97.0872 131.247 97.3607 131.195 97.582 131.195C97.6602 131.195 97.7122 131.202 97.7383 131.215C97.9336 131.254 98.1615 131.358 98.4219 131.527C98.6823 131.684 98.9297 131.879 99.1641 132.113C99.3984 132.348 99.5938 132.615 99.75 132.914C99.9193 133.201 100.004 133.487 100.004 133.773V133.988C99.9648 134.301 99.8802 134.757 99.75 135.355C99.6328 135.941 99.4896 136.579 99.3203 137.27C99.1641 137.947 98.9948 138.624 98.8125 139.301C98.6302 139.978 98.4544 140.551 98.2852 141.02C98.181 141.293 98.0768 141.599 97.9727 141.938C97.8815 142.276 97.8034 142.621 97.7383 142.973C97.6732 143.35 97.6211 143.728 97.582 144.105C97.556 144.47 97.543 144.822 97.543 145.16C97.543 145.616 97.582 146.007 97.6602 146.332C97.7383 146.658 97.875 146.853 98.0703 146.918C98.0703 146.931 98.0833 146.938 98.1094 146.938H98.2656C98.3568 146.938 98.487 146.924 98.6562 146.898C98.8385 146.872 99.0664 146.82 99.3398 146.742C99.6133 146.664 99.9388 146.547 100.316 146.391C100.707 146.234 101.163 146.026 101.684 145.766L102.484 147.27ZM103.383 151.938C103.539 151.729 103.702 151.449 103.871 151.098C104.04 150.759 104.21 150.388 104.379 149.984C104.561 149.581 104.73 149.164 104.887 148.734C105.043 148.305 105.193 147.895 105.336 147.504C105.219 147.634 105.062 147.882 104.867 148.246C104.672 148.611 104.47 149.014 104.262 149.457C104.066 149.9 103.884 150.342 103.715 150.785C103.546 151.241 103.435 151.625 103.383 151.938ZM103.5 136.84C103.63 136.918 103.858 136.957 104.184 136.957C104.444 136.957 104.691 136.944 104.926 136.918C105.173 136.879 105.316 136.853 105.355 136.84C104.926 137.842 104.542 138.806 104.203 139.73C104.06 140.121 103.917 140.531 103.773 140.961C103.63 141.378 103.507 141.788 103.402 142.191C103.298 142.595 103.214 142.986 103.148 143.363C103.083 143.728 103.051 144.053 103.051 144.34V144.438C103.272 144.503 103.487 144.535 103.695 144.535C103.917 144.535 104.138 144.49 104.359 144.398C104.594 144.294 104.822 144.112 105.043 143.852C105.16 143.708 105.316 143.5 105.512 143.227C105.707 142.953 105.922 142.641 106.156 142.289C106.391 141.938 106.632 141.56 106.879 141.156C107.139 140.74 107.38 140.329 107.602 139.926C107.797 139.6 107.973 139.255 108.129 138.891C108.272 138.591 108.409 138.246 108.539 137.855C108.669 137.465 108.76 137.074 108.812 136.684L110.414 136.918C110.18 137.634 109.932 138.363 109.672 139.105C109.424 139.848 109.19 140.531 108.969 141.156C108.721 141.872 108.474 142.576 108.227 143.266C108.734 143.018 109.236 142.777 109.73 142.543C110.147 142.348 110.583 142.159 111.039 141.977C111.495 141.781 111.892 141.632 112.23 141.527L111.918 143.031C111.632 143.188 111.286 143.363 110.883 143.559C110.492 143.741 110.089 143.943 109.672 144.164C109.255 144.372 108.852 144.594 108.461 144.828C108.083 145.049 107.758 145.264 107.484 145.473C107.172 146.384 106.866 147.276 106.566 148.148C106.28 149.034 106.007 149.835 105.746 150.551C105.499 151.267 105.277 151.879 105.082 152.387C104.9 152.895 104.763 153.233 104.672 153.402C104.503 153.741 104.262 153.982 103.949 154.125C103.65 154.268 103.337 154.34 103.012 154.34C102.621 154.34 102.276 154.249 101.977 154.066C101.677 153.884 101.527 153.63 101.527 153.305C101.527 153.266 101.534 153.24 101.547 153.227C101.573 152.94 101.651 152.576 101.781 152.133C101.924 151.703 102.113 151.228 102.348 150.707C102.582 150.186 102.849 149.639 103.148 149.066C103.461 148.493 103.799 147.934 104.164 147.387C104.529 146.84 104.906 146.326 105.297 145.844C105.701 145.362 106.104 144.939 106.508 144.574C106.547 144.535 106.586 144.503 106.625 144.477C106.664 144.438 106.703 144.398 106.742 144.359L107.348 142.621C107.139 143.012 106.918 143.37 106.684 143.695C106.462 144.008 106.241 144.294 106.02 144.555C105.811 144.815 105.609 145.049 105.414 145.258C105.232 145.453 105.082 145.616 104.965 145.746C104.861 145.837 104.691 145.909 104.457 145.961C104.223 146 103.949 146.02 103.637 146.02C103.35 146.02 103.057 146 102.758 145.961C102.458 145.909 102.178 145.837 101.918 145.746C101.671 145.642 101.469 145.512 101.312 145.355C101.156 145.186 101.078 144.991 101.078 144.77C101.078 144.561 101.13 144.262 101.234 143.871C101.339 143.467 101.469 143.025 101.625 142.543C101.781 142.048 101.951 141.527 102.133 140.98C102.328 140.434 102.51 139.9 102.68 139.379C102.862 138.858 103.025 138.376 103.168 137.934C103.311 137.491 103.422 137.126 103.5 136.84ZM115.707 137.934C115.603 137.934 115.46 138.012 115.277 138.168C115.108 138.324 114.919 138.533 114.711 138.793C114.516 139.04 114.307 139.333 114.086 139.672C113.865 140.01 113.669 140.362 113.5 140.727C113.435 140.857 113.376 140.987 113.324 141.117C113.272 141.247 113.22 141.384 113.168 141.527C113.507 141.462 113.858 141.384 114.223 141.293C114.6 141.189 114.88 141.078 115.062 140.961C115.154 140.896 115.251 140.766 115.355 140.57C115.473 140.375 115.577 140.16 115.668 139.926C115.772 139.678 115.857 139.424 115.922 139.164C115.987 138.891 116.02 138.656 116.02 138.461C116.02 138.318 115.993 138.194 115.941 138.09C115.889 137.986 115.811 137.934 115.707 137.934ZM120.043 143.5C119.809 143.669 119.535 143.865 119.223 144.086C118.91 144.294 118.578 144.516 118.227 144.75C117.888 144.971 117.543 145.193 117.191 145.414C116.853 145.635 116.534 145.831 116.234 146C115.948 146.182 115.701 146.326 115.492 146.43C115.284 146.547 115.147 146.612 115.082 146.625C115.043 146.638 114.991 146.645 114.926 146.645C114.704 146.645 114.411 146.586 114.047 146.469C113.695 146.365 113.337 146.228 112.973 146.059C112.608 145.902 112.27 145.733 111.957 145.551C111.658 145.355 111.456 145.173 111.352 145.004C111.273 144.861 111.215 144.678 111.176 144.457C111.15 144.223 111.137 143.956 111.137 143.656C111.137 143.396 111.15 143.122 111.176 142.836C111.202 142.536 111.234 142.257 111.273 141.996C111.326 141.723 111.378 141.475 111.43 141.254C111.495 141.033 111.566 140.857 111.645 140.727C111.736 140.544 111.879 140.316 112.074 140.043C112.27 139.757 112.491 139.464 112.738 139.164C112.999 138.852 113.272 138.539 113.559 138.227C113.845 137.914 114.132 137.634 114.418 137.387C114.704 137.126 114.978 136.918 115.238 136.762C115.512 136.592 115.753 136.501 115.961 136.488C115.974 136.488 115.98 136.488 115.98 136.488C115.993 136.475 116.013 136.469 116.039 136.469C116.247 136.469 116.456 136.56 116.664 136.742C116.872 136.924 117.055 137.146 117.211 137.406C117.367 137.667 117.491 137.947 117.582 138.246C117.686 138.533 117.738 138.793 117.738 139.027C117.738 139.145 117.732 139.229 117.719 139.281C117.667 139.49 117.549 139.75 117.367 140.062C117.185 140.362 116.983 140.661 116.762 140.961C116.54 141.247 116.326 141.508 116.117 141.742C115.909 141.964 115.753 142.113 115.648 142.191C115.57 142.257 115.427 142.322 115.219 142.387C115.023 142.439 114.789 142.497 114.516 142.562C114.255 142.615 113.975 142.667 113.676 142.719C113.376 142.771 113.083 142.816 112.797 142.855C112.745 143.116 112.706 143.344 112.68 143.539C112.654 143.721 112.634 143.852 112.621 143.93C112.647 144.073 112.725 144.216 112.855 144.359C112.986 144.503 113.148 144.633 113.344 144.75C113.539 144.867 113.754 144.965 113.988 145.043C114.236 145.108 114.483 145.141 114.73 145.141C114.783 145.141 114.835 145.141 114.887 145.141C114.952 145.141 115.01 145.134 115.062 145.121C115.297 145.056 115.609 144.906 116 144.672C116.391 144.438 116.794 144.171 117.211 143.871C117.641 143.572 118.044 143.266 118.422 142.953C118.812 142.628 119.112 142.341 119.32 142.094L120.043 143.5ZM121.078 144.828C121.221 144.828 121.41 144.75 121.645 144.594C121.879 144.438 122.133 144.236 122.406 143.988C122.68 143.741 122.96 143.461 123.246 143.148C123.546 142.836 123.832 142.523 124.105 142.211C124.249 141.755 124.431 141.202 124.652 140.551C124.887 139.887 125.147 139.171 125.434 138.402L125.16 138.93C125.121 138.734 125.056 138.552 124.965 138.383C124.874 138.214 124.77 138.064 124.652 137.934C124.535 137.79 124.411 137.68 124.281 137.602C124.164 137.523 124.06 137.484 123.969 137.484C123.93 137.484 123.884 137.497 123.832 137.523C123.78 137.562 123.663 137.686 123.48 137.895C123.311 138.09 123.103 138.344 122.855 138.656C122.621 138.956 122.367 139.288 122.094 139.652C121.833 140.004 121.586 140.355 121.352 140.707C121.13 141.059 120.935 141.391 120.766 141.703C120.596 142.003 120.499 142.243 120.473 142.426C120.447 142.608 120.421 142.797 120.395 142.992C120.368 143.174 120.355 143.357 120.355 143.539C120.355 143.878 120.401 144.171 120.492 144.418C120.596 144.665 120.779 144.802 121.039 144.828H121.078ZM121.078 152.426C121.547 151.762 121.944 150.954 122.27 150.004C122.595 149.066 122.875 148.083 123.109 147.055C122.51 147.589 122.1 148.09 121.879 148.559C121.592 149.184 121.384 149.776 121.254 150.336C121.124 150.896 121.059 151.449 121.059 151.996C121.059 152.061 121.059 152.133 121.059 152.211C121.072 152.289 121.078 152.361 121.078 152.426ZM123.52 144.906C123.533 144.854 123.539 144.802 123.539 144.75C123.539 144.698 123.539 144.646 123.539 144.594C122.979 145.128 122.458 145.544 121.977 145.844C121.508 146.143 121.072 146.293 120.668 146.293C120.629 146.293 120.583 146.286 120.531 146.273C120.492 146.273 120.453 146.273 120.414 146.273C120.167 146.221 119.932 146.104 119.711 145.922C119.503 145.727 119.32 145.492 119.164 145.219C119.008 144.932 118.884 144.62 118.793 144.281C118.702 143.943 118.656 143.604 118.656 143.266C118.656 142.875 118.728 142.478 118.871 142.074C118.975 141.801 119.132 141.469 119.34 141.078C119.548 140.688 119.783 140.284 120.043 139.867C120.316 139.438 120.603 139.008 120.902 138.578C121.215 138.148 121.527 137.758 121.84 137.406C122.152 137.055 122.452 136.768 122.738 136.547C123.038 136.312 123.311 136.176 123.559 136.137C123.624 136.124 123.682 136.117 123.734 136.117C123.786 136.117 123.839 136.117 123.891 136.117C124.164 136.117 124.405 136.156 124.613 136.234C124.835 136.312 125.023 136.417 125.18 136.547C125.349 136.664 125.486 136.794 125.59 136.938C125.694 137.081 125.772 137.211 125.824 137.328C125.863 137.172 125.909 137.048 125.961 136.957L127.23 137.152C126.879 138.025 126.553 138.917 126.254 139.828C125.954 140.74 125.72 141.605 125.551 142.426L125.57 142.484C125.57 142.484 125.557 142.549 125.531 142.68C125.505 142.797 125.479 142.927 125.453 143.07C125.427 143.214 125.401 143.344 125.375 143.461C125.349 143.578 125.336 143.637 125.336 143.637C125.57 143.48 125.863 143.318 126.215 143.148C126.579 142.979 126.938 142.816 127.289 142.66C127.654 142.504 127.979 142.374 128.266 142.27C128.552 142.152 128.734 142.081 128.812 142.055L128.676 143.48C128.572 143.546 128.376 143.65 128.09 143.793C127.803 143.936 127.471 144.105 127.094 144.301C126.716 144.496 126.319 144.717 125.902 144.965C125.486 145.199 125.095 145.453 124.73 145.727C124.47 146.638 124.197 147.569 123.91 148.52C123.637 149.483 123.37 150.362 123.109 151.156C122.862 151.964 122.634 152.641 122.426 153.188C122.23 153.734 122.087 154.066 121.996 154.184C121.814 154.366 121.632 154.516 121.449 154.633C121.267 154.763 121.078 154.828 120.883 154.828C120.492 154.828 120.147 154.568 119.848 154.047C119.678 153.721 119.594 153.201 119.594 152.484C119.594 152.042 119.626 151.56 119.691 151.039C119.757 150.518 119.841 150.01 119.945 149.516C120.062 149.021 120.193 148.565 120.336 148.148C120.492 147.732 120.661 147.4 120.844 147.152C121.065 146.879 121.417 146.54 121.898 146.137C122.393 145.733 122.934 145.323 123.52 144.906ZM132.641 137.934C132.536 137.934 132.393 138.012 132.211 138.168C132.042 138.324 131.853 138.533 131.645 138.793C131.449 139.04 131.241 139.333 131.02 139.672C130.798 140.01 130.603 140.362 130.434 140.727C130.368 140.857 130.31 140.987 130.258 141.117C130.206 141.247 130.154 141.384 130.102 141.527C130.44 141.462 130.792 141.384 131.156 141.293C131.534 141.189 131.814 141.078 131.996 140.961C132.087 140.896 132.185 140.766 132.289 140.57C132.406 140.375 132.51 140.16 132.602 139.926C132.706 139.678 132.79 139.424 132.855 139.164C132.921 138.891 132.953 138.656 132.953 138.461C132.953 138.318 132.927 138.194 132.875 138.09C132.823 137.986 132.745 137.934 132.641 137.934ZM136.977 143.5C136.742 143.669 136.469 143.865 136.156 144.086C135.844 144.294 135.512 144.516 135.16 144.75C134.822 144.971 134.477 145.193 134.125 145.414C133.786 145.635 133.467 145.831 133.168 146C132.882 146.182 132.634 146.326 132.426 146.43C132.217 146.547 132.081 146.612 132.016 146.625C131.977 146.638 131.924 146.645 131.859 146.645C131.638 146.645 131.345 146.586 130.98 146.469C130.629 146.365 130.271 146.228 129.906 146.059C129.542 145.902 129.203 145.733 128.891 145.551C128.591 145.355 128.389 145.173 128.285 145.004C128.207 144.861 128.148 144.678 128.109 144.457C128.083 144.223 128.07 143.956 128.07 143.656C128.07 143.396 128.083 143.122 128.109 142.836C128.135 142.536 128.168 142.257 128.207 141.996C128.259 141.723 128.311 141.475 128.363 141.254C128.428 141.033 128.5 140.857 128.578 140.727C128.669 140.544 128.812 140.316 129.008 140.043C129.203 139.757 129.424 139.464 129.672 139.164C129.932 138.852 130.206 138.539 130.492 138.227C130.779 137.914 131.065 137.634 131.352 137.387C131.638 137.126 131.911 136.918 132.172 136.762C132.445 136.592 132.686 136.501 132.895 136.488C132.908 136.488 132.914 136.488 132.914 136.488C132.927 136.475 132.947 136.469 132.973 136.469C133.181 136.469 133.389 136.56 133.598 136.742C133.806 136.924 133.988 137.146 134.145 137.406C134.301 137.667 134.424 137.947 134.516 138.246C134.62 138.533 134.672 138.793 134.672 139.027C134.672 139.145 134.665 139.229 134.652 139.281C134.6 139.49 134.483 139.75 134.301 140.062C134.118 140.362 133.917 140.661 133.695 140.961C133.474 141.247 133.259 141.508 133.051 141.742C132.842 141.964 132.686 142.113 132.582 142.191C132.504 142.257 132.361 142.322 132.152 142.387C131.957 142.439 131.723 142.497 131.449 142.562C131.189 142.615 130.909 142.667 130.609 142.719C130.31 142.771 130.017 142.816 129.73 142.855C129.678 143.116 129.639 143.344 129.613 143.539C129.587 143.721 129.568 143.852 129.555 143.93C129.581 144.073 129.659 144.216 129.789 144.359C129.919 144.503 130.082 144.633 130.277 144.75C130.473 144.867 130.688 144.965 130.922 145.043C131.169 145.108 131.417 145.141 131.664 145.141C131.716 145.141 131.768 145.141 131.82 145.141C131.885 145.141 131.944 145.134 131.996 145.121C132.23 145.056 132.543 144.906 132.934 144.672C133.324 144.438 133.728 144.171 134.145 143.871C134.574 143.572 134.978 143.266 135.355 142.953C135.746 142.628 136.046 142.341 136.254 142.094L136.977 143.5ZM145.961 143.949C145.818 144.223 145.642 144.496 145.434 144.77C145.225 145.043 144.984 145.303 144.711 145.551C144.451 145.785 144.164 145.987 143.852 146.156C143.539 146.339 143.214 146.462 142.875 146.527C142.732 146.553 142.595 146.573 142.465 146.586C142.348 146.599 142.224 146.605 142.094 146.605C141.534 146.605 141.046 146.488 140.629 146.254C140.212 146.033 139.978 145.688 139.926 145.219V145.023C139.926 144.737 139.952 144.333 140.004 143.812C140.069 143.279 140.141 142.719 140.219 142.133C140.31 141.534 140.401 140.948 140.492 140.375C140.583 139.789 140.661 139.294 140.727 138.891L139.496 138.344L136.273 146.391L134.574 146.137C134.652 145.954 134.802 145.622 135.023 145.141C135.245 144.659 135.492 144.125 135.766 143.539C136.039 142.953 136.306 142.374 136.566 141.801C136.84 141.215 137.061 140.733 137.23 140.355C137.374 140.004 137.53 139.574 137.699 139.066C137.868 138.559 138.025 138.057 138.168 137.562C138.311 137.055 138.428 136.599 138.52 136.195C138.611 135.792 138.656 135.518 138.656 135.375L140.375 135.805C140.336 135.857 140.31 135.915 140.297 135.98C140.284 136.033 140.277 136.091 140.277 136.156C140.277 136.312 140.303 136.469 140.355 136.625C140.421 136.768 140.492 136.905 140.57 137.035C140.661 137.152 140.759 137.25 140.863 137.328C140.98 137.406 141.091 137.445 141.195 137.445C141.273 137.445 141.345 137.413 141.41 137.348C141.488 137.27 141.54 137.139 141.566 136.957C141.579 136.879 141.632 136.807 141.723 136.742C141.827 136.664 141.938 136.599 142.055 136.547C142.185 136.482 142.315 136.436 142.445 136.41C142.589 136.371 142.706 136.352 142.797 136.352C142.927 136.352 142.999 136.378 143.012 136.43C143.077 136.521 143.135 136.632 143.188 136.762C143.253 136.879 143.285 137.009 143.285 137.152C143.285 137.296 143.253 137.432 143.188 137.562C143.135 137.693 143.038 137.81 142.895 137.914C142.686 138.07 142.504 138.324 142.348 138.676C142.191 139.027 142.055 139.431 141.938 139.887C141.833 140.342 141.755 140.831 141.703 141.352C141.651 141.872 141.625 142.387 141.625 142.895C141.625 143.389 141.651 143.865 141.703 144.32C141.755 144.776 141.84 145.154 141.957 145.453C142.361 145.375 142.712 145.277 143.012 145.16C143.311 145.043 143.578 144.893 143.812 144.711C144.06 144.516 144.281 144.288 144.477 144.027C144.685 143.754 144.887 143.422 145.082 143.031L145.961 143.949ZM150.219 131.781C149.919 132.133 149.691 132.471 149.535 132.797C149.379 133.122 149.268 133.409 149.203 133.656C149.125 133.943 149.079 134.21 149.066 134.457L147.543 134.574C147.569 133.988 147.699 133.422 147.934 132.875C148.181 132.328 148.474 131.885 148.812 131.547L150.219 131.781ZM152.133 142.973C151.677 143.507 151.215 143.988 150.746 144.418C150.29 144.848 149.854 145.219 149.438 145.531C149.021 145.844 148.637 146.085 148.285 146.254C147.934 146.436 147.634 146.54 147.387 146.566C147.361 146.579 147.309 146.586 147.23 146.586C146.983 146.586 146.723 146.527 146.449 146.41C146.176 146.293 145.922 146.137 145.688 145.941C145.453 145.746 145.258 145.531 145.102 145.297C144.945 145.049 144.867 144.809 144.867 144.574V144.535C144.893 144.275 144.971 143.832 145.102 143.207C145.206 142.66 145.375 141.892 145.609 140.902C145.844 139.9 146.182 138.565 146.625 136.898L148.227 137.191C147.693 139.001 147.348 140.479 147.191 141.625C147.035 142.771 146.957 143.637 146.957 144.223C146.957 144.392 146.957 144.542 146.957 144.672C146.957 144.789 146.964 144.887 146.977 144.965C146.99 145.056 147.003 145.134 147.016 145.199C147.497 144.952 147.999 144.659 148.52 144.32C148.962 144.021 149.451 143.656 149.984 143.227C150.518 142.797 151.039 142.296 151.547 141.723L152.133 142.973ZM152.25 138.188C152.602 138.005 152.914 137.842 153.188 137.699C153.422 137.582 153.637 137.471 153.832 137.367C154.04 137.263 154.158 137.211 154.184 137.211C154.184 137.276 154.184 137.328 154.184 137.367C154.197 137.406 154.203 137.445 154.203 137.484C154.203 137.549 154.197 137.615 154.184 137.68C154.184 137.745 154.177 137.81 154.164 137.875C154.555 137.51 154.971 137.211 155.414 136.977C155.87 136.729 156.293 136.553 156.684 136.449H156.781C156.924 136.449 157.12 136.495 157.367 136.586C157.615 136.677 157.855 136.794 158.09 136.938C158.324 137.081 158.526 137.237 158.695 137.406C158.878 137.562 158.969 137.712 158.969 137.855C158.969 137.947 158.917 138.142 158.812 138.441C158.721 138.728 158.598 139.079 158.441 139.496C158.298 139.913 158.135 140.375 157.953 140.883C157.784 141.378 157.621 141.879 157.465 142.387C157.322 142.882 157.198 143.357 157.094 143.812C156.99 144.255 156.938 144.639 156.938 144.965C156.938 145.186 156.97 145.368 157.035 145.512C157.1 145.655 157.204 145.74 157.348 145.766C157.829 145.688 158.292 145.551 158.734 145.355C159.112 145.186 159.509 144.958 159.926 144.672C160.355 144.372 160.733 143.975 161.059 143.48L161.625 144.965C161.312 145.303 160.941 145.622 160.512 145.922C160.095 146.208 159.665 146.462 159.223 146.684C158.78 146.905 158.337 147.074 157.895 147.191C157.465 147.322 157.087 147.387 156.762 147.387C156.449 147.387 156.208 147.322 156.039 147.191C155.857 147.061 155.72 146.794 155.629 146.391C155.551 145.987 155.512 145.538 155.512 145.043C155.512 144.783 155.518 144.529 155.531 144.281C155.557 144.021 155.596 143.76 155.648 143.5C155.74 142.966 155.87 142.419 156.039 141.859C156.208 141.299 156.371 140.766 156.527 140.258C156.697 139.737 156.84 139.268 156.957 138.852C157.074 138.422 157.139 138.077 157.152 137.816C156.319 138.077 155.577 138.5 154.926 139.086C154.275 139.672 153.773 140.329 153.422 141.059C152.992 141.931 152.628 142.842 152.328 143.793C152.042 144.73 151.729 145.668 151.391 146.605L149.633 146.156C149.802 145.896 149.984 145.564 150.18 145.16C150.375 144.743 150.564 144.288 150.746 143.793C150.941 143.298 151.13 142.784 151.312 142.25C151.495 141.716 151.658 141.202 151.801 140.707C151.944 140.212 152.055 139.75 152.133 139.32C152.224 138.891 152.276 138.533 152.289 138.246L152.25 138.188ZM162.074 146.098C161.84 146.007 161.658 145.837 161.527 145.59C161.397 145.342 161.332 145.102 161.332 144.867C161.332 144.685 161.371 144.535 161.449 144.418C161.501 144.34 161.579 144.262 161.684 144.184C161.788 144.092 161.898 144.014 162.016 143.949C162.146 143.884 162.276 143.832 162.406 143.793C162.549 143.741 162.68 143.715 162.797 143.715C162.979 143.715 163.109 143.786 163.188 143.93C163.292 144.073 163.363 144.242 163.402 144.438C163.454 144.633 163.48 144.822 163.48 145.004C163.48 145.108 163.474 145.206 163.461 145.297C163.448 145.375 163.422 145.447 163.383 145.512C163.318 145.655 163.201 145.805 163.031 145.961C162.862 146.104 162.66 146.176 162.426 146.176C162.296 146.176 162.178 146.15 162.074 146.098ZM165.609 146.098C165.375 146.007 165.193 145.837 165.062 145.59C164.932 145.342 164.867 145.102 164.867 144.867C164.867 144.685 164.906 144.535 164.984 144.418C165.036 144.34 165.115 144.262 165.219 144.184C165.323 144.092 165.434 144.014 165.551 143.949C165.681 143.884 165.811 143.832 165.941 143.793C166.085 143.741 166.215 143.715 166.332 143.715C166.514 143.715 166.645 143.786 166.723 143.93C166.827 144.073 166.898 144.242 166.938 144.438C166.99 144.633 167.016 144.822 167.016 145.004C167.016 145.108 167.009 145.206 166.996 145.297C166.983 145.375 166.957 145.447 166.918 145.512C166.853 145.655 166.736 145.805 166.566 145.961C166.397 146.104 166.195 146.176 165.961 146.176C165.831 146.176 165.714 146.15 165.609 146.098ZM169.145 146.098C168.91 146.007 168.728 145.837 168.598 145.59C168.467 145.342 168.402 145.102 168.402 144.867C168.402 144.685 168.441 144.535 168.52 144.418C168.572 144.34 168.65 144.262 168.754 144.184C168.858 144.092 168.969 144.014 169.086 143.949C169.216 143.884 169.346 143.832 169.477 143.793C169.62 143.741 169.75 143.715 169.867 143.715C170.049 143.715 170.18 143.786 170.258 143.93C170.362 144.073 170.434 144.242 170.473 144.438C170.525 144.633 170.551 144.822 170.551 145.004C170.551 145.108 170.544 145.206 170.531 145.297C170.518 145.375 170.492 145.447 170.453 145.512C170.388 145.655 170.271 145.805 170.102 145.961C169.932 146.104 169.73 146.176 169.496 146.176C169.366 146.176 169.249 146.15 169.145 146.098Z" fill="#00C0FD"/>
<path d="M169.901 47.376C171.413 47.376 172.733 47.736 173.861 48.456C174.989 49.176 175.913 50.124 176.633 51.3C177.353 52.476 177.857 53.82 178.145 55.332C178.457 56.82 178.541 58.356 178.397 59.94C178.253 61.5 177.881 63.036 177.281 64.548C176.705 66.036 175.877 67.368 174.797 68.544C173.741 69.72 172.445 70.668 170.909 71.388C169.397 72.108 167.621 72.468 165.581 72.468C164.885 72.468 164.345 72.48 163.961 72.504C163.577 72.552 163.157 72.564 162.701 72.54C162.485 72.516 162.353 72.36 162.305 72.072C162.257 71.808 162.305 71.508 162.449 71.172C162.593 70.812 162.833 70.476 163.169 70.164C163.505 69.828 163.949 69.612 164.501 69.516C164.549 68.82 164.585 67.956 164.609 66.924C164.657 65.868 164.693 64.74 164.717 63.54C164.765 62.34 164.801 61.104 164.825 59.832C164.849 58.56 164.861 57.348 164.861 56.196C164.861 55.044 164.849 54.012 164.825 53.1C164.825 52.164 164.813 51.42 164.789 50.868C164.693 50.892 164.585 50.904 164.465 50.904C164.201 50.928 163.925 50.856 163.637 50.688C163.373 50.496 163.133 50.268 162.917 50.004C162.725 49.716 162.569 49.416 162.449 49.104C162.353 48.768 162.317 48.468 162.341 48.204C162.365 47.916 162.473 47.7 162.665 47.556C162.857 47.388 163.169 47.328 163.601 47.376C163.793 47.4 164.177 47.412 164.753 47.412C165.353 47.412 165.989 47.412 166.661 47.412C167.333 47.388 167.969 47.376 168.569 47.376C169.193 47.352 169.637 47.352 169.901 47.376ZM167.921 69.084C169.241 68.748 170.357 68.232 171.269 67.536C172.205 66.84 172.961 66.036 173.537 65.124C174.137 64.212 174.569 63.228 174.833 62.172C175.121 61.116 175.253 60.06 175.229 59.004C175.229 57.948 175.097 56.94 174.833 55.98C174.569 54.996 174.185 54.132 173.681 53.388C173.201 52.62 172.613 52.008 171.917 51.552C171.245 51.072 170.489 50.82 169.649 50.796H168.785C168.665 51.732 168.545 53.016 168.425 54.648C168.329 56.256 168.233 57.96 168.137 59.76C168.065 61.536 168.005 63.264 167.957 64.944C167.909 66.624 167.897 68.004 167.921 69.084ZM188.664 66.24C188.736 65.952 188.928 65.724 189.24 65.556C189.576 65.388 189.912 65.292 190.248 65.268C190.584 65.22 190.884 65.268 191.148 65.412C191.436 65.532 191.58 65.748 191.58 66.06C191.604 66.924 191.412 67.728 191.004 68.472C190.62 69.216 190.116 69.852 189.492 70.38C188.892 70.908 188.22 71.316 187.476 71.604C186.756 71.892 186.06 72.024 185.388 72C183.972 71.976 182.832 71.568 181.968 70.776C181.128 69.984 180.528 69.012 180.168 67.86C179.832 66.708 179.736 65.46 179.88 64.116C180 62.772 180.348 61.548 180.924 60.444C181.5 59.34 182.28 58.44 183.264 57.744C184.248 57.048 185.424 56.76 186.792 56.88C187.8 56.976 188.592 57.348 189.168 57.996C189.744 58.62 190.104 59.376 190.248 60.264C190.416 61.152 190.38 62.076 190.14 63.036C189.924 63.996 189.504 64.836 188.88 65.556C188.256 66.252 187.452 66.768 186.468 67.104C185.484 67.416 184.32 67.368 182.976 66.96C183.072 67.92 183.408 68.604 183.984 69.012C184.56 69.42 185.172 69.576 185.82 69.48C186.492 69.384 187.104 69.06 187.656 68.508C188.232 67.956 188.568 67.2 188.664 66.24ZM186.648 60.912C186.216 60.816 185.808 60.864 185.424 61.056C185.064 61.224 184.74 61.488 184.452 61.848C184.164 62.184 183.912 62.592 183.696 63.072C183.48 63.528 183.312 63.984 183.192 64.44C184.176 64.872 185.016 64.968 185.712 64.728C186.408 64.464 186.912 64.068 187.224 63.54C187.56 63.012 187.68 62.484 187.584 61.956C187.512 61.404 187.2 61.056 186.648 60.912ZM196.521 61.74C196.449 62.052 196.569 62.256 196.881 62.352C197.217 62.448 197.637 62.52 198.141 62.568C198.669 62.592 199.245 62.628 199.869 62.676C200.493 62.724 201.069 62.868 201.597 63.108C202.125 63.348 202.557 63.732 202.893 64.26C203.253 64.764 203.421 65.496 203.397 66.456C203.349 67.752 203.061 68.82 202.533 69.66C202.029 70.476 201.405 71.076 200.661 71.46C199.917 71.844 199.101 72.024 198.213 72C197.349 71.952 196.545 71.712 195.801 71.28C195.081 70.824 194.481 70.176 194.001 69.336C193.521 68.496 193.281 67.464 193.281 66.24C193.329 65.784 193.509 65.496 193.821 65.376C194.157 65.232 194.517 65.184 194.901 65.232C195.285 65.28 195.633 65.4 195.945 65.592C196.257 65.784 196.425 65.976 196.449 66.168C196.401 67.344 196.581 68.208 196.989 68.76C197.397 69.312 197.853 69.6 198.357 69.624C198.861 69.624 199.329 69.396 199.761 68.94C200.217 68.46 200.445 67.788 200.445 66.924C200.469 66.396 200.301 66.036 199.941 65.844C199.581 65.652 199.137 65.532 198.609 65.484C198.081 65.412 197.505 65.364 196.881 65.34C196.281 65.316 195.717 65.208 195.189 65.016C194.661 64.8 194.217 64.464 193.857 64.008C193.521 63.528 193.365 62.808 193.389 61.848C193.413 60.936 193.593 60.168 193.929 59.544C194.265 58.896 194.697 58.38 195.225 57.996C195.777 57.588 196.377 57.3 197.025 57.132C197.697 56.94 198.357 56.832 199.005 56.808C199.677 56.76 200.301 56.784 200.877 56.88C201.477 56.952 201.969 57.06 202.353 57.204C202.809 57.396 203.133 57.744 203.325 58.248C203.517 58.752 203.589 59.268 203.541 59.796C203.517 60.324 203.409 60.78 203.217 61.164C203.025 61.548 202.785 61.704 202.497 61.632C202.089 61.536 201.561 61.416 200.913 61.272C200.265 61.128 199.629 61.032 199.005 60.984C198.381 60.912 197.829 60.924 197.349 61.02C196.869 61.116 196.593 61.356 196.521 61.74ZM215.671 70.812C215.743 71.148 215.587 71.424 215.203 71.64C214.843 71.856 214.423 71.976 213.943 72C213.487 72.024 213.055 71.952 212.647 71.784C212.239 71.592 212.023 71.28 211.999 70.848C211.423 71.424 210.727 71.784 209.911 71.928C209.119 72.072 208.363 72 207.643 71.712C206.923 71.4 206.311 70.872 205.807 70.128C205.303 69.384 205.051 68.4 205.051 67.176C205.051 65.904 205.315 64.872 205.843 64.08C206.395 63.288 207.055 62.724 207.823 62.388C208.591 62.028 209.395 61.884 210.235 61.956C211.075 62.004 211.795 62.232 212.395 62.64V62.244C212.371 61.788 212.143 61.476 211.711 61.308C211.303 61.116 210.811 61.02 210.235 61.02C209.659 61.02 209.047 61.08 208.399 61.2C207.775 61.32 207.235 61.44 206.779 61.56C206.491 61.632 206.239 61.476 206.023 61.092C205.831 60.708 205.723 60.252 205.699 59.724C205.675 59.196 205.747 58.68 205.915 58.176C206.107 57.648 206.443 57.3 206.923 57.132C207.307 57.012 207.787 56.916 208.363 56.844C208.939 56.748 209.539 56.724 210.163 56.772C210.811 56.82 211.447 56.94 212.071 57.132C212.719 57.3 213.295 57.588 213.799 57.996C214.327 58.38 214.747 58.884 215.059 59.508C215.395 60.108 215.575 60.864 215.599 61.776C215.623 62.808 215.623 63.756 215.599 64.62C215.575 65.484 215.551 66.288 215.527 67.032C215.503 67.776 215.491 68.46 215.491 69.084C215.491 69.708 215.551 70.284 215.671 70.812ZM207.895 67.248C207.895 67.944 208.063 68.508 208.399 68.94C208.759 69.348 209.167 69.624 209.623 69.768C210.103 69.888 210.583 69.852 211.063 69.66C211.567 69.468 211.951 69.108 212.215 68.58C212.263 68.076 212.299 67.572 212.323 67.068C212.347 66.564 212.371 66.072 212.395 65.592C212.179 64.992 211.831 64.584 211.351 64.368C210.871 64.152 210.379 64.128 209.875 64.296C209.371 64.44 208.915 64.764 208.507 65.268C208.123 65.772 207.919 66.432 207.895 67.248ZM244.79 48.492C245.126 51.804 245.174 54.912 244.934 57.816C244.694 60.72 244.238 63.264 243.566 65.448C242.894 67.632 242.03 69.348 240.974 70.596C239.942 71.844 238.79 72.468 237.518 72.468C236.894 72.492 236.282 72.312 235.682 71.928C235.082 71.544 234.554 70.92 234.098 70.056C233.522 70.824 232.91 71.424 232.262 71.856C231.614 72.264 230.918 72.468 230.174 72.468C229.262 72.492 228.398 72.108 227.582 71.316C226.79 70.5 226.166 69.156 225.71 67.284C225.278 65.412 225.074 62.964 225.098 59.94C225.146 56.916 225.542 53.208 226.286 48.816C226.382 48.192 226.646 47.784 227.078 47.592C227.51 47.376 227.966 47.304 228.446 47.376C228.95 47.424 229.418 47.58 229.85 47.844C230.282 48.108 230.57 48.408 230.714 48.744C229.922 51.936 229.358 54.768 229.022 57.24C228.71 59.688 228.566 61.776 228.59 63.504C228.614 65.208 228.77 66.564 229.058 67.572C229.346 68.556 229.706 69.18 230.138 69.444C230.57 69.708 231.038 69.612 231.542 69.156C232.046 68.7 232.514 67.884 232.946 66.708C232.754 65.772 232.586 64.86 232.442 63.972C232.298 63.084 232.202 62.184 232.154 61.272C232.13 60.36 232.178 59.4 232.298 58.392C232.442 57.384 232.706 56.292 233.09 55.116C233.258 54.612 233.522 54.3 233.882 54.18C234.266 54.036 234.65 54.012 235.034 54.108C235.418 54.18 235.766 54.324 236.078 54.54C236.39 54.732 236.57 54.888 236.618 55.008C236.954 55.752 237.146 56.652 237.194 57.708C237.242 58.74 237.206 59.796 237.086 60.876C236.966 61.956 236.774 63.012 236.51 64.044C236.246 65.052 235.97 65.892 235.682 66.564C235.946 67.788 236.294 68.652 236.726 69.156C237.182 69.636 237.65 69.756 238.13 69.516C238.61 69.252 239.078 68.628 239.534 67.644C239.99 66.66 240.362 65.316 240.65 63.612C240.938 61.908 241.094 59.856 241.118 57.456C241.166 55.032 241.022 52.248 240.686 49.104C240.686 48.84 240.878 48.552 241.262 48.24C241.67 47.928 242.126 47.7 242.63 47.556C243.134 47.388 243.602 47.364 244.034 47.484C244.466 47.58 244.718 47.916 244.79 48.492ZM246.719 59.4C246.671 58.968 246.863 58.608 247.295 58.32C247.751 58.008 248.243 57.828 248.771 57.78C249.299 57.732 249.767 57.852 250.175 58.14C250.583 58.404 250.739 58.872 250.643 59.544C250.547 60.24 250.439 61.056 250.319 61.992C250.223 62.904 250.151 63.864 250.103 64.872C250.055 65.88 250.031 66.9 250.031 67.932C250.031 68.94 250.091 69.876 250.211 70.74C250.259 71.1 250.091 71.4 249.707 71.64C249.323 71.856 248.891 71.976 248.411 72C247.955 72.024 247.547 71.94 247.187 71.748C246.827 71.532 246.683 71.148 246.755 70.596C246.851 69.852 246.923 68.964 246.971 67.932C247.019 66.9 247.031 65.856 247.007 64.8C246.983 63.72 246.947 62.7 246.899 61.74C246.851 60.78 246.791 60 246.719 59.4ZM248.843 57.312C248.219 57.312 247.751 57.204 247.439 56.988C247.127 56.772 246.971 56.532 246.971 56.268C246.971 56.004 247.127 55.764 247.439 55.548C247.775 55.332 248.279 55.224 248.951 55.224C249.479 55.224 249.899 55.332 250.211 55.548C250.523 55.764 250.679 56.004 250.679 56.268C250.703 56.532 250.559 56.772 250.247 56.988C249.959 57.204 249.491 57.312 248.843 57.312ZM255.935 61.74C255.863 62.052 255.983 62.256 256.295 62.352C256.631 62.448 257.051 62.52 257.555 62.568C258.083 62.592 258.659 62.628 259.283 62.676C259.907 62.724 260.483 62.868 261.011 63.108C261.539 63.348 261.971 63.732 262.307 64.26C262.667 64.764 262.835 65.496 262.811 66.456C262.763 67.752 262.475 68.82 261.947 69.66C261.443 70.476 260.819 71.076 260.075 71.46C259.331 71.844 258.515 72.024 257.627 72C256.763 71.952 255.959 71.712 255.215 71.28C254.495 70.824 253.895 70.176 253.415 69.336C252.935 68.496 252.695 67.464 252.695 66.24C252.743 65.784 252.923 65.496 253.235 65.376C253.571 65.232 253.931 65.184 254.315 65.232C254.699 65.28 255.047 65.4 255.359 65.592C255.671 65.784 255.839 65.976 255.863 66.168C255.815 67.344 255.995 68.208 256.403 68.76C256.811 69.312 257.267 69.6 257.771 69.624C258.275 69.624 258.743 69.396 259.175 68.94C259.631 68.46 259.859 67.788 259.859 66.924C259.883 66.396 259.715 66.036 259.355 65.844C258.995 65.652 258.551 65.532 258.023 65.484C257.495 65.412 256.919 65.364 256.295 65.34C255.695 65.316 255.131 65.208 254.603 65.016C254.075 64.8 253.631 64.464 253.271 64.008C252.935 63.528 252.779 62.808 252.803 61.848C252.827 60.936 253.007 60.168 253.343 59.544C253.679 58.896 254.111 58.38 254.639 57.996C255.191 57.588 255.791 57.3 256.439 57.132C257.111 56.94 257.771 56.832 258.419 56.808C259.091 56.76 259.715 56.784 260.291 56.88C260.891 56.952 261.383 57.06 261.767 57.204C262.223 57.396 262.547 57.744 262.739 58.248C262.931 58.752 263.003 59.268 262.955 59.796C262.931 60.324 262.823 60.78 262.631 61.164C262.439 61.548 262.199 61.704 261.911 61.632C261.503 61.536 260.975 61.416 260.327 61.272C259.679 61.128 259.043 61.032 258.419 60.984C257.795 60.912 257.243 60.924 256.763 61.02C256.283 61.116 256.007 61.356 255.935 61.74ZM275.085 70.812C275.157 71.148 275.001 71.424 274.617 71.64C274.257 71.856 273.837 71.976 273.357 72C272.901 72.024 272.469 71.952 272.061 71.784C271.653 71.592 271.437 71.28 271.413 70.848C270.837 71.424 270.141 71.784 269.325 71.928C268.533 72.072 267.777 72 267.057 71.712C266.337 71.4 265.725 70.872 265.221 70.128C264.717 69.384 264.465 68.4 264.465 67.176C264.465 65.904 264.729 64.872 265.257 64.08C265.809 63.288 266.469 62.724 267.237 62.388C268.005 62.028 268.809 61.884 269.649 61.956C270.489 62.004 271.209 62.232 271.809 62.64V62.244C271.785 61.788 271.557 61.476 271.125 61.308C270.717 61.116 270.225 61.02 269.649 61.02C269.073 61.02 268.461 61.08 267.813 61.2C267.189 61.32 266.649 61.44 266.193 61.56C265.905 61.632 265.653 61.476 265.437 61.092C265.245 60.708 265.137 60.252 265.113 59.724C265.089 59.196 265.161 58.68 265.329 58.176C265.521 57.648 265.857 57.3 266.337 57.132C266.721 57.012 267.201 56.916 267.777 56.844C268.353 56.748 268.953 56.724 269.577 56.772C270.225 56.82 270.861 56.94 271.485 57.132C272.133 57.3 272.709 57.588 273.213 57.996C273.741 58.38 274.161 58.884 274.473 59.508C274.809 60.108 274.989 60.864 275.013 61.776C275.037 62.808 275.037 63.756 275.013 64.62C274.989 65.484 274.965 66.288 274.941 67.032C274.917 67.776 274.905 68.46 274.905 69.084C274.905 69.708 274.965 70.284 275.085 70.812ZM267.309 67.248C267.309 67.944 267.477 68.508 267.813 68.94C268.173 69.348 268.581 69.624 269.037 69.768C269.517 69.888 269.997 69.852 270.477 69.66C270.981 69.468 271.365 69.108 271.629 68.58C271.677 68.076 271.713 67.572 271.737 67.068C271.761 66.564 271.785 66.072 271.809 65.592C271.593 64.992 271.245 64.584 270.765 64.368C270.285 64.152 269.793 64.128 269.289 64.296C268.785 64.44 268.329 64.764 267.921 65.268C267.537 65.772 267.333 66.432 267.309 67.248ZM277.596 50.436C277.548 50.076 277.704 49.86 278.064 49.788C278.448 49.692 278.868 49.74 279.324 49.932C279.804 50.1 280.236 50.424 280.62 50.904C281.028 51.36 281.256 51.972 281.304 52.74H282.564C283.02 52.74 283.272 52.908 283.32 53.244C283.368 53.556 283.296 53.904 283.104 54.288C282.936 54.672 282.696 55.032 282.384 55.368C282.096 55.68 281.844 55.836 281.628 55.836H281.232C281.112 57.588 281.016 59.256 280.944 60.84C280.896 62.4 280.86 63.84 280.836 65.16C280.812 66.48 280.812 67.668 280.836 68.724C280.86 69.756 280.896 70.608 280.944 71.28C280.992 71.928 280.812 72.384 280.404 72.648C280.02 72.936 279.576 73.08 279.072 73.08C278.592 73.08 278.148 72.972 277.74 72.756C277.332 72.54 277.152 72.264 277.2 71.928C277.296 71.352 277.38 70.488 277.452 69.336C277.524 68.184 277.584 66.876 277.632 65.412C277.68 63.948 277.716 62.388 277.74 60.732C277.764 59.076 277.776 57.456 277.776 55.872C277.728 55.92 277.668 55.944 277.596 55.944C277.548 55.92 277.404 55.884 277.164 55.836C276.876 55.788 276.624 55.608 276.408 55.296C276.192 54.984 276.048 54.648 275.976 54.288C275.88 53.928 275.88 53.604 275.976 53.316C276.072 53.004 276.3 52.836 276.66 52.812C277.02 52.788 277.248 52.776 277.344 52.776C277.44 52.752 277.536 52.74 277.632 52.74C277.632 52.644 277.62 52.5 277.596 52.308C277.596 52.092 277.596 51.864 277.596 51.624C277.596 51.384 277.596 51.156 277.596 50.94C277.596 50.724 277.596 50.556 277.596 50.436ZM293.472 70.812C293.544 71.148 293.388 71.424 293.004 71.64C292.644 71.856 292.224 71.976 291.744 72C291.288 72.024 290.856 71.952 290.448 71.784C290.04 71.592 289.824 71.28 289.8 70.848C289.224 71.424 288.528 71.784 287.712 71.928C286.92 72.072 286.164 72 285.444 71.712C284.724 71.4 284.112 70.872 283.608 70.128C283.104 69.384 282.852 68.4 282.852 67.176C282.852 65.904 283.116 64.872 283.644 64.08C284.196 63.288 284.856 62.724 285.624 62.388C286.392 62.028 287.196 61.884 288.036 61.956C288.876 62.004 289.596 62.232 290.196 62.64V62.244C290.172 61.788 289.944 61.476 289.512 61.308C289.104 61.116 288.612 61.02 288.036 61.02C287.46 61.02 286.848 61.08 286.2 61.2C285.576 61.32 285.036 61.44 284.58 61.56C284.292 61.632 284.04 61.476 283.824 61.092C283.632 60.708 283.524 60.252 283.5 59.724C283.476 59.196 283.548 58.68 283.716 58.176C283.908 57.648 284.244 57.3 284.724 57.132C285.108 57.012 285.588 56.916 286.164 56.844C286.74 56.748 287.34 56.724 287.964 56.772C288.612 56.82 289.248 56.94 289.872 57.132C290.52 57.3 291.096 57.588 291.6 57.996C292.128 58.38 292.548 58.884 292.86 59.508C293.196 60.108 293.376 60.864 293.4 61.776C293.424 62.808 293.424 63.756 293.4 64.62C293.376 65.484 293.352 66.288 293.328 67.032C293.304 67.776 293.292 68.46 293.292 69.084C293.292 69.708 293.352 70.284 293.472 70.812ZM285.696 67.248C285.696 67.944 285.864 68.508 286.2 68.94C286.56 69.348 286.968 69.624 287.424 69.768C287.904 69.888 288.384 69.852 288.864 69.66C289.368 69.468 289.752 69.108 290.016 68.58C290.064 68.076 290.1 67.572 290.124 67.068C290.148 66.564 290.172 66.072 290.196 65.592C289.98 64.992 289.632 64.584 289.152 64.368C288.672 64.152 288.18 64.128 287.676 64.296C287.172 64.44 286.716 64.764 286.308 65.268C285.924 65.772 285.72 66.432 285.696 67.248Z" fill="#B4130D"/>
<path d="M90.616 128.68C84.344 128.168 79.416 125.576 75.832 120.904C72.248 116.168 69.784 109.928 68.44 102.184C67.928 99.432 67.576 96.616 67.384 93.736C67.256 90.856 67.16 88.008 67.096 85.192C67.032 82.312 67 79.496 67 76.744C67 73.928 66.968 71.208 66.904 68.584C64.984 68.84 63.32 70.184 61.912 72.616C60.504 74.984 59.288 77.928 58.264 81.448C57.304 84.904 56.504 88.68 55.864 92.776C55.224 96.808 54.648 100.648 54.136 104.296C53.688 107.88 53.304 111.016 52.984 113.704C52.664 116.328 52.344 117.928 52.024 118.504C51.64 119.4 51 120.104 50.104 120.616C49.208 121.128 48.216 121.416 47.128 121.48C46.104 121.608 45.048 121.512 43.96 121.192C42.936 120.936 42.104 120.456 41.464 119.752C39.928 118.088 38.744 115.88 37.912 113.128C37.08 110.312 36.6 107.496 36.472 104.68C36.216 97.896 35.704 90.984 34.936 83.944C34.232 76.84 33.144 70.024 31.672 63.496C31.224 63.816 30.744 64.168 30.232 64.552C29.784 64.872 29.304 65.384 28.792 66.088C28.344 66.728 27.832 67.592 27.256 68.68C26.744 69.768 26.2 71.176 25.624 72.904C25.176 74.248 24.76 76.104 24.376 78.472C23.992 80.84 23.64 83.464 23.32 86.344C23.064 89.224 22.808 92.232 22.552 95.368C22.36 98.504 22.168 101.512 21.976 104.392C21.848 107.208 21.72 109.768 21.592 112.072C21.528 114.312 21.464 116.04 21.4 117.256C21.336 118.216 20.824 119.016 19.864 119.656C18.968 120.232 17.912 120.552 16.696 120.616C15.48 120.68 14.264 120.456 13.048 119.944C11.832 119.432 10.936 118.568 10.36 117.352C9.464 115.56 8.888 113.576 8.632 111.4C8.376 109.16 8.28 106.888 8.344 104.584C8.472 102.28 8.696 100.008 9.016 97.768C9.4 95.528 9.752 93.416 10.072 91.432C10.328 89.704 10.712 87.496 11.224 84.808C11.736 82.056 12.376 79.208 13.144 76.264C13.976 73.256 14.968 70.312 16.12 67.432C17.272 64.552 18.648 62.088 20.248 60.04C21.848 57.928 23.704 56.424 25.816 55.528C27.992 54.632 30.424 54.664 33.112 55.624C34.84 56.264 36.312 57.672 37.528 59.848C38.744 62.024 39.736 64.648 40.504 67.72C41.272 70.792 41.848 74.152 42.232 77.8C42.68 81.384 43 84.904 43.192 88.36C43.384 91.816 43.48 95.016 43.48 97.96C43.544 100.904 43.608 103.24 43.672 104.968C44.184 103.624 44.76 101.8 45.4 99.496C46.104 97.128 46.872 94.536 47.704 91.72C48.6 88.84 49.56 85.896 50.584 82.888C51.672 79.816 52.856 76.904 54.136 74.152C55.416 71.336 56.792 68.808 58.264 66.568C59.736 64.328 61.304 62.632 62.968 61.48C64.632 60.328 66.392 59.848 68.248 60.04C70.168 60.168 72.184 61.224 74.296 63.208C75.704 64.552 76.856 66.728 77.752 69.736C78.712 72.68 79.512 76.04 80.152 79.816C80.856 83.592 81.464 87.56 81.976 91.72C82.488 95.88 83 99.784 83.512 103.432C84.088 107.08 84.696 110.28 85.336 113.032C85.976 115.72 86.808 117.544 87.832 118.504C89.368 120.04 90.84 121 92.248 121.384C93.656 121.832 94.904 122.088 95.992 122.152C97.08 122.216 98.008 122.248 98.776 122.248C99.608 122.248 100.184 122.6 100.504 123.304C100.76 123.88 100.664 124.488 100.216 125.128C99.832 125.832 99.192 126.44 98.296 126.952C97.4 127.528 96.28 127.976 94.936 128.296C93.592 128.68 92.152 128.808 90.616 128.68Z" fill="#FF5C00"/>
<path d="M93.3535 84.328C94.2495 82.6 95.4335 81.096 96.9055 79.816C98.3775 78.536 99.9775 77.512 101.706 76.744C103.498 75.912 105.354 75.304 107.274 74.92C109.258 74.536 111.178 74.344 113.034 74.344C114.954 74.472 116.586 75.112 117.93 76.264C119.338 77.352 120.33 78.792 120.906 80.584C121.482 82.312 121.578 84.264 121.194 86.44C120.874 88.616 119.946 90.824 118.41 93.064C116.746 95.496 114.954 97.32 113.034 98.536C111.178 99.752 109.45 100.616 107.85 101.128C105.994 101.768 104.17 102.056 102.378 101.992C102.314 104.424 102.57 106.504 103.146 108.232C103.402 109 103.69 109.736 104.01 110.44C104.394 111.08 104.874 111.656 105.45 112.168C106.026 112.68 106.73 113.064 107.562 113.32C108.394 113.512 109.354 113.512 110.442 113.32C112.746 112.936 114.602 112.104 116.01 110.824C117.482 109.48 118.698 108.136 119.658 106.792C120.618 105.448 121.386 104.296 121.962 103.336C122.602 102.312 123.21 101.928 123.786 102.184C124.49 102.504 124.842 103.304 124.842 104.584C124.906 105.864 124.618 107.368 123.978 109.096C123.338 110.824 122.378 112.616 121.098 114.472C119.882 116.264 118.314 117.8 116.394 119.08C114.474 120.36 112.266 121.224 109.77 121.672C107.274 122.184 104.49 121.96 101.418 121C98.9215 120.232 96.8415 119.016 95.1775 117.352C93.5135 115.688 92.2015 113.768 91.2415 111.592C90.2815 109.416 89.6415 107.08 89.3215 104.584C89.0015 102.088 88.9375 99.624 89.1295 97.192C89.3855 94.696 89.8655 92.328 90.5695 90.088C91.3375 87.848 92.2655 85.928 93.3535 84.328ZM102.282 94.792C103.114 94.664 104.042 94.408 105.066 94.024C105.962 93.704 106.922 93.224 107.946 92.584C109.034 91.944 110.186 91.048 111.402 89.896C112.554 88.808 113.322 87.752 113.706 86.728C114.154 85.704 114.41 84.84 114.474 84.136C114.538 83.304 114.41 82.536 114.09 81.832C113.194 81.576 112.234 81.576 111.21 81.832C110.314 82.088 109.322 82.6 108.234 83.368C107.146 84.136 106.026 85.352 104.874 87.016C103.978 88.296 103.338 89.448 102.954 90.472C102.57 91.432 102.314 92.232 102.186 92.872C102.058 93.64 102.09 94.28 102.282 94.792Z" fill="#E1CD15"/>
<path d="M157.265 62.92C157.009 65.8 156.561 68.552 155.921 71.176C155.281 73.8 154.513 76.296 153.617 78.664C152.785 81.032 151.857 83.272 150.833 85.384C149.809 87.496 148.785 89.416 147.761 91.144C145.329 95.24 142.641 98.952 139.697 102.28C139.697 102.728 139.793 103.304 139.985 104.008C140.113 104.648 140.369 105.448 140.753 106.408C141.137 107.304 141.745 108.392 142.577 109.672C144.241 112.36 146.065 114.056 148.049 114.76C150.097 115.4 152.049 115.464 153.905 114.952C155.825 114.376 157.489 113.416 158.897 112.072C160.305 110.664 161.265 109.256 161.777 107.848C162.289 106.376 162.801 105.416 163.313 104.968C163.825 104.52 164.273 104.424 164.657 104.68C165.105 104.872 165.425 105.32 165.617 106.024C165.873 106.728 165.969 107.496 165.905 108.328C164.817 111.208 163.441 113.736 161.777 115.912C161.073 116.872 160.241 117.8 159.281 118.696C158.321 119.592 157.265 120.392 156.113 121.096C154.961 121.8 153.681 122.344 152.273 122.728C150.929 123.176 149.457 123.368 147.857 123.304C143.761 123.24 140.337 122.248 137.585 120.328C134.897 118.408 132.721 115.944 131.057 112.936C129.393 109.928 128.209 106.536 127.505 102.76C126.801 98.92 126.385 95.048 126.257 91.144C126.193 87.24 126.353 83.496 126.737 79.912C127.185 76.264 127.697 73.096 128.273 70.408C128.913 67.592 129.745 64.808 130.769 62.056C131.857 59.304 133.169 56.872 134.705 54.76C136.305 52.648 138.161 50.984 140.273 49.768C142.449 48.552 144.977 48.104 147.857 48.424C149.969 48.744 151.793 49.48 153.329 50.632C154.609 51.592 155.697 53.064 156.593 55.048C157.489 56.968 157.713 59.592 157.265 62.92ZM138.737 93.832C140.401 91.08 141.937 88.232 143.345 85.288C144.561 82.792 145.745 80.072 146.897 77.128C148.049 74.12 148.881 71.176 149.393 68.296C149.649 66.888 149.873 65.448 150.065 63.976C150.321 62.504 150.417 61.16 150.353 59.944C150.353 58.664 150.129 57.608 149.681 56.776C149.233 55.88 148.497 55.368 147.473 55.24C146.129 55.112 144.913 55.592 143.825 56.68C142.801 57.704 141.905 59.176 141.137 61.096C140.433 62.952 139.857 65.192 139.409 67.816C138.961 70.376 138.641 73.128 138.449 76.072C138.257 78.952 138.193 81.928 138.257 85C138.321 88.072 138.481 91.016 138.737 93.832Z" fill="#12AE22"/>
<path d="M171.476 83.752C171.412 84.392 171.348 85.48 171.284 87.016C171.22 88.552 171.188 90.28 171.188 92.2C171.188 94.056 171.252 96.008 171.38 98.056C171.508 100.104 171.732 101.992 172.052 103.72C172.372 105.384 172.852 106.76 173.492 107.848C174.132 108.936 174.964 109.48 175.988 109.48C177.46 109.48 178.708 108.936 179.732 107.848C180.82 106.76 181.748 105.384 182.516 103.72C183.284 102.056 183.892 100.2 184.34 98.152C184.788 96.04 185.14 93.992 185.396 92.008C185.716 90.024 185.908 88.168 185.972 86.44C186.1 84.712 186.196 83.368 186.26 82.408C186.324 81.256 186.644 80.424 187.22 79.912C187.86 79.4 188.628 79.144 189.524 79.144C190.42 79.08 191.38 79.24 192.404 79.624C193.428 80.008 194.388 80.488 195.284 81.064C196.18 81.64 196.916 82.312 197.492 83.08C198.068 83.784 198.388 84.488 198.452 85.192C198.516 86.152 198.484 87.56 198.356 89.416C198.228 91.208 198.1 93.256 197.972 95.56C197.908 97.8 197.876 100.136 197.876 102.568C197.876 104.936 198.036 107.144 198.356 109.192C198.74 111.176 199.284 112.904 199.988 114.376C200.756 115.784 201.812 116.648 203.156 116.968C204.372 117.288 205.204 117.704 205.652 118.216C206.1 118.728 206.132 119.24 205.748 119.752C205.428 120.2 204.724 120.552 203.636 120.808C202.612 121.064 201.204 121.032 199.412 120.712C196.468 120.2 194.196 119.176 192.596 117.64C190.996 116.104 189.812 114.504 189.044 112.84C188.148 110.92 187.604 108.808 187.412 106.504C186.58 109.064 185.492 111.272 184.148 113.128C182.996 114.792 181.492 116.232 179.636 117.448C177.844 118.6 175.636 118.984 173.012 118.6C170.388 118.216 168.212 117.384 166.484 116.104C164.82 114.76 163.444 113.16 162.356 111.304C161.332 109.448 160.564 107.432 160.052 105.256C159.54 103.016 159.188 100.776 158.996 98.536C158.804 96.744 158.708 94.952 158.708 93.16C158.708 91.368 158.772 89.704 158.9 88.168C159.028 86.632 159.22 85.32 159.476 84.232C159.732 83.144 160.02 82.44 160.34 82.12C160.724 81.8 161.524 81.448 162.74 81.064C163.956 80.68 165.204 80.488 166.484 80.488C167.828 80.424 169.012 80.616 170.036 81.064C171.06 81.512 171.54 82.408 171.476 83.752Z" fill="#387C0C"/>
<path d="M208.088 85.96C208.472 85.32 209.016 84.744 209.72 84.232C210.488 83.656 211.256 83.176 212.024 82.792C212.856 82.344 213.656 82.024 214.424 81.832C215.256 81.576 215.928 81.448 216.44 81.448C216.696 81.448 216.888 81.704 217.016 82.216C217.208 82.728 217.368 83.4 217.496 84.232C217.688 85.064 217.816 86.024 217.88 87.112C217.944 88.136 218.008 89.192 218.072 90.28C218.2 92.84 218.232 95.752 218.168 99.016C219 97.352 219.896 95.72 220.856 94.12C221.688 92.776 222.648 91.4 223.736 89.992C224.824 88.52 225.944 87.272 227.096 86.248C228.184 85.288 229.368 84.552 230.648 84.04C231.992 83.528 233.336 83.336 234.68 83.464C236.024 83.528 237.304 84.008 238.52 84.904C239.8 85.8 240.92 87.144 241.88 88.936C242.52 90.152 243 91.688 243.32 93.544C243.64 95.336 243.864 97.256 243.992 99.304C244.184 101.288 244.344 103.304 244.472 105.352C244.664 107.4 244.952 109.288 245.336 111.016C245.784 112.744 246.36 114.216 247.064 115.432C247.832 116.648 248.92 117.416 250.328 117.736C251.48 118.056 252.6 118.088 253.688 117.832C254.84 117.512 255.896 117.128 256.856 116.68C257.88 116.168 258.744 115.752 259.448 115.432C260.216 115.048 260.76 114.952 261.08 115.144C261.336 115.4 261.176 116.104 260.6 117.256C260.088 118.408 259.192 119.592 257.912 120.808C256.696 122.024 255.128 123.048 253.208 123.88C251.352 124.776 249.208 125.064 246.776 124.744C241.976 124.104 238.52 121.64 236.408 117.352C234.296 113 233.08 107.336 232.76 100.36C232.632 97.864 232.312 96.008 231.8 94.792C231.352 93.576 230.744 92.936 229.976 92.872C229.208 92.808 228.312 93.256 227.288 94.216C226.328 95.112 225.272 96.424 224.12 98.152C222.776 100.136 221.784 102.12 221.144 104.104C220.504 106.088 220.056 107.944 219.8 109.672C219.608 111.4 219.48 112.936 219.416 114.28C219.352 115.624 219.192 116.616 218.936 117.256C218.616 117.96 217.944 118.44 216.92 118.696C215.896 118.952 214.776 119.08 213.56 119.08C212.408 119.08 211.256 118.952 210.104 118.696C209.016 118.44 208.248 118.12 207.8 117.736C207.544 117.48 207.32 116.584 207.128 115.048C207 113.448 206.904 111.56 206.84 109.384C206.776 107.144 206.744 104.776 206.744 102.28C206.808 99.72 206.872 97.32 206.936 95.08C207.064 92.776 207.224 90.792 207.416 89.128C207.608 87.464 207.832 86.408 208.088 85.96Z" fill="#08D4E1"/>
<path d="M294.542 109.96C295.95 109.384 297.038 109.128 297.806 109.192C298.574 109.256 299.054 109.512 299.246 109.96C299.438 110.344 299.342 110.856 298.958 111.496C298.638 112.136 298.094 112.744 297.326 113.32C296.686 113.768 295.886 114.376 294.926 115.144C294.03 115.912 293.07 116.744 292.046 117.64C291.086 118.472 290.126 119.304 289.166 120.136C288.27 120.968 287.502 121.64 286.862 122.152C287.31 125.16 287.566 128.2 287.63 131.272C287.694 134.408 287.502 137.384 287.054 140.2C286.606 143.08 285.87 145.704 284.846 148.072C283.822 150.504 282.446 152.488 280.718 154.024C278.286 156.2 275.822 157.448 273.326 157.768C270.83 158.088 268.622 157.672 266.702 156.52C264.782 155.368 263.278 153.576 262.19 151.144C261.102 148.776 260.782 145.96 261.23 142.696C261.742 139.368 262.766 136.424 264.302 133.864C265.902 131.304 267.566 129.16 269.294 127.432C271.342 125.384 273.55 123.624 275.918 122.152C275.854 121.64 275.726 120.936 275.534 120.04C275.406 119.272 275.182 118.312 274.862 117.16C274.542 115.944 274.126 114.408 273.614 112.552C273.294 111.464 272.878 110.44 272.366 109.48C271.918 108.456 271.47 107.592 271.022 106.888C270.446 106.056 269.902 105.32 269.39 104.68C268.366 105.832 267.31 106.856 266.222 107.752C265.326 108.52 264.334 109.224 263.246 109.864C262.158 110.44 261.134 110.728 260.174 110.728C259.15 110.728 257.998 110.184 256.718 109.096C255.438 108.008 254.286 106.568 253.262 104.776C252.302 102.984 251.534 100.936 250.958 98.632C250.446 96.328 250.382 93.96 250.766 91.528C251.214 89.096 251.79 87.144 252.494 85.672C253.198 84.2 253.966 83.048 254.798 82.216C255.63 81.32 256.526 80.68 257.486 80.296C258.446 79.912 259.406 79.624 260.366 79.432C261.774 79.176 263.438 79.368 265.358 80.008C267.342 80.648 269.198 81.48 270.926 82.504C272.718 83.464 274.222 84.488 275.438 85.576C276.718 86.6 277.326 87.4 277.262 87.976C277.198 88.552 276.494 88.776 275.15 88.648C273.87 88.456 272.366 88.232 270.638 87.976C268.974 87.72 267.31 87.592 265.646 87.592C264.046 87.592 262.926 88.104 262.286 89.128C261.646 90.152 261.134 91.368 260.75 92.776C260.366 94.184 260.11 95.592 259.982 97C259.918 98.408 260.014 99.72 260.27 100.936C260.526 102.088 261.006 102.952 261.71 103.528C262.094 103.848 262.606 103.752 263.246 103.24C263.95 102.664 264.75 101.992 265.646 101.224C266.542 100.392 267.534 99.624 268.622 98.92C269.71 98.152 270.862 97.704 272.078 97.576C273.358 97.384 274.67 97.704 276.014 98.536C277.358 99.304 278.734 100.84 280.142 103.144C280.974 104.488 281.838 106.056 282.734 107.848C283.694 109.576 284.526 112.072 285.23 115.336C286.894 114.312 288.462 113.352 289.934 112.456C291.406 111.496 292.942 110.664 294.542 109.96ZM274.766 145.192C275.15 144.104 275.374 142.696 275.438 140.968C275.566 139.304 275.63 137.64 275.63 135.976C275.566 134.056 275.47 132.04 275.342 129.928C273.998 131.08 272.814 132.296 271.79 133.576C270.894 134.664 270.094 135.944 269.39 137.416C268.75 138.888 268.494 140.456 268.622 142.12C268.75 143.72 269.102 144.872 269.678 145.576C270.254 146.344 270.862 146.76 271.502 146.824C272.206 146.952 272.846 146.824 273.422 146.44C274.062 146.12 274.51 145.704 274.766 145.192Z" fill="#0006A0"/>
</svg>
