<svg width="150" height="60" viewBox="0 0 150 60" fill="none" xmlns="http://www.w3.org/2000/svg">
<path d="M16.1875 51.0898C15.7734 51.2383 15.4062 51.3594 15.0859 51.4531C14.7734 51.5469 14.5 51.6172 14.2656 51.6641C14.0312 51.7188 13.832 51.7539 13.668 51.7695C13.5039 51.793 13.3711 51.8047 13.2695 51.8047C13.1914 51.8047 13.1289 51.8008 13.082 51.793C13.043 51.793 13.0078 51.7891 12.9766 51.7812C12.9453 51.7734 12.918 51.7656 12.8945 51.7578C12.7773 51.6875 12.6641 51.5625 12.5547 51.3828C12.4453 51.2109 12.3438 51 12.25 50.75C12.1641 50.5078 12.0938 50.2383 12.0391 49.9414C11.9844 49.6367 11.957 49.3203 11.957 48.9922C11.957 48.7891 11.9688 48.5938 11.9922 48.4062C12.0156 48.1719 12.0664 47.8867 12.1445 47.5508C12.2227 47.207 12.3125 46.8438 12.4141 46.4609C12.5156 46.0703 12.6211 45.6719 12.7305 45.2656C12.8398 44.8594 12.9414 44.4766 13.0352 44.1172C13.1289 43.75 13.2031 43.4219 13.2578 43.1328C13.3203 42.8438 13.3516 42.6211 13.3516 42.4648C13.3516 42.3789 13.3398 42.3164 13.3164 42.2773C13.2773 42.207 13.1875 42.1719 13.0469 42.1719C12.9375 42.1719 12.8125 42.1914 12.6719 42.2305C12.5312 42.2695 12.3828 42.3242 12.2266 42.3945C12.0703 42.457 11.9141 42.5352 11.7578 42.6289C11.6016 42.7148 11.457 42.8086 11.3242 42.9102C11.2617 43.1367 11.1445 43.5469 10.9727 44.1406C10.9023 44.3906 10.8125 44.6953 10.7031 45.0547C10.5938 45.4141 10.4648 45.8359 10.3164 46.3203C10.1758 46.8047 10.0078 47.3594 9.8125 47.9844C9.625 48.6094 9.41406 49.3164 9.17969 50.1055L7.96094 49.8594C8.07031 49.5625 8.20703 49.1992 8.37109 48.7695C8.53516 48.3398 8.70312 47.8828 8.875 47.3984C9.05469 46.9141 9.23047 46.4219 9.40234 45.9219C9.58203 45.4141 9.74219 44.9414 9.88281 44.5039C10.0234 44.0664 10.1367 43.6797 10.2227 43.3438C10.3086 43.0078 10.3516 42.7617 10.3516 42.6055C10.3516 42.543 10.3477 42.5039 10.3398 42.4883C10.3086 42.4023 10.2578 42.3438 10.1875 42.3125C10.1172 42.2812 10.0352 42.2656 9.94141 42.2656C9.82422 42.2656 9.69531 42.2852 9.55469 42.3242C9.42188 42.3633 9.28906 42.4141 9.15625 42.4766C9.03125 42.5312 8.91016 42.5938 8.79297 42.6641C8.68359 42.7344 8.59766 42.7969 8.53516 42.8516C8.47266 42.9062 8.39844 42.9727 8.3125 43.0508C8.23438 43.1289 8.14844 43.2109 8.05469 43.2969C7.98438 43.5156 7.84766 43.9023 7.64453 44.457C7.55859 44.6992 7.45312 44.9883 7.32812 45.3242C7.21094 45.6602 7.07031 46.0625 6.90625 46.5312C6.74219 46.9922 6.55469 47.5195 6.34375 48.1133C6.14062 48.707 5.90625 49.3828 5.64062 50.1406L4.45703 49.6953C4.76172 48.9453 5.03125 48.2773 5.26562 47.6914C5.50781 47.1055 5.71875 46.5898 5.89844 46.1445C6.07812 45.6914 6.23047 45.3047 6.35547 44.9844C6.48047 44.6641 6.58594 44.3945 6.67188 44.1758C6.875 43.6602 7 43.3203 7.04688 43.1562C7.08594 43.0234 7.12109 42.8789 7.15234 42.7227C7.19141 42.5664 7.21094 42.4258 7.21094 42.3008C7.21094 42.1758 7.1875 42.0742 7.14062 41.9961C7.10156 41.9102 7.03125 41.8633 6.92969 41.8555C6.91406 41.8555 6.87109 41.8672 6.80078 41.8906C6.73828 41.9141 6.63672 41.9805 6.49609 42.0898C6.35547 42.1992 6.17188 42.3711 5.94531 42.6055C5.71875 42.832 5.4375 43.1562 5.10156 43.5781L4.90234 42.3477C5.01953 42.2227 5.18359 42.0781 5.39453 41.9141C5.61328 41.7422 5.83984 41.582 6.07422 41.4336C6.31641 41.2773 6.55078 41.1484 6.77734 41.0469C7.01172 40.9453 7.20703 40.8945 7.36328 40.8945C7.39453 40.8945 7.43359 40.9023 7.48047 40.918C7.55078 40.9336 7.61719 40.9805 7.67969 41.0586C7.74219 41.1289 7.79688 41.2188 7.84375 41.3281C7.89844 41.4375 7.94141 41.5625 7.97266 41.7031C8.01172 41.8359 8.04297 41.9727 8.06641 42.1133C8.23047 42.0039 8.41016 41.8945 8.60547 41.7852C8.80859 41.6758 9.00781 41.582 9.20312 41.5039C9.40625 41.418 9.59766 41.3516 9.77734 41.3047C9.95703 41.25 10.1055 41.2227 10.2227 41.2227H10.2695C10.4023 41.2383 10.5352 41.3086 10.668 41.4336C10.8086 41.5508 10.9297 41.6953 11.0312 41.8672C11.1719 41.7891 11.3398 41.707 11.5352 41.6211C11.7305 41.5273 11.9258 41.4453 12.1211 41.375C12.3164 41.3047 12.5039 41.2461 12.6836 41.1992C12.8633 41.1523 13.0117 41.1289 13.1289 41.1289H13.1406C13.2812 41.1289 13.4336 41.1953 13.5977 41.3281C13.7695 41.4531 13.9258 41.6094 14.0664 41.7969C14.2148 41.9766 14.3398 42.168 14.4414 42.3711C14.543 42.5664 14.5977 42.7383 14.6055 42.8867C14.6055 42.9727 14.5625 43.1602 14.4766 43.4492C14.3984 43.7305 14.293 44.0781 14.1602 44.4922C14.0352 44.8984 13.8984 45.3477 13.75 45.8398C13.6016 46.332 13.4609 46.8281 13.3281 47.3281C13.2031 47.8203 13.0977 48.2969 13.0117 48.7578C12.9258 49.2188 12.8828 49.6172 12.8828 49.9531C12.8828 50.3828 12.9609 50.6758 13.1172 50.832C13.2578 50.9492 13.4023 51.0312 13.5508 51.0781C13.6992 51.1328 13.8516 51.1602 14.0078 51.1602C14.2188 51.1602 14.4258 51.1211 14.6289 51.043C14.832 50.9727 15.0195 50.8906 15.1914 50.7969C15.3711 50.7031 15.5273 50.6094 15.6602 50.5156C15.793 50.4219 15.8906 50.3555 15.9531 50.3164L16.1875 51.0898ZM18.0859 45.1602C18.0234 45.1602 17.9375 45.207 17.8281 45.3008C17.7266 45.3945 17.6133 45.5195 17.4883 45.6758C17.3711 45.8242 17.2461 46 17.1133 46.2031C16.9805 46.4062 16.8633 46.6172 16.7617 46.8359C16.7227 46.9141 16.6875 46.9922 16.6562 47.0703C16.625 47.1484 16.5938 47.2305 16.5625 47.3164C16.7656 47.2773 16.9766 47.2305 17.1953 47.1758C17.4219 47.1133 17.5898 47.0469 17.6992 46.9766C17.7539 46.9375 17.8125 46.8594 17.875 46.7422C17.9453 46.625 18.0078 46.4961 18.0625 46.3555C18.125 46.207 18.1758 46.0547 18.2148 45.8984C18.2539 45.7344 18.2734 45.5938 18.2734 45.4766C18.2734 45.3906 18.2578 45.3164 18.2266 45.2539C18.1953 45.1914 18.1484 45.1602 18.0859 45.1602ZM20.6875 48.5C20.5469 48.6016 20.3828 48.7188 20.1953 48.8516C20.0078 48.9766 19.8086 49.1094 19.5977 49.25C19.3945 49.3828 19.1875 49.5156 18.9766 49.6484C18.7734 49.7812 18.582 49.8984 18.4023 50C18.2305 50.1094 18.082 50.1953 17.957 50.2578C17.832 50.3281 17.75 50.3672 17.7109 50.375C17.6875 50.3828 17.6562 50.3867 17.6172 50.3867C17.4844 50.3867 17.3086 50.3516 17.0898 50.2812C16.8789 50.2188 16.6641 50.1367 16.4453 50.0352C16.2266 49.9414 16.0234 49.8398 15.8359 49.7305C15.6562 49.6133 15.5352 49.5039 15.4727 49.4023C15.4258 49.3164 15.3906 49.207 15.3672 49.0742C15.3516 48.9336 15.3438 48.7734 15.3438 48.5938C15.3438 48.4375 15.3516 48.2734 15.3672 48.1016C15.3828 47.9219 15.4023 47.7539 15.4258 47.5977C15.457 47.4336 15.4883 47.2852 15.5195 47.1523C15.5586 47.0195 15.6016 46.9141 15.6484 46.8359C15.7031 46.7266 15.7891 46.5898 15.9062 46.4258C16.0234 46.2539 16.1562 46.0781 16.3047 45.8984C16.4609 45.7109 16.625 45.5234 16.7969 45.3359C16.9688 45.1484 17.1406 44.9805 17.3125 44.832C17.4844 44.6758 17.6484 44.5508 17.8047 44.457C17.9688 44.3555 18.1133 44.3008 18.2383 44.293C18.2461 44.293 18.25 44.293 18.25 44.293C18.2578 44.2852 18.2695 44.2812 18.2852 44.2812C18.4102 44.2812 18.5352 44.3359 18.6602 44.4453C18.7852 44.5547 18.8945 44.6875 18.9883 44.8438C19.082 45 19.1562 45.168 19.2109 45.3477C19.2734 45.5195 19.3047 45.6758 19.3047 45.8164C19.3047 45.8867 19.3008 45.9375 19.293 45.9688C19.2617 46.0938 19.1914 46.25 19.082 46.4375C18.9727 46.6172 18.8516 46.7969 18.7188 46.9766C18.5859 47.1484 18.457 47.3047 18.332 47.4453C18.207 47.5781 18.1133 47.668 18.0508 47.7148C18.0039 47.7539 17.918 47.793 17.793 47.832C17.6758 47.8633 17.5352 47.8984 17.3711 47.9375C17.2148 47.9688 17.0469 48 16.8672 48.0312C16.6875 48.0625 16.5117 48.0898 16.3398 48.1133C16.3086 48.2695 16.2852 48.4062 16.2695 48.5234C16.2539 48.6328 16.2422 48.7109 16.2344 48.7578C16.25 48.8438 16.2969 48.9297 16.375 49.0156C16.4531 49.1016 16.5508 49.1797 16.668 49.25C16.7852 49.3203 16.9141 49.3789 17.0547 49.4258C17.2031 49.4648 17.3516 49.4844 17.5 49.4844C17.5312 49.4844 17.5625 49.4844 17.5938 49.4844C17.6328 49.4844 17.668 49.4805 17.6992 49.4727C17.8398 49.4336 18.0273 49.3438 18.2617 49.2031C18.4961 49.0625 18.7383 48.9023 18.9883 48.7227C19.2461 48.543 19.4883 48.3594 19.7148 48.1719C19.9492 47.9766 20.1289 47.8047 20.2539 47.6562L20.6875 48.5ZM21.8711 44.7266C21.8789 44.7734 21.8867 44.832 21.8945 44.9023C21.9023 44.9648 21.9102 45.0391 21.918 45.125C21.9258 45.2031 21.9297 45.2969 21.9297 45.4062V45.418V45.5C22.0781 45.3516 22.2461 45.2109 22.4336 45.0781C22.6289 44.9453 22.8203 44.8242 23.0078 44.7148C23.2031 44.5977 23.3906 44.4961 23.5703 44.4102C23.7578 44.3242 23.9219 44.25 24.0625 44.1875C24.1641 44.1406 24.2773 44.1172 24.4023 44.1172C24.6289 44.1172 24.8359 44.1875 25.0234 44.3281C25.2188 44.4609 25.3281 44.6211 25.3516 44.8086C25.5938 44.6367 25.8516 44.4961 26.125 44.3867C26.4062 44.2695 26.6523 44.2109 26.8633 44.2109C26.9414 44.2109 27.0391 44.2539 27.1562 44.3398C27.2812 44.4258 27.3984 44.5312 27.5078 44.6562C27.625 44.7734 27.7227 44.8984 27.8008 45.0312C27.8867 45.1562 27.9297 45.2578 27.9297 45.3359V45.3594C27.9219 45.3984 27.8828 45.5 27.8125 45.6641C27.75 45.8281 27.668 46.0273 27.5664 46.2617C27.4648 46.4961 27.3555 46.7539 27.2383 47.0352C27.1289 47.3164 27.0234 47.5977 26.9219 47.8789C26.8281 48.1602 26.7461 48.4297 26.6758 48.6875C26.6133 48.9375 26.582 49.1523 26.582 49.332C26.582 49.582 26.6562 49.7266 26.8047 49.7656C27.0859 49.7109 27.3555 49.6328 27.6133 49.5312C27.832 49.4453 28.0547 49.332 28.2812 49.1914C28.5078 49.043 28.6914 48.8594 28.832 48.6406L29.1836 49.4258C28.8477 49.6758 28.5 49.8828 28.1406 50.0469C27.7891 50.2188 27.4648 50.3555 27.168 50.457C26.8164 50.5742 26.4766 50.668 26.1484 50.7383C25.9609 50.6445 25.8164 50.5156 25.7148 50.3516C25.6211 50.1953 25.5742 49.9805 25.5742 49.707C25.5742 49.5742 25.5859 49.4219 25.6094 49.25C25.6328 49.0781 25.6758 48.8828 25.7383 48.6641C25.8008 48.3984 25.8984 48.0938 26.0312 47.75C26.1719 47.3984 26.3125 47.0508 26.4531 46.707C26.5938 46.3633 26.7148 46.0391 26.8164 45.7344C26.918 45.4219 26.9688 45.1719 26.9688 44.9844C26.7422 45.0234 26.5039 45.0859 26.2539 45.1719C26.0117 45.25 25.7734 45.3711 25.5391 45.5352C25.3125 45.6914 25.1016 45.8906 24.9062 46.1328C24.7109 46.375 24.5469 46.6719 24.4141 47.0234C24.375 47.1172 24.3477 47.1914 24.332 47.2461C24.3164 47.293 24.3008 47.3242 24.2852 47.3398C24.2227 47.4961 24.1641 47.6602 24.1094 47.832C24.0547 47.9961 24.0195 48.1562 24.0039 48.3125C23.9883 48.4219 23.9727 48.5352 23.957 48.6523C23.9336 48.8555 23.9219 49.1055 23.9219 49.4023C23.9219 49.5195 23.9258 49.6406 23.9336 49.7656C23.9414 49.8906 23.9609 50.0078 23.9922 50.1172L22.7031 50.082C22.7109 49.7539 22.7617 49.3672 22.8555 48.9219C22.957 48.4766 23.082 48.0195 23.2305 47.5508C23.3789 47.082 23.5352 46.6328 23.6992 46.2031C23.8711 45.7734 24.0312 45.4102 24.1797 45.1133C23.9922 45.1445 23.7852 45.2031 23.5586 45.2891C23.3398 45.375 23.1211 45.4805 22.9023 45.6055C22.6836 45.7305 22.4805 45.8672 22.293 46.0156C22.1055 46.1562 21.9531 46.2969 21.8359 46.4375C21.7422 46.5391 21.6523 46.6719 21.5664 46.8359C21.4648 47.1328 21.3477 47.4648 21.2148 47.832C21.1055 48.1523 20.9688 48.5273 20.8047 48.957C20.6484 49.3789 20.4688 49.8477 20.2656 50.3633L19.2461 50.1289C19.4648 49.6914 19.6719 49.2461 19.8672 48.793C20.0547 48.332 20.2188 47.8906 20.3594 47.4688C20.5 47.0469 20.6094 46.6523 20.6875 46.2852C20.7734 45.918 20.8164 45.6055 20.8164 45.3477V45.1953L21.8711 44.7266ZM29.875 49.2969C29.9609 49.2969 30.0742 49.2539 30.2148 49.168C30.3555 49.0742 30.5078 48.9531 30.6719 48.8047C30.8359 48.6562 31.0039 48.4883 31.1758 48.3008C31.3555 48.1133 31.5273 47.9258 31.6914 47.7383C31.7773 47.4648 31.8867 47.1328 32.0195 46.7422C32.1602 46.3438 32.3164 45.9141 32.4883 45.4531L32.3242 45.7695C32.3008 45.6523 32.2617 45.543 32.207 45.4414C32.1523 45.3398 32.0898 45.25 32.0195 45.1719C31.9492 45.0859 31.875 45.0195 31.7969 44.9727C31.7266 44.9258 31.6641 44.9023 31.6094 44.9023C31.5703 44.9023 31.543 44.9102 31.5273 44.9258C31.4961 44.9492 31.4258 45.0234 31.3164 45.1484C31.2148 45.2656 31.0898 45.4141 30.9414 45.5938C30.8008 45.7734 30.6484 45.9727 30.4844 46.1914C30.3281 46.4102 30.1797 46.625 30.0391 46.8359C29.9062 47.0469 29.7891 47.2461 29.6875 47.4336C29.5859 47.6133 29.5273 47.7578 29.5117 47.8672C29.4961 47.9766 29.4805 48.0898 29.4648 48.207C29.4492 48.3164 29.4414 48.4258 29.4414 48.5352C29.4414 48.7383 29.4688 48.9141 29.5234 49.0625C29.5859 49.2109 29.6953 49.2891 29.8516 49.2969H29.875ZM35.1602 48.5117C35.0586 48.6289 34.9141 48.793 34.7266 49.0039C34.5391 49.2148 34.3359 49.4258 34.1172 49.6367C33.9062 49.8398 33.6914 50.0156 33.4727 50.1641C33.2617 50.3203 33.082 50.3984 32.9336 50.3984H32.9102C32.7617 50.3984 32.6016 50.3789 32.4297 50.3398C32.2578 50.3008 32.0977 50.2461 31.9492 50.1758C31.8086 50.1133 31.6875 50.0391 31.5859 49.9531C31.4922 49.8594 31.4453 49.7578 31.4453 49.6484V49.6367C31.4453 49.5586 31.4492 49.4688 31.457 49.3672C31.4648 49.2578 31.4727 49.1445 31.4805 49.0273C31.1445 49.3555 30.8086 49.6289 30.4727 49.8477C30.1445 50.0664 29.8555 50.1758 29.6055 50.1758C29.543 50.1758 29.5 50.1719 29.4766 50.1641C29.3359 50.1406 29.207 50.0742 29.0898 49.9648C28.9727 49.8477 28.8711 49.707 28.7852 49.543C28.707 49.3711 28.6445 49.1836 28.5977 48.9805C28.5508 48.7773 28.5273 48.5742 28.5273 48.3711C28.5273 48.0742 28.5742 47.7969 28.668 47.5391C28.7305 47.375 28.8203 47.1797 28.9375 46.9531C29.0547 46.7266 29.1875 46.4883 29.3359 46.2383C29.4922 45.9883 29.6562 45.7422 29.8281 45.5C30.0078 45.25 30.1836 45.0234 30.3555 44.8203C30.5352 44.6172 30.7109 44.4531 30.8828 44.3281C31.0547 44.1953 31.2148 44.1172 31.3633 44.0938C31.4023 44.0859 31.4375 44.082 31.4688 44.082C31.5 44.082 31.5312 44.082 31.5625 44.082C31.7266 44.082 31.8711 44.1055 31.9961 44.1523C32.1289 44.1992 32.2422 44.2617 32.3359 44.3398C32.4375 44.4102 32.5195 44.4883 32.582 44.5742C32.6445 44.6602 32.6914 44.7383 32.7227 44.8086C32.7461 44.7148 32.7734 44.6406 32.8047 44.5859L33.5664 44.7031C33.3555 45.2344 33.1602 45.7734 32.9805 46.3203C32.8008 46.8594 32.6602 47.375 32.5586 47.8672L32.5703 47.9023L32.5469 47.9258C32.5 48.1602 32.4609 48.3828 32.4297 48.5938C32.4062 48.8047 32.3945 49 32.3945 49.1797C32.3945 49.2656 32.3945 49.3398 32.3945 49.4023C32.4023 49.4648 32.4102 49.5273 32.418 49.5898C32.6133 49.5195 32.832 49.4141 33.0742 49.2734C33.3242 49.1328 33.5664 48.9766 33.8008 48.8047C34.043 48.6328 34.2695 48.457 34.4805 48.2773C34.6914 48.0898 34.8633 47.9258 34.9961 47.7852L35.1602 48.5117ZM35.418 45.3125C35.6289 45.2031 35.8164 45.1055 35.9805 45.0195C36.1211 44.9492 36.25 44.8828 36.3672 44.8203C36.4922 44.7578 36.5625 44.7266 36.5781 44.7266C36.5781 44.7656 36.5781 44.7969 36.5781 44.8203C36.5859 44.8438 36.5898 44.8672 36.5898 44.8906C36.5898 44.9297 36.5859 44.9688 36.5781 45.0078C36.5781 45.0469 36.5742 45.0859 36.5664 45.125C36.8008 44.9062 37.0508 44.7266 37.3164 44.5859C37.5898 44.4375 37.8438 44.332 38.0781 44.2695H38.1367C38.2227 44.2695 38.3398 44.2969 38.4883 44.3516C38.6367 44.4062 38.7812 44.4766 38.9219 44.5625C39.0625 44.6484 39.1836 44.7422 39.2852 44.8438C39.3945 44.9375 39.4492 45.0273 39.4492 45.1133C39.4492 45.168 39.418 45.2852 39.3555 45.4648C39.3008 45.6367 39.2266 45.8477 39.1328 46.0977C39.0469 46.3477 38.9492 46.625 38.8398 46.9297C38.7383 47.2266 38.6406 47.5273 38.5469 47.832C38.4609 48.1289 38.3867 48.4141 38.3242 48.6875C38.2617 48.9531 38.2305 49.1836 38.2305 49.3789C38.2305 49.5117 38.25 49.6211 38.2891 49.707C38.3281 49.793 38.3906 49.8438 38.4766 49.8594C38.7656 49.8125 39.043 49.7305 39.3086 49.6133C39.5352 49.5117 39.7734 49.375 40.0234 49.2031C40.2812 49.0234 40.5078 48.7852 40.7031 48.4883L41.043 49.3789C40.8555 49.582 40.6328 49.7734 40.375 49.9531C40.125 50.125 39.8672 50.2773 39.6016 50.4102C39.3359 50.543 39.0703 50.6445 38.8047 50.7148C38.5469 50.793 38.3203 50.832 38.125 50.832C37.9375 50.832 37.793 50.793 37.6914 50.7148C37.582 50.6367 37.5 50.4766 37.4453 50.2344C37.3984 49.9922 37.375 49.7227 37.375 49.4258C37.375 49.2695 37.3789 49.1172 37.3867 48.9688C37.4023 48.8125 37.4258 48.6562 37.457 48.5C37.5117 48.1797 37.5898 47.8516 37.6914 47.5156C37.793 47.1797 37.8906 46.8594 37.9844 46.5547C38.0859 46.2422 38.1719 45.9609 38.2422 45.7109C38.3125 45.4531 38.3516 45.2461 38.3594 45.0898C37.8594 45.2461 37.4141 45.5 37.0234 45.8516C36.6328 46.2031 36.332 46.5977 36.1211 47.0352C35.8633 47.5586 35.6445 48.1055 35.4648 48.6758C35.293 49.2383 35.1055 49.8008 34.9023 50.3633L33.8477 50.0938C33.9492 49.9375 34.0586 49.7383 34.1758 49.4961C34.293 49.2461 34.4062 48.9727 34.5156 48.6758C34.6328 48.3789 34.7461 48.0703 34.8555 47.75C34.9648 47.4297 35.0625 47.1211 35.1484 46.8242C35.2344 46.5273 35.3008 46.25 35.3477 45.9922C35.4023 45.7344 35.4336 45.5195 35.4414 45.3477L35.418 45.3125ZM41.7344 49.2969C41.8203 49.2969 41.9336 49.25 42.0742 49.1562C42.2148 49.0625 42.3672 48.9414 42.5312 48.793C42.6953 48.6445 42.8633 48.4766 43.0352 48.2891C43.2148 48.1016 43.3867 47.9141 43.5508 47.7266C43.6367 47.4531 43.7461 47.1211 43.8789 46.7305C44.0195 46.332 44.1758 45.9023 44.3477 45.4414L44.1836 45.7578C44.1602 45.6406 44.1211 45.5312 44.0664 45.4297C44.0117 45.3281 43.9492 45.2383 43.8789 45.1602C43.8086 45.0742 43.7344 45.0078 43.6562 44.9609C43.5859 44.9141 43.5234 44.8906 43.4688 44.8906C43.4453 44.8906 43.418 44.8984 43.3867 44.9141C43.3555 44.9375 43.2852 45.0117 43.1758 45.1367C43.0742 45.2539 42.9492 45.4062 42.8008 45.5938C42.6602 45.7734 42.5078 45.9727 42.3438 46.1914C42.1875 46.4023 42.0391 46.6133 41.8984 46.8242C41.7656 47.0352 41.6484 47.2344 41.5469 47.4219C41.4453 47.6016 41.3867 47.7461 41.3711 47.8555C41.3555 47.9648 41.3398 48.0781 41.3242 48.1953C41.3086 48.3047 41.3008 48.4141 41.3008 48.5234C41.3008 48.7266 41.3281 48.9023 41.3828 49.0508C41.4453 49.1992 41.5547 49.2812 41.7109 49.2969H41.7344ZM41.7344 53.8555C42.0156 53.457 42.2539 52.9727 42.4492 52.4023C42.6445 51.8398 42.8125 51.25 42.9531 50.6328C42.5938 50.9531 42.3477 51.2539 42.2148 51.5352C42.043 51.9102 41.918 52.2656 41.8398 52.6016C41.7617 52.9375 41.7227 53.2695 41.7227 53.5977C41.7227 53.6367 41.7227 53.6797 41.7227 53.7266C41.7305 53.7734 41.7344 53.8164 41.7344 53.8555ZM43.1992 49.3438C43.207 49.3125 43.2109 49.2812 43.2109 49.25C43.2109 49.2188 43.2109 49.1875 43.2109 49.1562C42.875 49.4766 42.5625 49.7266 42.2734 49.9062C41.9922 50.0859 41.7305 50.1758 41.4883 50.1758C41.4648 50.1758 41.4375 50.1719 41.4062 50.1641C41.3828 50.1641 41.3594 50.1641 41.3359 50.1641C41.1875 50.1328 41.0469 50.0625 40.9141 49.9531C40.7891 49.8359 40.6797 49.6953 40.5859 49.5312C40.4922 49.3594 40.418 49.1719 40.3633 48.9688C40.3086 48.7656 40.2812 48.5625 40.2812 48.3594C40.2812 48.125 40.3242 47.8867 40.4102 47.6445C40.4727 47.4805 40.5664 47.2812 40.6914 47.0469C40.8164 46.8125 40.957 46.5703 41.1133 46.3203C41.2773 46.0625 41.4492 45.8047 41.6289 45.5469C41.8164 45.2891 42.0039 45.0547 42.1914 44.8438C42.3789 44.6328 42.5586 44.4609 42.7305 44.3281C42.9102 44.1875 43.0742 44.1055 43.2227 44.082C43.2617 44.0742 43.2969 44.0703 43.3281 44.0703C43.3594 44.0703 43.3906 44.0703 43.4219 44.0703C43.5859 44.0703 43.7305 44.0938 43.8555 44.1406C43.9883 44.1875 44.1016 44.25 44.1953 44.3281C44.2969 44.3984 44.3789 44.4766 44.4414 44.5625C44.5039 44.6484 44.5508 44.7266 44.582 44.7969C44.6055 44.7031 44.6328 44.6289 44.6641 44.5742L45.4258 44.6914C45.2148 45.2148 45.0195 45.75 44.8398 46.2969C44.6602 46.8438 44.5195 47.3633 44.418 47.8555L44.4297 47.8906C44.4297 47.8906 44.4219 47.9297 44.4062 48.0078C44.3906 48.0781 44.375 48.1562 44.3594 48.2422C44.3438 48.3281 44.3281 48.4062 44.3125 48.4766C44.2969 48.5469 44.2891 48.582 44.2891 48.582C44.4297 48.4883 44.6055 48.3906 44.8164 48.2891C45.0352 48.1875 45.25 48.0898 45.4609 47.9961C45.6797 47.9023 45.875 47.8242 46.0469 47.7617C46.2188 47.6914 46.3281 47.6484 46.375 47.6328L46.293 48.4883C46.2305 48.5273 46.1133 48.5898 45.9414 48.6758C45.7695 48.7617 45.5703 48.8633 45.3438 48.9805C45.1172 49.0977 44.8789 49.2305 44.6289 49.3789C44.3789 49.5195 44.1445 49.6719 43.9258 49.8359C43.7695 50.3828 43.6055 50.9414 43.4336 51.5117C43.2695 52.0898 43.1094 52.6172 42.9531 53.0938C42.8047 53.5781 42.668 53.9844 42.543 54.3125C42.4258 54.6406 42.3398 54.8398 42.2852 54.9102C42.1758 55.0195 42.0664 55.1094 41.957 55.1797C41.8477 55.2578 41.7344 55.2969 41.6172 55.2969C41.3828 55.2969 41.1758 55.1406 40.9961 54.8281C40.8945 54.6328 40.8438 54.3203 40.8438 53.8906C40.8438 53.625 40.8633 53.3359 40.9023 53.0234C40.9414 52.7109 40.9922 52.4062 41.0547 52.1094C41.125 51.8125 41.2031 51.5391 41.2891 51.2891C41.3828 51.0391 41.4844 50.8398 41.5938 50.6914C41.7266 50.5273 41.9375 50.3242 42.2266 50.082C42.5234 49.8398 42.8477 49.5938 43.1992 49.3438ZM58.8906 50.7617C58.1953 51.0508 57.6211 51.2383 57.168 51.3242C56.7227 51.4102 56.3828 51.4531 56.1484 51.4531C56.0625 51.4531 55.9883 51.4492 55.9258 51.4414C55.8711 51.4414 55.8242 51.4375 55.7852 51.4297C55.7383 51.4219 55.7031 51.4141 55.6797 51.4062C55.5078 51.3438 55.3672 51.2227 55.2578 51.043C55.1484 50.8711 55.0586 50.668 54.9883 50.4336C54.9258 50.1992 54.8789 49.9531 54.8477 49.6953C54.8242 49.4297 54.8125 49.1797 54.8125 48.9453C54.8125 48.5781 54.8359 48.293 54.8828 48.0898C54.9062 47.9805 54.9609 47.8008 55.0469 47.5508C55.1328 47.3008 55.2344 47.0078 55.3516 46.6719C55.4688 46.3359 55.5898 45.9805 55.7148 45.6055C55.8477 45.2305 55.9688 44.8672 56.0781 44.5156C56.1875 44.1562 56.2773 43.832 56.3477 43.543C56.418 43.2461 56.4531 43.0156 56.4531 42.8516C56.4531 42.7969 56.4453 42.7383 56.4297 42.6758C56.3516 42.4492 56.2422 42.2891 56.1016 42.1953C55.9609 42.0938 55.8047 42.043 55.6328 42.043C55.5 42.043 55.3711 42.0664 55.2461 42.1133C55.1523 42.1523 55.0273 42.2227 54.8711 42.3242C54.7227 42.418 54.5664 42.5312 54.4023 42.6641C54.2383 42.7891 54.0781 42.9258 53.9219 43.0742C53.7734 43.2148 53.6484 43.3516 53.5469 43.4844C53.4375 43.8125 53.3047 44.1992 53.1484 44.6445C53 45.0898 52.8398 45.5547 52.668 46.0391C52.5039 46.5156 52.332 46.9883 52.1523 47.457C51.9805 47.9258 51.8203 48.3516 51.6719 48.7344C51.5312 49.1094 51.4023 49.4219 51.2852 49.6719C51.1758 49.9219 51.1016 50.0664 51.0625 50.1055L50.0664 49.8477C50.1523 49.6914 50.2734 49.418 50.4297 49.0273C50.5938 48.6289 50.7695 48.1758 50.957 47.668C51.1523 47.1602 51.3477 46.6289 51.543 46.0742C51.7461 45.5117 51.9297 44.9844 52.0938 44.4922C52.2656 44 52.4062 43.5742 52.5156 43.2148C52.6328 42.8555 52.7031 42.6211 52.7266 42.5117C52.7344 42.4727 52.7383 42.4258 52.7383 42.3711C52.7383 42.2773 52.7188 42.2148 52.6797 42.1836C52.6484 42.1445 52.6016 42.125 52.5391 42.125C52.4531 42.125 52.3594 42.1523 52.2578 42.207C52.1562 42.2539 52.0781 42.293 52.0234 42.3242C51.9375 42.3789 51.8477 42.4492 51.7539 42.5352C51.668 42.6133 51.5664 42.7227 51.4492 42.8633C51.3398 42.9961 51.2188 43.168 51.0859 43.3789L50.6172 42.4883C50.7422 42.3555 50.9062 42.2109 51.1094 42.0547C51.3125 41.8984 51.5195 41.7539 51.7305 41.6211C51.9414 41.4883 52.1445 41.3789 52.3398 41.293C52.5352 41.207 52.6875 41.1641 52.7969 41.1641C52.8125 41.1641 52.8242 41.168 52.832 41.1758C52.8398 41.1758 52.8477 41.1758 52.8555 41.1758C52.9258 41.1914 53.0039 41.2227 53.0898 41.2695C53.1758 41.3086 53.2617 41.3633 53.3477 41.4336C53.4336 41.4961 53.5156 41.5742 53.5938 41.668C53.6719 41.7539 53.7344 41.8516 53.7812 41.9609C53.9062 41.8828 54.0664 41.7969 54.2617 41.7031C54.457 41.6016 54.6562 41.5078 54.8594 41.4219C55.0703 41.3359 55.2695 41.2656 55.457 41.2109C55.6523 41.1484 55.8164 41.1172 55.9492 41.1172C55.9961 41.1172 56.0273 41.1211 56.043 41.1289C56.1602 41.1523 56.2969 41.2148 56.4531 41.3164C56.6094 41.4102 56.7578 41.5273 56.8984 41.668C57.0391 41.8086 57.1562 41.9688 57.25 42.1484C57.3516 42.3203 57.4023 42.4922 57.4023 42.6641V42.793C57.3789 42.9805 57.3281 43.2539 57.25 43.6133C57.1797 43.9648 57.0938 44.3477 56.9922 44.7617C56.8984 45.168 56.7969 45.5742 56.6875 45.9805C56.5781 46.3867 56.4727 46.7305 56.3711 47.0117C56.3086 47.1758 56.2461 47.3594 56.1836 47.5625C56.1289 47.7656 56.082 47.9727 56.043 48.1836C56.0039 48.4102 55.9727 48.6367 55.9492 48.8633C55.9336 49.082 55.9258 49.293 55.9258 49.4961C55.9258 49.7695 55.9492 50.0039 55.9961 50.1992C56.043 50.3945 56.125 50.5117 56.2422 50.5508C56.2422 50.5586 56.25 50.5625 56.2656 50.5625H56.3594C56.4141 50.5625 56.4922 50.5547 56.5938 50.5391C56.7031 50.5234 56.8398 50.4922 57.0039 50.4453C57.168 50.3984 57.3633 50.3281 57.5898 50.2344C57.8242 50.1406 58.0977 50.0156 58.4102 49.8594L58.8906 50.7617ZM59.4297 53.5625C59.5234 53.4375 59.6211 53.2695 59.7227 53.0586C59.8242 52.8555 59.9258 52.6328 60.0273 52.3906C60.1367 52.1484 60.2383 51.8984 60.332 51.6406C60.4258 51.3828 60.5156 51.1367 60.6016 50.9023C60.5312 50.9805 60.4375 51.1289 60.3203 51.3477C60.2031 51.5664 60.082 51.8086 59.957 52.0742C59.8398 52.3398 59.7305 52.6055 59.6289 52.8711C59.5273 53.1445 59.4609 53.375 59.4297 53.5625ZM59.5 44.5039C59.5781 44.5508 59.7148 44.5742 59.9102 44.5742C60.0664 44.5742 60.2148 44.5664 60.3555 44.5508C60.5039 44.5273 60.5898 44.5117 60.6133 44.5039C60.3555 45.1055 60.125 45.6836 59.9219 46.2383C59.8359 46.4727 59.75 46.7188 59.6641 46.9766C59.5781 47.2266 59.5039 47.4727 59.4414 47.7148C59.3789 47.957 59.3281 48.1914 59.2891 48.418C59.25 48.6367 59.2305 48.832 59.2305 49.0039V49.0625C59.3633 49.1016 59.4922 49.1211 59.6172 49.1211C59.75 49.1211 59.8828 49.0938 60.0156 49.0391C60.1562 48.9766 60.293 48.8672 60.4258 48.7109C60.4961 48.625 60.5898 48.5 60.707 48.3359C60.8242 48.1719 60.9531 47.9844 61.0938 47.7734C61.2344 47.5625 61.3789 47.3359 61.5273 47.0938C61.6836 46.8438 61.8281 46.5977 61.9609 46.3555C62.0781 46.1602 62.1836 45.9531 62.2773 45.7344C62.3633 45.5547 62.4453 45.3477 62.5234 45.1133C62.6016 44.8789 62.6562 44.6445 62.6875 44.4102L63.6484 44.5508C63.5078 44.9805 63.3594 45.418 63.2031 45.8633C63.0547 46.3086 62.9141 46.7188 62.7812 47.0938C62.6328 47.5234 62.4844 47.9453 62.3359 48.3594C62.6406 48.2109 62.9414 48.0664 63.2383 47.9258C63.4883 47.8086 63.75 47.6953 64.0234 47.5859C64.2969 47.4688 64.5352 47.3789 64.7383 47.3164L64.5508 48.2188C64.3789 48.3125 64.1719 48.418 63.9297 48.5352C63.6953 48.6445 63.4531 48.7656 63.2031 48.8984C62.9531 49.0234 62.7109 49.1562 62.4766 49.2969C62.25 49.4297 62.0547 49.5586 61.8906 49.6836C61.7031 50.2305 61.5195 50.7656 61.3398 51.2891C61.168 51.8203 61.0039 52.3008 60.8477 52.7305C60.6992 53.1602 60.5664 53.5273 60.4492 53.832C60.3398 54.1367 60.2578 54.3398 60.2031 54.4414C60.1016 54.6445 59.957 54.7891 59.7695 54.875C59.5898 54.9609 59.4023 55.0039 59.207 55.0039C58.9727 55.0039 58.7656 54.9492 58.5859 54.8398C58.4062 54.7305 58.3164 54.5781 58.3164 54.3828C58.3164 54.3594 58.3203 54.3438 58.3281 54.3359C58.3438 54.1641 58.3906 53.9453 58.4688 53.6797C58.5547 53.4219 58.668 53.1367 58.8086 52.8242C58.9492 52.5117 59.1094 52.1836 59.2891 51.8398C59.4766 51.4961 59.6797 51.1602 59.8984 50.832C60.1172 50.5039 60.3438 50.1953 60.5781 49.9062C60.8203 49.6172 61.0625 49.3633 61.3047 49.1445C61.3281 49.1211 61.3516 49.1016 61.375 49.0859C61.3984 49.0625 61.4219 49.0391 61.4453 49.0156L61.8086 47.9727C61.6836 48.207 61.5508 48.4219 61.4102 48.6172C61.2773 48.8047 61.1445 48.9766 61.0117 49.1328C60.8867 49.2891 60.7656 49.4297 60.6484 49.5547C60.5391 49.6719 60.4492 49.7695 60.3789 49.8477C60.3164 49.9023 60.2148 49.9453 60.0742 49.9766C59.9336 50 59.7695 50.0117 59.582 50.0117C59.4102 50.0117 59.2344 50 59.0547 49.9766C58.875 49.9453 58.707 49.9023 58.5508 49.8477C58.4023 49.7852 58.2812 49.707 58.1875 49.6133C58.0938 49.5117 58.0469 49.3945 58.0469 49.2617C58.0469 49.1367 58.0781 48.957 58.1406 48.7227C58.2031 48.4805 58.2812 48.2148 58.375 47.9258C58.4688 47.6289 58.5703 47.3164 58.6797 46.9883C58.7969 46.6602 58.9062 46.3398 59.0078 46.0273C59.1172 45.7148 59.2148 45.4258 59.3008 45.1602C59.3867 44.8945 59.4531 44.6758 59.5 44.5039ZM66.8242 45.1602C66.7617 45.1602 66.6758 45.207 66.5664 45.3008C66.4648 45.3945 66.3516 45.5195 66.2266 45.6758C66.1094 45.8242 65.9844 46 65.8516 46.2031C65.7188 46.4062 65.6016 46.6172 65.5 46.8359C65.4609 46.9141 65.4258 46.9922 65.3945 47.0703C65.3633 47.1484 65.332 47.2305 65.3008 47.3164C65.5039 47.2773 65.7148 47.2305 65.9336 47.1758C66.1602 47.1133 66.3281 47.0469 66.4375 46.9766C66.4922 46.9375 66.5508 46.8594 66.6133 46.7422C66.6836 46.625 66.7461 46.4961 66.8008 46.3555C66.8633 46.207 66.9141 46.0547 66.9531 45.8984C66.9922 45.7344 67.0117 45.5938 67.0117 45.4766C67.0117 45.3906 66.9961 45.3164 66.9648 45.2539C66.9336 45.1914 66.8867 45.1602 66.8242 45.1602ZM69.4258 48.5C69.2852 48.6016 69.1211 48.7188 68.9336 48.8516C68.7461 48.9766 68.5469 49.1094 68.3359 49.25C68.1328 49.3828 67.9258 49.5156 67.7148 49.6484C67.5117 49.7812 67.3203 49.8984 67.1406 50C66.9688 50.1094 66.8203 50.1953 66.6953 50.2578C66.5703 50.3281 66.4883 50.3672 66.4492 50.375C66.4258 50.3828 66.3945 50.3867 66.3555 50.3867C66.2227 50.3867 66.0469 50.3516 65.8281 50.2812C65.6172 50.2188 65.4023 50.1367 65.1836 50.0352C64.9648 49.9414 64.7617 49.8398 64.5742 49.7305C64.3945 49.6133 64.2734 49.5039 64.2109 49.4023C64.1641 49.3164 64.1289 49.207 64.1055 49.0742C64.0898 48.9336 64.082 48.7734 64.082 48.5938C64.082 48.4375 64.0898 48.2734 64.1055 48.1016C64.1211 47.9219 64.1406 47.7539 64.1641 47.5977C64.1953 47.4336 64.2266 47.2852 64.2578 47.1523C64.2969 47.0195 64.3398 46.9141 64.3867 46.8359C64.4414 46.7266 64.5273 46.5898 64.6445 46.4258C64.7617 46.2539 64.8945 46.0781 65.043 45.8984C65.1992 45.7109 65.3633 45.5234 65.5352 45.3359C65.707 45.1484 65.8789 44.9805 66.0508 44.832C66.2227 44.6758 66.3867 44.5508 66.543 44.457C66.707 44.3555 66.8516 44.3008 66.9766 44.293C66.9844 44.293 66.9883 44.293 66.9883 44.293C66.9961 44.2852 67.0078 44.2812 67.0234 44.2812C67.1484 44.2812 67.2734 44.3359 67.3984 44.4453C67.5234 44.5547 67.6328 44.6875 67.7266 44.8438C67.8203 45 67.8945 45.168 67.9492 45.3477C68.0117 45.5195 68.043 45.6758 68.043 45.8164C68.043 45.8867 68.0391 45.9375 68.0312 45.9688C68 46.0938 67.9297 46.25 67.8203 46.4375C67.7109 46.6172 67.5898 46.7969 67.457 46.9766C67.3242 47.1484 67.1953 47.3047 67.0703 47.4453C66.9453 47.5781 66.8516 47.668 66.7891 47.7148C66.7422 47.7539 66.6562 47.793 66.5312 47.832C66.4141 47.8633 66.2734 47.8984 66.1094 47.9375C65.9531 47.9688 65.7852 48 65.6055 48.0312C65.4258 48.0625 65.25 48.0898 65.0781 48.1133C65.0469 48.2695 65.0234 48.4062 65.0078 48.5234C64.9922 48.6328 64.9805 48.7109 64.9727 48.7578C64.9883 48.8438 65.0352 48.9297 65.1133 49.0156C65.1914 49.1016 65.2891 49.1797 65.4062 49.25C65.5234 49.3203 65.6523 49.3789 65.793 49.4258C65.9414 49.4648 66.0898 49.4844 66.2383 49.4844C66.2695 49.4844 66.3008 49.4844 66.332 49.4844C66.3711 49.4844 66.4062 49.4805 66.4375 49.4727C66.5781 49.4336 66.7656 49.3438 67 49.2031C67.2344 49.0625 67.4766 48.9023 67.7266 48.7227C67.9844 48.543 68.2266 48.3594 68.4531 48.1719C68.6875 47.9766 68.8672 47.8047 68.9922 47.6562L69.4258 48.5ZM70.0469 49.2969C70.1328 49.2969 70.2461 49.25 70.3867 49.1562C70.5273 49.0625 70.6797 48.9414 70.8438 48.793C71.0078 48.6445 71.1758 48.4766 71.3477 48.2891C71.5273 48.1016 71.6992 47.9141 71.8633 47.7266C71.9492 47.4531 72.0586 47.1211 72.1914 46.7305C72.332 46.332 72.4883 45.9023 72.6602 45.4414L72.4961 45.7578C72.4727 45.6406 72.4336 45.5312 72.3789 45.4297C72.3242 45.3281 72.2617 45.2383 72.1914 45.1602C72.1211 45.0742 72.0469 45.0078 71.9688 44.9609C71.8984 44.9141 71.8359 44.8906 71.7812 44.8906C71.7578 44.8906 71.7305 44.8984 71.6992 44.9141C71.668 44.9375 71.5977 45.0117 71.4883 45.1367C71.3867 45.2539 71.2617 45.4062 71.1133 45.5938C70.9727 45.7734 70.8203 45.9727 70.6562 46.1914C70.5 46.4023 70.3516 46.6133 70.2109 46.8242C70.0781 47.0352 69.9609 47.2344 69.8594 47.4219C69.7578 47.6016 69.6992 47.7461 69.6836 47.8555C69.668 47.9648 69.6523 48.0781 69.6367 48.1953C69.6211 48.3047 69.6133 48.4141 69.6133 48.5234C69.6133 48.7266 69.6406 48.9023 69.6953 49.0508C69.7578 49.1992 69.8672 49.2812 70.0234 49.2969H70.0469ZM70.0469 53.8555C70.3281 53.457 70.5664 52.9727 70.7617 52.4023C70.957 51.8398 71.125 51.25 71.2656 50.6328C70.9062 50.9531 70.6602 51.2539 70.5273 51.5352C70.3555 51.9102 70.2305 52.2656 70.1523 52.6016C70.0742 52.9375 70.0352 53.2695 70.0352 53.5977C70.0352 53.6367 70.0352 53.6797 70.0352 53.7266C70.043 53.7734 70.0469 53.8164 70.0469 53.8555ZM71.5117 49.3438C71.5195 49.3125 71.5234 49.2812 71.5234 49.25C71.5234 49.2188 71.5234 49.1875 71.5234 49.1562C71.1875 49.4766 70.875 49.7266 70.5859 49.9062C70.3047 50.0859 70.043 50.1758 69.8008 50.1758C69.7773 50.1758 69.75 50.1719 69.7188 50.1641C69.6953 50.1641 69.6719 50.1641 69.6484 50.1641C69.5 50.1328 69.3594 50.0625 69.2266 49.9531C69.1016 49.8359 68.9922 49.6953 68.8984 49.5312C68.8047 49.3594 68.7305 49.1719 68.6758 48.9688C68.6211 48.7656 68.5938 48.5625 68.5938 48.3594C68.5938 48.125 68.6367 47.8867 68.7227 47.6445C68.7852 47.4805 68.8789 47.2812 69.0039 47.0469C69.1289 46.8125 69.2695 46.5703 69.4258 46.3203C69.5898 46.0625 69.7617 45.8047 69.9414 45.5469C70.1289 45.2891 70.3164 45.0547 70.5039 44.8438C70.6914 44.6328 70.8711 44.4609 71.043 44.3281C71.2227 44.1875 71.3867 44.1055 71.5352 44.082C71.5742 44.0742 71.6094 44.0703 71.6406 44.0703C71.6719 44.0703 71.7031 44.0703 71.7344 44.0703C71.8984 44.0703 72.043 44.0938 72.168 44.1406C72.3008 44.1875 72.4141 44.25 72.5078 44.3281C72.6094 44.3984 72.6914 44.4766 72.7539 44.5625C72.8164 44.6484 72.8633 44.7266 72.8945 44.7969C72.918 44.7031 72.9453 44.6289 72.9766 44.5742L73.7383 44.6914C73.5273 45.2148 73.332 45.75 73.1523 46.2969C72.9727 46.8438 72.832 47.3633 72.7305 47.8555L72.7422 47.8906C72.7422 47.8906 72.7344 47.9297 72.7188 48.0078C72.7031 48.0781 72.6875 48.1562 72.6719 48.2422C72.6562 48.3281 72.6406 48.4062 72.625 48.4766C72.6094 48.5469 72.6016 48.582 72.6016 48.582C72.7422 48.4883 72.918 48.3906 73.1289 48.2891C73.3477 48.1875 73.5625 48.0898 73.7734 47.9961C73.9922 47.9023 74.1875 47.8242 74.3594 47.7617C74.5312 47.6914 74.6406 47.6484 74.6875 47.6328L74.6055 48.4883C74.543 48.5273 74.4258 48.5898 74.2539 48.6758C74.082 48.7617 73.8828 48.8633 73.6562 48.9805C73.4297 49.0977 73.1914 49.2305 72.9414 49.3789C72.6914 49.5195 72.457 49.6719 72.2383 49.8359C72.082 50.3828 71.918 50.9414 71.7461 51.5117C71.582 52.0898 71.4219 52.6172 71.2656 53.0938C71.1172 53.5781 70.9805 53.9844 70.8555 54.3125C70.7383 54.6406 70.6523 54.8398 70.5977 54.9102C70.4883 55.0195 70.3789 55.1094 70.2695 55.1797C70.1602 55.2578 70.0469 55.2969 69.9297 55.2969C69.6953 55.2969 69.4883 55.1406 69.3086 54.8281C69.207 54.6328 69.1562 54.3203 69.1562 53.8906C69.1562 53.625 69.1758 53.3359 69.2148 53.0234C69.2539 52.7109 69.3047 52.4062 69.3672 52.1094C69.4375 51.8125 69.5156 51.5391 69.6016 51.2891C69.6953 51.0391 69.7969 50.8398 69.9062 50.6914C70.0391 50.5273 70.25 50.3242 70.5391 50.082C70.8359 49.8398 71.1602 49.5938 71.5117 49.3438ZM76.9844 45.1602C76.9219 45.1602 76.8359 45.207 76.7266 45.3008C76.625 45.3945 76.5117 45.5195 76.3867 45.6758C76.2695 45.8242 76.1445 46 76.0117 46.2031C75.8789 46.4062 75.7617 46.6172 75.6602 46.8359C75.6211 46.9141 75.5859 46.9922 75.5547 47.0703C75.5234 47.1484 75.4922 47.2305 75.4609 47.3164C75.6641 47.2773 75.875 47.2305 76.0938 47.1758C76.3203 47.1133 76.4883 47.0469 76.5977 46.9766C76.6523 46.9375 76.7109 46.8594 76.7734 46.7422C76.8438 46.625 76.9062 46.4961 76.9609 46.3555C77.0234 46.207 77.0742 46.0547 77.1133 45.8984C77.1523 45.7344 77.1719 45.5938 77.1719 45.4766C77.1719 45.3906 77.1562 45.3164 77.125 45.2539C77.0938 45.1914 77.0469 45.1602 76.9844 45.1602ZM79.5859 48.5C79.4453 48.6016 79.2812 48.7188 79.0938 48.8516C78.9062 48.9766 78.707 49.1094 78.4961 49.25C78.293 49.3828 78.0859 49.5156 77.875 49.6484C77.6719 49.7812 77.4805 49.8984 77.3008 50C77.1289 50.1094 76.9805 50.1953 76.8555 50.2578C76.7305 50.3281 76.6484 50.3672 76.6094 50.375C76.5859 50.3828 76.5547 50.3867 76.5156 50.3867C76.3828 50.3867 76.207 50.3516 75.9883 50.2812C75.7773 50.2188 75.5625 50.1367 75.3438 50.0352C75.125 49.9414 74.9219 49.8398 74.7344 49.7305C74.5547 49.6133 74.4336 49.5039 74.3711 49.4023C74.3242 49.3164 74.2891 49.207 74.2656 49.0742C74.25 48.9336 74.2422 48.7734 74.2422 48.5938C74.2422 48.4375 74.25 48.2734 74.2656 48.1016C74.2812 47.9219 74.3008 47.7539 74.3242 47.5977C74.3555 47.4336 74.3867 47.2852 74.418 47.1523C74.457 47.0195 74.5 46.9141 74.5469 46.8359C74.6016 46.7266 74.6875 46.5898 74.8047 46.4258C74.9219 46.2539 75.0547 46.0781 75.2031 45.8984C75.3594 45.7109 75.5234 45.5234 75.6953 45.3359C75.8672 45.1484 76.0391 44.9805 76.2109 44.832C76.3828 44.6758 76.5469 44.5508 76.7031 44.457C76.8672 44.3555 77.0117 44.3008 77.1367 44.293C77.1445 44.293 77.1484 44.293 77.1484 44.293C77.1562 44.2852 77.168 44.2812 77.1836 44.2812C77.3086 44.2812 77.4336 44.3359 77.5586 44.4453C77.6836 44.5547 77.793 44.6875 77.8867 44.8438C77.9805 45 78.0547 45.168 78.1094 45.3477C78.1719 45.5195 78.2031 45.6758 78.2031 45.8164C78.2031 45.8867 78.1992 45.9375 78.1914 45.9688C78.1602 46.0938 78.0898 46.25 77.9805 46.4375C77.8711 46.6172 77.75 46.7969 77.6172 46.9766C77.4844 47.1484 77.3555 47.3047 77.2305 47.4453C77.1055 47.5781 77.0117 47.668 76.9492 47.7148C76.9023 47.7539 76.8164 47.793 76.6914 47.832C76.5742 47.8633 76.4336 47.8984 76.2695 47.9375C76.1133 47.9688 75.9453 48 75.7656 48.0312C75.5859 48.0625 75.4102 48.0898 75.2383 48.1133C75.207 48.2695 75.1836 48.4062 75.168 48.5234C75.1523 48.6328 75.1406 48.7109 75.1328 48.7578C75.1484 48.8438 75.1953 48.9297 75.2734 49.0156C75.3516 49.1016 75.4492 49.1797 75.5664 49.25C75.6836 49.3203 75.8125 49.3789 75.9531 49.4258C76.1016 49.4648 76.25 49.4844 76.3984 49.4844C76.4297 49.4844 76.4609 49.4844 76.4922 49.4844C76.5312 49.4844 76.5664 49.4805 76.5977 49.4727C76.7383 49.4336 76.9258 49.3438 77.1602 49.2031C77.3945 49.0625 77.6367 48.9023 77.8867 48.7227C78.1445 48.543 78.3867 48.3594 78.6133 48.1719C78.8477 47.9766 79.0273 47.8047 79.1523 47.6562L79.5859 48.5ZM84.9766 48.7695C84.8906 48.9336 84.7852 49.0977 84.6602 49.2617C84.5352 49.4258 84.3906 49.582 84.2266 49.7305C84.0703 49.8711 83.8984 49.9922 83.7109 50.0938C83.5234 50.2031 83.3281 50.2773 83.125 50.3164C83.0391 50.332 82.957 50.3438 82.8789 50.3516C82.8086 50.3594 82.7344 50.3633 82.6562 50.3633C82.3203 50.3633 82.0273 50.293 81.7773 50.1523C81.5273 50.0195 81.3867 49.8125 81.3555 49.5312V49.4141C81.3555 49.2422 81.3711 49 81.4023 48.6875C81.4414 48.3672 81.4844 48.0312 81.5312 47.6797C81.5859 47.3203 81.6406 46.9688 81.6953 46.625C81.75 46.2734 81.7969 45.9766 81.8359 45.7344L81.0977 45.4062L79.1641 50.2344L78.1445 50.082C78.1914 49.9727 78.2812 49.7734 78.4141 49.4844C78.5469 49.1953 78.6953 48.875 78.8594 48.5234C79.0234 48.1719 79.1836 47.8242 79.3398 47.4805C79.5039 47.1289 79.6367 46.8398 79.7383 46.6133C79.8242 46.4023 79.918 46.1445 80.0195 45.8398C80.1211 45.5352 80.2148 45.2344 80.3008 44.9375C80.3867 44.6328 80.457 44.3594 80.5117 44.1172C80.5664 43.875 80.5938 43.7109 80.5938 43.625L81.625 43.8828C81.6016 43.9141 81.5859 43.9492 81.5781 43.9883C81.5703 44.0195 81.5664 44.0547 81.5664 44.0938C81.5664 44.1875 81.582 44.2812 81.6133 44.375C81.6523 44.4609 81.6953 44.543 81.7422 44.6211C81.7969 44.6914 81.8555 44.75 81.918 44.7969C81.9883 44.8438 82.0547 44.8672 82.1172 44.8672C82.1641 44.8672 82.207 44.8477 82.2461 44.8086C82.293 44.7617 82.3242 44.6836 82.3398 44.5742C82.3477 44.5273 82.3789 44.4844 82.4336 44.4453C82.4961 44.3984 82.5625 44.3594 82.6328 44.3281C82.7109 44.2891 82.7891 44.2617 82.8672 44.2461C82.9531 44.2227 83.0234 44.2109 83.0781 44.2109C83.1562 44.2109 83.1992 44.2266 83.207 44.2578C83.2461 44.3125 83.2812 44.3789 83.3125 44.457C83.3516 44.5273 83.3711 44.6055 83.3711 44.6914C83.3711 44.7773 83.3516 44.8594 83.3125 44.9375C83.2812 45.0156 83.2227 45.0859 83.1367 45.1484C83.0117 45.2422 82.9023 45.3945 82.8086 45.6055C82.7148 45.8164 82.6328 46.0586 82.5625 46.332C82.5 46.6055 82.4531 46.8984 82.4219 47.2109C82.3906 47.5234 82.375 47.832 82.375 48.1367C82.375 48.4336 82.3906 48.7188 82.4219 48.9922C82.4531 49.2656 82.5039 49.4922 82.5742 49.6719C82.8164 49.625 83.0273 49.5664 83.207 49.4961C83.3867 49.4258 83.5469 49.3359 83.6875 49.2266C83.8359 49.1094 83.9688 48.9727 84.0859 48.8164C84.2109 48.6523 84.332 48.4531 84.4492 48.2188L84.9766 48.7695ZM87.5312 41.4688C87.3516 41.6797 87.2148 41.8828 87.1211 42.0781C87.0273 42.2734 86.9609 42.4453 86.9219 42.5938C86.875 42.7656 86.8477 42.9258 86.8398 43.0742L85.9258 43.1445C85.9414 42.793 86.0195 42.4531 86.1602 42.125C86.3086 41.7969 86.4844 41.5312 86.6875 41.3281L87.5312 41.4688ZM88.6797 48.1836C88.4062 48.5039 88.1289 48.793 87.8477 49.0508C87.5742 49.3086 87.3125 49.5312 87.0625 49.7188C86.8125 49.9062 86.582 50.0508 86.3711 50.1523C86.1602 50.2617 85.9805 50.3242 85.832 50.3398C85.8164 50.3477 85.7852 50.3516 85.7383 50.3516C85.5898 50.3516 85.4336 50.3164 85.2695 50.2461C85.1055 50.1758 84.9531 50.082 84.8125 49.9648C84.6719 49.8477 84.5547 49.7188 84.4609 49.5781C84.3672 49.4297 84.3203 49.2852 84.3203 49.1445V49.1211C84.3359 48.9648 84.3828 48.6992 84.4609 48.3242C84.5234 47.9961 84.625 47.5352 84.7656 46.9414C84.9062 46.3398 85.1094 45.5391 85.375 44.5391L86.3359 44.7148C86.0156 45.8008 85.8086 46.6875 85.7148 47.375C85.6211 48.0625 85.5742 48.582 85.5742 48.9336C85.5742 49.0352 85.5742 49.125 85.5742 49.2031C85.5742 49.2734 85.5781 49.332 85.5859 49.3789C85.5938 49.4336 85.6016 49.4805 85.6094 49.5195C85.8984 49.3711 86.1992 49.1953 86.5117 48.9922C86.7773 48.8125 87.0703 48.5938 87.3906 48.3359C87.7109 48.0781 88.0234 47.7773 88.3281 47.4336L88.6797 48.1836ZM88.75 45.3125C88.9609 45.2031 89.1484 45.1055 89.3125 45.0195C89.4531 44.9492 89.582 44.8828 89.6992 44.8203C89.8242 44.7578 89.8945 44.7266 89.9102 44.7266C89.9102 44.7656 89.9102 44.7969 89.9102 44.8203C89.918 44.8438 89.9219 44.8672 89.9219 44.8906C89.9219 44.9297 89.918 44.9688 89.9102 45.0078C89.9102 45.0469 89.9062 45.0859 89.8984 45.125C90.1328 44.9062 90.3828 44.7266 90.6484 44.5859C90.9219 44.4375 91.1758 44.332 91.4102 44.2695H91.4688C91.5547 44.2695 91.6719 44.2969 91.8203 44.3516C91.9688 44.4062 92.1133 44.4766 92.2539 44.5625C92.3945 44.6484 92.5156 44.7422 92.6172 44.8438C92.7266 44.9375 92.7812 45.0273 92.7812 45.1133C92.7812 45.168 92.75 45.2852 92.6875 45.4648C92.6328 45.6367 92.5586 45.8477 92.4648 46.0977C92.3789 46.3477 92.2812 46.625 92.1719 46.9297C92.0703 47.2266 91.9727 47.5273 91.8789 47.832C91.793 48.1289 91.7188 48.4141 91.6562 48.6875C91.5938 48.9531 91.5625 49.1836 91.5625 49.3789C91.5625 49.5117 91.582 49.6211 91.6211 49.707C91.6602 49.793 91.7227 49.8438 91.8086 49.8594C92.0977 49.8125 92.375 49.7305 92.6406 49.6133C92.8672 49.5117 93.1055 49.375 93.3555 49.2031C93.6133 49.0234 93.8398 48.7852 94.0352 48.4883L94.375 49.3789C94.1875 49.582 93.9648 49.7734 93.707 49.9531C93.457 50.125 93.1992 50.2773 92.9336 50.4102C92.668 50.543 92.4023 50.6445 92.1367 50.7148C91.8789 50.793 91.6523 50.832 91.457 50.832C91.2695 50.832 91.125 50.793 91.0234 50.7148C90.9141 50.6367 90.832 50.4766 90.7773 50.2344C90.7305 49.9922 90.707 49.7227 90.707 49.4258C90.707 49.2695 90.7109 49.1172 90.7188 48.9688C90.7344 48.8125 90.7578 48.6562 90.7891 48.5C90.8438 48.1797 90.9219 47.8516 91.0234 47.5156C91.125 47.1797 91.2227 46.8594 91.3164 46.5547C91.418 46.2422 91.5039 45.9609 91.5742 45.7109C91.6445 45.4531 91.6836 45.2461 91.6914 45.0898C91.1914 45.2461 90.7461 45.5 90.3555 45.8516C89.9648 46.2031 89.6641 46.5977 89.4531 47.0352C89.1953 47.5586 88.9766 48.1055 88.7969 48.6758C88.625 49.2383 88.4375 49.8008 88.2344 50.3633L87.1797 50.0938C87.2812 49.9375 87.3906 49.7383 87.5078 49.4961C87.625 49.2461 87.7383 48.9727 87.8477 48.6758C87.9648 48.3789 88.0781 48.0703 88.1875 47.75C88.2969 47.4297 88.3945 47.1211 88.4805 46.8242C88.5664 46.5273 88.6328 46.25 88.6797 45.9922C88.7344 45.7344 88.7656 45.5195 88.7734 45.3477L88.75 45.3125ZM94.6445 50.0586C94.5039 50.0039 94.3945 49.9023 94.3164 49.7539C94.2383 49.6055 94.1992 49.4609 94.1992 49.3203C94.1992 49.2109 94.2227 49.1211 94.2695 49.0508C94.3008 49.0039 94.3477 48.957 94.4102 48.9102C94.4727 48.8555 94.5391 48.8086 94.6094 48.7695C94.6875 48.7305 94.7656 48.6992 94.8438 48.6758C94.9297 48.6445 95.0078 48.6289 95.0781 48.6289C95.1875 48.6289 95.2656 48.6719 95.3125 48.7578C95.375 48.8438 95.418 48.9453 95.4414 49.0625C95.4727 49.1797 95.4883 49.293 95.4883 49.4023C95.4883 49.4648 95.4844 49.5234 95.4766 49.5781C95.4688 49.625 95.4531 49.668 95.4297 49.707C95.3906 49.793 95.3203 49.8828 95.2188 49.9766C95.1172 50.0625 94.9961 50.1055 94.8555 50.1055C94.7773 50.1055 94.707 50.0898 94.6445 50.0586ZM96.7656 50.0586C96.625 50.0039 96.5156 49.9023 96.4375 49.7539C96.3594 49.6055 96.3203 49.4609 96.3203 49.3203C96.3203 49.2109 96.3438 49.1211 96.3906 49.0508C96.4219 49.0039 96.4688 48.957 96.5312 48.9102C96.5938 48.8555 96.6602 48.8086 96.7305 48.7695C96.8086 48.7305 96.8867 48.6992 96.9648 48.6758C97.0508 48.6445 97.1289 48.6289 97.1992 48.6289C97.3086 48.6289 97.3867 48.6719 97.4336 48.7578C97.4961 48.8438 97.5391 48.9453 97.5625 49.0625C97.5938 49.1797 97.6094 49.293 97.6094 49.4023C97.6094 49.4648 97.6055 49.5234 97.5977 49.5781C97.5898 49.625 97.5742 49.668 97.5508 49.707C97.5117 49.793 97.4414 49.8828 97.3398 49.9766C97.2383 50.0625 97.1172 50.1055 96.9766 50.1055C96.8984 50.1055 96.8281 50.0898 96.7656 50.0586ZM98.8867 50.0586C98.7461 50.0039 98.6367 49.9023 98.5586 49.7539C98.4805 49.6055 98.4414 49.4609 98.4414 49.3203C98.4414 49.2109 98.4648 49.1211 98.5117 49.0508C98.543 49.0039 98.5898 48.957 98.6523 48.9102C98.7148 48.8555 98.7812 48.8086 98.8516 48.7695C98.9297 48.7305 99.0078 48.6992 99.0859 48.6758C99.1719 48.6445 99.25 48.6289 99.3203 48.6289C99.4297 48.6289 99.5078 48.6719 99.5547 48.7578C99.6172 48.8438 99.6602 48.9453 99.6836 49.0625C99.7148 49.1797 99.7305 49.293 99.7305 49.4023C99.7305 49.4648 99.7266 49.5234 99.7188 49.5781C99.7109 49.625 99.6953 49.668 99.6719 49.707C99.6328 49.793 99.5625 49.8828 99.4609 49.9766C99.3594 50.0625 99.2383 50.1055 99.0977 50.1055C99.0195 50.1055 98.9492 50.0898 98.8867 50.0586Z" fill="#00C0FD"/>
<path d="M84.4506 1.688C85.2066 1.688 85.8666 1.868 86.4306 2.228C86.9946 2.588 87.4566 3.062 87.8166 3.65C88.1766 4.238 88.4286 4.91 88.5726 5.666C88.7286 6.41 88.7706 7.178 88.6986 7.97C88.6266 8.75 88.4406 9.518 88.1406 10.274C87.8526 11.018 87.4386 11.684 86.8986 12.272C86.3706 12.86 85.7226 13.334 84.9546 13.694C84.1986 14.054 83.3106 14.234 82.2906 14.234C81.9426 14.234 81.6726 14.24 81.4806 14.252C81.2886 14.276 81.0786 14.282 80.8506 14.27C80.7426 14.258 80.6766 14.18 80.6526 14.036C80.6286 13.904 80.6526 13.754 80.7246 13.586C80.7966 13.406 80.9166 13.238 81.0846 13.082C81.2526 12.914 81.4746 12.806 81.7506 12.758C81.7746 12.41 81.7926 11.978 81.8046 11.462C81.8286 10.934 81.8466 10.37 81.8586 9.77C81.8826 9.17 81.9006 8.552 81.9126 7.916C81.9246 7.28 81.9306 6.674 81.9306 6.098C81.9306 5.522 81.9246 5.006 81.9126 4.55C81.9126 4.082 81.9066 3.71 81.8946 3.434C81.8466 3.446 81.7926 3.452 81.7326 3.452C81.6006 3.464 81.4626 3.428 81.3186 3.344C81.1866 3.248 81.0666 3.134 80.9586 3.002C80.8626 2.858 80.7846 2.708 80.7246 2.552C80.6766 2.384 80.6586 2.234 80.6706 2.102C80.6826 1.958 80.7366 1.85 80.8326 1.778C80.9286 1.694 81.0846 1.664 81.3006 1.688C81.3966 1.7 81.5886 1.706 81.8766 1.706C82.1766 1.706 82.4946 1.706 82.8306 1.706C83.1666 1.694 83.4846 1.688 83.7846 1.688C84.0966 1.676 84.3186 1.676 84.4506 1.688ZM83.4606 12.542C84.1206 12.374 84.6786 12.116 85.1346 11.768C85.6026 11.42 85.9806 11.018 86.2686 10.562C86.5686 10.106 86.7846 9.614 86.9166 9.086C87.0606 8.558 87.1266 8.03 87.1146 7.502C87.1146 6.974 87.0486 6.47 86.9166 5.99C86.7846 5.498 86.5926 5.066 86.3406 4.694C86.1006 4.31 85.8066 4.004 85.4586 3.776C85.1226 3.536 84.7446 3.41 84.3246 3.398H83.8926C83.8326 3.866 83.7726 4.508 83.7126 5.324C83.6646 6.128 83.6166 6.98 83.5686 7.88C83.5326 8.768 83.5026 9.632 83.4786 10.472C83.4546 11.312 83.4486 12.002 83.4606 12.542ZM93.832 11.12C93.868 10.976 93.964 10.862 94.12 10.778C94.288 10.694 94.456 10.646 94.624 10.634C94.792 10.61 94.942 10.634 95.074 10.706C95.218 10.766 95.29 10.874 95.29 11.03C95.302 11.462 95.206 11.864 95.002 12.236C94.81 12.608 94.558 12.926 94.246 13.19C93.946 13.454 93.61 13.658 93.238 13.802C92.878 13.946 92.53 14.012 92.194 14C91.486 13.988 90.916 13.784 90.484 13.388C90.064 12.992 89.764 12.506 89.584 11.93C89.416 11.354 89.368 10.73 89.44 10.058C89.5 9.386 89.674 8.774 89.962 8.222C90.25 7.67 90.64 7.22 91.132 6.872C91.624 6.524 92.212 6.38 92.896 6.44C93.4 6.488 93.796 6.674 94.084 6.998C94.372 7.31 94.552 7.688 94.624 8.132C94.708 8.576 94.69 9.038 94.57 9.518C94.462 9.998 94.252 10.418 93.94 10.778C93.628 11.126 93.226 11.384 92.734 11.552C92.242 11.708 91.66 11.684 90.988 11.48C91.036 11.96 91.204 12.302 91.492 12.506C91.78 12.71 92.086 12.788 92.41 12.74C92.746 12.692 93.052 12.53 93.328 12.254C93.616 11.978 93.784 11.6 93.832 11.12ZM92.824 8.456C92.608 8.408 92.404 8.432 92.212 8.528C92.032 8.612 91.87 8.744 91.726 8.924C91.582 9.092 91.456 9.296 91.348 9.536C91.24 9.764 91.156 9.992 91.096 10.22C91.588 10.436 92.008 10.484 92.356 10.364C92.704 10.232 92.956 10.034 93.112 9.77C93.28 9.506 93.34 9.242 93.292 8.978C93.256 8.702 93.1 8.528 92.824 8.456ZM97.7606 8.87C97.7246 9.026 97.7846 9.128 97.9406 9.176C98.1086 9.224 98.3186 9.26 98.5706 9.284C98.8346 9.296 99.1226 9.314 99.4346 9.338C99.7466 9.362 100.035 9.434 100.299 9.554C100.563 9.674 100.779 9.866 100.947 10.13C101.127 10.382 101.211 10.748 101.199 11.228C101.175 11.876 101.031 12.41 100.767 12.83C100.515 13.238 100.203 13.538 99.8306 13.73C99.4586 13.922 99.0506 14.012 98.6066 14C98.1746 13.976 97.7726 13.856 97.4006 13.64C97.0406 13.412 96.7406 13.088 96.5006 12.668C96.2606 12.248 96.1406 11.732 96.1406 11.12C96.1646 10.892 96.2546 10.748 96.4106 10.688C96.5786 10.616 96.7586 10.592 96.9506 10.616C97.1426 10.64 97.3166 10.7 97.4726 10.796C97.6286 10.892 97.7126 10.988 97.7246 11.084C97.7006 11.672 97.7906 12.104 97.9946 12.38C98.1986 12.656 98.4266 12.8 98.6786 12.812C98.9306 12.812 99.1646 12.698 99.3806 12.47C99.6086 12.23 99.7226 11.894 99.7226 11.462C99.7346 11.198 99.6506 11.018 99.4706 10.922C99.2906 10.826 99.0686 10.766 98.8046 10.742C98.5406 10.706 98.2526 10.682 97.9406 10.67C97.6406 10.658 97.3586 10.604 97.0946 10.508C96.8306 10.4 96.6086 10.232 96.4286 10.004C96.2606 9.764 96.1826 9.404 96.1946 8.924C96.2066 8.468 96.2966 8.084 96.4646 7.772C96.6326 7.448 96.8486 7.19 97.1126 6.998C97.3886 6.794 97.6886 6.65 98.0126 6.566C98.3486 6.47 98.6786 6.416 99.0026 6.404C99.3386 6.38 99.6506 6.392 99.9386 6.44C100.239 6.476 100.485 6.53 100.677 6.602C100.905 6.698 101.067 6.872 101.163 7.124C101.259 7.376 101.295 7.634 101.271 7.898C101.259 8.162 101.205 8.39 101.109 8.582C101.013 8.774 100.893 8.852 100.749 8.816C100.545 8.768 100.281 8.708 99.9566 8.636C99.6326 8.564 99.3146 8.516 99.0026 8.492C98.6906 8.456 98.4146 8.462 98.1746 8.51C97.9346 8.558 97.7966 8.678 97.7606 8.87ZM107.336 13.406C107.372 13.574 107.294 13.712 107.102 13.82C106.922 13.928 106.712 13.988 106.472 14C106.244 14.012 106.028 13.976 105.824 13.892C105.62 13.796 105.512 13.64 105.5 13.424C105.212 13.712 104.864 13.892 104.456 13.964C104.06 14.036 103.682 14 103.322 13.856C102.962 13.7 102.655 13.436 102.404 13.064C102.151 12.692 102.025 12.2 102.025 11.588C102.025 10.952 102.157 10.436 102.422 10.04C102.698 9.644 103.028 9.362 103.412 9.194C103.796 9.014 104.198 8.942 104.618 8.978C105.038 9.002 105.398 9.116 105.698 9.32V9.122C105.686 8.894 105.572 8.738 105.356 8.654C105.152 8.558 104.906 8.51 104.618 8.51C104.33 8.51 104.024 8.54 103.7 8.6C103.388 8.66 103.118 8.72 102.89 8.78C102.746 8.816 102.62 8.738 102.512 8.546C102.416 8.354 102.362 8.126 102.35 7.862C102.338 7.598 102.374 7.34 102.458 7.088C102.554 6.824 102.722 6.65 102.962 6.566C103.154 6.506 103.394 6.458 103.682 6.422C103.97 6.374 104.27 6.362 104.582 6.386C104.906 6.41 105.224 6.47 105.536 6.566C105.86 6.65 106.148 6.794 106.4 6.998C106.664 7.19 106.874 7.442 107.03 7.754C107.198 8.054 107.288 8.432 107.3 8.888C107.312 9.404 107.312 9.878 107.3 10.31C107.288 10.742 107.276 11.144 107.264 11.516C107.252 11.888 107.246 12.23 107.246 12.542C107.246 12.854 107.276 13.142 107.336 13.406ZM103.448 11.624C103.448 11.972 103.532 12.254 103.7 12.47C103.88 12.674 104.084 12.812 104.312 12.884C104.552 12.944 104.792 12.926 105.032 12.83C105.284 12.734 105.476 12.554 105.608 12.29C105.632 12.038 105.65 11.786 105.662 11.534C105.674 11.282 105.686 11.036 105.698 10.796C105.59 10.496 105.416 10.292 105.176 10.184C104.936 10.076 104.69 10.064 104.438 10.148C104.186 10.22 103.958 10.382 103.754 10.634C103.562 10.886 103.46 11.216 103.448 11.624ZM121.895 2.246C122.063 3.902 122.087 5.456 121.967 6.908C121.847 8.36 121.619 9.632 121.283 10.724C120.947 11.816 120.515 12.674 119.987 13.298C119.471 13.922 118.895 14.234 118.259 14.234C117.947 14.246 117.641 14.156 117.341 13.964C117.041 13.772 116.777 13.46 116.549 13.028C116.261 13.412 115.955 13.712 115.631 13.928C115.307 14.132 114.959 14.234 114.587 14.234C114.131 14.246 113.699 14.054 113.291 13.658C112.895 13.25 112.583 12.578 112.355 11.642C112.139 10.706 112.037 9.482 112.049 7.97C112.073 6.458 112.271 4.604 112.643 2.408C112.691 2.096 112.823 1.892 113.039 1.796C113.255 1.688 113.483 1.652 113.723 1.688C113.975 1.712 114.209 1.79 114.425 1.922C114.641 2.054 114.785 2.204 114.857 2.372C114.461 3.968 114.179 5.384 114.011 6.62C113.855 7.844 113.783 8.888 113.795 9.752C113.807 10.604 113.885 11.282 114.029 11.786C114.173 12.278 114.353 12.59 114.569 12.722C114.785 12.854 115.019 12.806 115.271 12.578C115.523 12.35 115.757 11.942 115.973 11.354C115.877 10.886 115.793 10.43 115.721 9.986C115.649 9.542 115.601 9.092 115.577 8.636C115.565 8.18 115.589 7.7 115.649 7.196C115.721 6.692 115.853 6.146 116.045 5.558C116.129 5.306 116.261 5.15 116.441 5.09C116.633 5.018 116.825 5.006 117.017 5.054C117.209 5.09 117.383 5.162 117.539 5.27C117.695 5.366 117.785 5.444 117.809 5.504C117.977 5.876 118.073 6.326 118.097 6.854C118.121 7.37 118.103 7.898 118.043 8.438C117.983 8.978 117.887 9.506 117.755 10.022C117.623 10.526 117.485 10.946 117.341 11.282C117.473 11.894 117.647 12.326 117.863 12.578C118.091 12.818 118.325 12.878 118.565 12.758C118.805 12.626 119.039 12.314 119.267 11.822C119.495 11.33 119.681 10.658 119.825 9.806C119.969 8.954 120.047 7.928 120.059 6.728C120.083 5.516 120.011 4.124 119.843 2.552C119.843 2.42 119.939 2.276 120.131 2.12C120.335 1.964 120.563 1.85 120.815 1.778C121.067 1.694 121.301 1.682 121.517 1.742C121.733 1.79 121.859 1.958 121.895 2.246ZM122.859 7.7C122.835 7.484 122.931 7.304 123.147 7.16C123.375 7.004 123.621 6.914 123.885 6.89C124.149 6.866 124.383 6.926 124.587 7.07C124.791 7.202 124.869 7.436 124.821 7.772C124.773 8.12 124.719 8.528 124.659 8.996C124.611 9.452 124.575 9.932 124.551 10.436C124.527 10.94 124.515 11.45 124.515 11.966C124.515 12.47 124.545 12.938 124.605 13.37C124.629 13.55 124.545 13.7 124.353 13.82C124.161 13.928 123.945 13.988 123.705 14C123.477 14.012 123.273 13.97 123.093 13.874C122.913 13.766 122.841 13.574 122.877 13.298C122.925 12.926 122.961 12.482 122.985 11.966C123.009 11.45 123.015 10.928 123.003 10.4C122.991 9.86 122.973 9.35 122.949 8.87C122.925 8.39 122.895 8 122.859 7.7ZM123.921 6.656C123.609 6.656 123.375 6.602 123.219 6.494C123.063 6.386 122.985 6.266 122.985 6.134C122.985 6.002 123.063 5.882 123.219 5.774C123.387 5.666 123.639 5.612 123.975 5.612C124.239 5.612 124.449 5.666 124.605 5.774C124.761 5.882 124.839 6.002 124.839 6.134C124.851 6.266 124.779 6.386 124.623 6.494C124.479 6.602 124.245 6.656 123.921 6.656ZM127.468 8.87C127.432 9.026 127.492 9.128 127.648 9.176C127.816 9.224 128.026 9.26 128.278 9.284C128.542 9.296 128.83 9.314 129.142 9.338C129.454 9.362 129.742 9.434 130.006 9.554C130.27 9.674 130.486 9.866 130.654 10.13C130.834 10.382 130.918 10.748 130.906 11.228C130.882 11.876 130.738 12.41 130.474 12.83C130.222 13.238 129.91 13.538 129.538 13.73C129.166 13.922 128.758 14.012 128.314 14C127.882 13.976 127.48 13.856 127.108 13.64C126.748 13.412 126.448 13.088 126.208 12.668C125.968 12.248 125.848 11.732 125.848 11.12C125.872 10.892 125.962 10.748 126.118 10.688C126.286 10.616 126.466 10.592 126.658 10.616C126.85 10.64 127.024 10.7 127.18 10.796C127.336 10.892 127.42 10.988 127.432 11.084C127.408 11.672 127.498 12.104 127.702 12.38C127.906 12.656 128.134 12.8 128.386 12.812C128.638 12.812 128.872 12.698 129.088 12.47C129.316 12.23 129.43 11.894 129.43 11.462C129.442 11.198 129.358 11.018 129.178 10.922C128.998 10.826 128.776 10.766 128.512 10.742C128.248 10.706 127.96 10.682 127.648 10.67C127.348 10.658 127.066 10.604 126.802 10.508C126.538 10.4 126.316 10.232 126.136 10.004C125.968 9.764 125.89 9.404 125.902 8.924C125.914 8.468 126.004 8.084 126.172 7.772C126.34 7.448 126.556 7.19 126.82 6.998C127.096 6.794 127.396 6.65 127.72 6.566C128.056 6.47 128.386 6.416 128.71 6.404C129.046 6.38 129.358 6.392 129.646 6.44C129.946 6.476 130.192 6.53 130.384 6.602C130.612 6.698 130.774 6.872 130.87 7.124C130.966 7.376 131.002 7.634 130.978 7.898C130.966 8.162 130.912 8.39 130.816 8.582C130.72 8.774 130.6 8.852 130.456 8.816C130.252 8.768 129.988 8.708 129.664 8.636C129.34 8.564 129.022 8.516 128.71 8.492C128.398 8.456 128.122 8.462 127.882 8.51C127.642 8.558 127.504 8.678 127.468 8.87ZM137.043 13.406C137.079 13.574 137.001 13.712 136.809 13.82C136.629 13.928 136.419 13.988 136.179 14C135.951 14.012 135.735 13.976 135.531 13.892C135.327 13.796 135.219 13.64 135.207 13.424C134.919 13.712 134.571 13.892 134.163 13.964C133.767 14.036 133.389 14 133.029 13.856C132.669 13.7 132.363 13.436 132.111 13.064C131.859 12.692 131.733 12.2 131.733 11.588C131.733 10.952 131.865 10.436 132.129 10.04C132.405 9.644 132.735 9.362 133.119 9.194C133.503 9.014 133.905 8.942 134.325 8.978C134.745 9.002 135.105 9.116 135.405 9.32V9.122C135.393 8.894 135.279 8.738 135.063 8.654C134.859 8.558 134.613 8.51 134.325 8.51C134.037 8.51 133.731 8.54 133.407 8.6C133.095 8.66 132.825 8.72 132.597 8.78C132.453 8.816 132.327 8.738 132.219 8.546C132.123 8.354 132.069 8.126 132.057 7.862C132.045 7.598 132.081 7.34 132.165 7.088C132.261 6.824 132.429 6.65 132.669 6.566C132.861 6.506 133.101 6.458 133.389 6.422C133.677 6.374 133.977 6.362 134.289 6.386C134.613 6.41 134.931 6.47 135.243 6.566C135.567 6.65 135.855 6.794 136.107 6.998C136.371 7.19 136.581 7.442 136.737 7.754C136.905 8.054 136.995 8.432 137.007 8.888C137.019 9.404 137.019 9.878 137.007 10.31C136.995 10.742 136.983 11.144 136.971 11.516C136.959 11.888 136.953 12.23 136.953 12.542C136.953 12.854 136.983 13.142 137.043 13.406ZM133.155 11.624C133.155 11.972 133.239 12.254 133.407 12.47C133.587 12.674 133.791 12.812 134.019 12.884C134.259 12.944 134.499 12.926 134.739 12.83C134.991 12.734 135.183 12.554 135.315 12.29C135.339 12.038 135.357 11.786 135.369 11.534C135.381 11.282 135.393 11.036 135.405 10.796C135.297 10.496 135.123 10.292 134.883 10.184C134.643 10.076 134.397 10.064 134.145 10.148C133.893 10.22 133.665 10.382 133.461 10.634C133.269 10.886 133.167 11.216 133.155 11.624ZM138.298 3.218C138.274 3.038 138.352 2.93 138.532 2.894C138.724 2.846 138.934 2.87 139.162 2.966C139.402 3.05 139.618 3.212 139.81 3.452C140.014 3.68 140.128 3.986 140.152 4.37H140.782C141.01 4.37 141.136 4.454 141.16 4.622C141.184 4.778 141.148 4.952 141.052 5.144C140.968 5.336 140.848 5.516 140.692 5.684C140.548 5.84 140.422 5.918 140.314 5.918H140.116C140.056 6.794 140.008 7.628 139.972 8.42C139.948 9.2 139.93 9.92 139.918 10.58C139.906 11.24 139.906 11.834 139.918 12.362C139.93 12.878 139.948 13.304 139.972 13.64C139.996 13.964 139.906 14.192 139.702 14.324C139.51 14.468 139.288 14.54 139.036 14.54C138.796 14.54 138.574 14.486 138.37 14.378C138.166 14.27 138.076 14.132 138.1 13.964C138.148 13.676 138.19 13.244 138.226 12.668C138.262 12.092 138.292 11.438 138.316 10.706C138.34 9.974 138.358 9.194 138.37 8.366C138.382 7.538 138.388 6.728 138.388 5.936C138.364 5.96 138.334 5.972 138.298 5.972C138.274 5.96 138.202 5.942 138.082 5.918C137.938 5.894 137.812 5.804 137.704 5.648C137.596 5.492 137.524 5.324 137.488 5.144C137.44 4.964 137.44 4.802 137.488 4.658C137.536 4.502 137.65 4.418 137.83 4.406C138.01 4.394 138.124 4.388 138.172 4.388C138.22 4.376 138.268 4.37 138.316 4.37C138.316 4.322 138.31 4.25 138.298 4.154C138.298 4.046 138.298 3.932 138.298 3.812C138.298 3.692 138.298 3.578 138.298 3.47C138.298 3.362 138.298 3.278 138.298 3.218ZM146.236 13.406C146.272 13.574 146.194 13.712 146.002 13.82C145.822 13.928 145.612 13.988 145.372 14C145.144 14.012 144.928 13.976 144.724 13.892C144.52 13.796 144.412 13.64 144.4 13.424C144.112 13.712 143.764 13.892 143.356 13.964C142.96 14.036 142.582 14 142.222 13.856C141.862 13.7 141.556 13.436 141.304 13.064C141.052 12.692 140.926 12.2 140.926 11.588C140.926 10.952 141.058 10.436 141.322 10.04C141.598 9.644 141.928 9.362 142.312 9.194C142.696 9.014 143.098 8.942 143.518 8.978C143.938 9.002 144.298 9.116 144.598 9.32V9.122C144.586 8.894 144.472 8.738 144.256 8.654C144.052 8.558 143.806 8.51 143.518 8.51C143.23 8.51 142.924 8.54 142.6 8.6C142.288 8.66 142.018 8.72 141.79 8.78C141.646 8.816 141.52 8.738 141.412 8.546C141.316 8.354 141.262 8.126 141.25 7.862C141.238 7.598 141.274 7.34 141.358 7.088C141.454 6.824 141.622 6.65 141.862 6.566C142.054 6.506 142.294 6.458 142.582 6.422C142.87 6.374 143.17 6.362 143.482 6.386C143.806 6.41 144.124 6.47 144.436 6.566C144.76 6.65 145.048 6.794 145.3 6.998C145.564 7.19 145.774 7.442 145.93 7.754C146.098 8.054 146.188 8.432 146.2 8.888C146.212 9.404 146.212 9.878 146.2 10.31C146.188 10.742 146.176 11.144 146.164 11.516C146.152 11.888 146.146 12.23 146.146 12.542C146.146 12.854 146.176 13.142 146.236 13.406ZM142.348 11.624C142.348 11.972 142.432 12.254 142.6 12.47C142.78 12.674 142.984 12.812 143.212 12.884C143.452 12.944 143.692 12.926 143.932 12.83C144.184 12.734 144.376 12.554 144.508 12.29C144.532 12.038 144.55 11.786 144.562 11.534C144.574 11.282 144.586 11.036 144.598 10.796C144.49 10.496 144.316 10.292 144.076 10.184C143.836 10.076 143.59 10.064 143.338 10.148C143.086 10.22 142.858 10.382 142.654 10.634C142.462 10.886 142.36 11.216 142.348 11.624Z" fill="#B4130D"/>
<path d="M44.808 40.84C41.672 40.584 39.208 39.288 37.416 36.952C35.624 34.584 34.392 31.464 33.72 27.592C33.464 26.216 33.288 24.808 33.192 23.368C33.128 21.928 33.08 20.504 33.048 19.096C33.016 17.656 33 16.248 33 14.872C33 13.464 32.984 12.104 32.952 10.792C31.992 10.92 31.16 11.592 30.456 12.808C29.752 13.992 29.144 15.464 28.632 17.224C28.152 18.952 27.752 20.84 27.432 22.888C27.112 24.904 26.824 26.824 26.568 28.648C26.344 30.44 26.152 32.008 25.992 33.352C25.832 34.664 25.672 35.464 25.512 35.752C25.32 36.2 25 36.552 24.552 36.808C24.104 37.064 23.608 37.208 23.064 37.24C22.552 37.304 22.024 37.256 21.48 37.096C20.968 36.968 20.552 36.728 20.232 36.376C19.464 35.544 18.872 34.44 18.456 33.064C18.04 31.656 17.8 30.248 17.736 28.84C17.608 25.448 17.352 21.992 16.968 18.472C16.616 14.92 16.072 11.512 15.336 8.248C15.112 8.408 14.872 8.584 14.616 8.776C14.392 8.936 14.152 9.192 13.896 9.544C13.672 9.864 13.416 10.296 13.128 10.84C12.872 11.384 12.6 12.088 12.312 12.952C12.088 13.624 11.88 14.552 11.688 15.736C11.496 16.92 11.32 18.232 11.16 19.672C11.032 21.112 10.904 22.616 10.776 24.184C10.68 25.752 10.584 27.256 10.488 28.696C10.424 30.104 10.36 31.384 10.296 32.536C10.264 33.656 10.232 34.52 10.2 35.128C10.168 35.608 9.912 36.008 9.432 36.328C8.984 36.616 8.456 36.776 7.848 36.808C7.24 36.84 6.632 36.728 6.024 36.472C5.416 36.216 4.968 35.784 4.68 35.176C4.232 34.28 3.944 33.288 3.816 32.2C3.688 31.08 3.64 29.944 3.672 28.792C3.736 27.64 3.848 26.504 4.008 25.384C4.2 24.264 4.376 23.208 4.536 22.216C4.664 21.352 4.856 20.248 5.112 18.904C5.368 17.528 5.688 16.104 6.072 14.632C6.488 13.128 6.984 11.656 7.56 10.216C8.136 8.776 8.824 7.544 9.624 6.52C10.424 5.464 11.352 4.712 12.408 4.264C13.496 3.816 14.712 3.832 16.056 4.312C16.92 4.632 17.656 5.336 18.264 6.424C18.872 7.512 19.368 8.824 19.752 10.36C20.136 11.896 20.424 13.576 20.616 15.4C20.84 17.192 21 18.952 21.096 20.68C21.192 22.408 21.24 24.008 21.24 25.48C21.272 26.952 21.304 28.12 21.336 28.984C21.592 28.312 21.88 27.4 22.2 26.248C22.552 25.064 22.936 23.768 23.352 22.36C23.8 20.92 24.28 19.448 24.792 17.944C25.336 16.408 25.928 14.952 26.568 13.576C27.208 12.168 27.896 10.904 28.632 9.784C29.368 8.664 30.152 7.816 30.984 7.24C31.816 6.664 32.696 6.424 33.624 6.52C34.584 6.584 35.592 7.112 36.648 8.104C37.352 8.776 37.928 9.864 38.376 11.368C38.856 12.84 39.256 14.52 39.576 16.408C39.928 18.296 40.232 20.28 40.488 22.36C40.744 24.44 41 26.392 41.256 28.216C41.544 30.04 41.848 31.64 42.168 33.016C42.488 34.36 42.904 35.272 43.416 35.752C44.184 36.52 44.92 37 45.624 37.192C46.328 37.416 46.952 37.544 47.496 37.576C48.04 37.608 48.504 37.624 48.888 37.624C49.304 37.624 49.592 37.8 49.752 38.152C49.88 38.44 49.832 38.744 49.608 39.064C49.416 39.416 49.096 39.72 48.648 39.976C48.2 40.264 47.64 40.488 46.968 40.648C46.296 40.84 45.576 40.904 44.808 40.84Z" fill="#FF5C00"/>
<path d="M46.1768 18.664C46.6248 17.8 47.2168 17.048 47.9528 16.408C48.6888 15.768 49.4888 15.256 50.3528 14.872C51.2488 14.456 52.1768 14.152 53.1368 13.96C54.1288 13.768 55.0888 13.672 56.0168 13.672C56.9768 13.736 57.7928 14.056 58.4648 14.632C59.1688 15.176 59.6648 15.896 59.9528 16.792C60.2408 17.656 60.2888 18.632 60.0968 19.72C59.9368 20.808 59.4728 21.912 58.7048 23.032C57.8728 24.248 56.9768 25.16 56.0168 25.768C55.0888 26.376 54.2248 26.808 53.4248 27.064C52.4968 27.384 51.5848 27.528 50.6888 27.496C50.6568 28.712 50.7848 29.752 51.0728 30.616C51.2008 31 51.3448 31.368 51.5048 31.72C51.6968 32.04 51.9368 32.328 52.2248 32.584C52.5128 32.84 52.8648 33.032 53.2808 33.16C53.6968 33.256 54.1768 33.256 54.7208 33.16C55.8728 32.968 56.8008 32.552 57.5048 31.912C58.2408 31.24 58.8488 30.568 59.3288 29.896C59.8088 29.224 60.1928 28.648 60.4808 28.168C60.8008 27.656 61.1048 27.464 61.3928 27.592C61.7448 27.752 61.9208 28.152 61.9208 28.792C61.9528 29.432 61.8088 30.184 61.4888 31.048C61.1688 31.912 60.6888 32.808 60.0488 33.736C59.4408 34.632 58.6568 35.4 57.6968 36.04C56.7368 36.68 55.6328 37.112 54.3848 37.336C53.1368 37.592 51.7448 37.48 50.2088 37C48.9608 36.616 47.9208 36.008 47.0888 35.176C46.2568 34.344 45.6008 33.384 45.1208 32.296C44.6408 31.208 44.3208 30.04 44.1608 28.792C44.0008 27.544 43.9688 26.312 44.0648 25.096C44.1928 23.848 44.4328 22.664 44.7848 21.544C45.1688 20.424 45.6328 19.464 46.1768 18.664ZM50.6408 23.896C51.0568 23.832 51.5208 23.704 52.0328 23.512C52.4808 23.352 52.9608 23.112 53.4728 22.792C54.0168 22.472 54.5928 22.024 55.2008 21.448C55.7768 20.904 56.1608 20.376 56.3528 19.864C56.5768 19.352 56.7048 18.92 56.7368 18.568C56.7688 18.152 56.7048 17.768 56.5448 17.416C56.0968 17.288 55.6168 17.288 55.1048 17.416C54.6568 17.544 54.1608 17.8 53.6168 18.184C53.0728 18.568 52.5128 19.176 51.9368 20.008C51.4888 20.648 51.1688 21.224 50.9768 21.736C50.7848 22.216 50.6568 22.616 50.5928 22.936C50.5288 23.32 50.5448 23.64 50.6408 23.896Z" fill="#E1CD15"/>
<path d="M78.1324 7.96C78.0044 9.4 77.7804 10.776 77.4604 12.088C77.1404 13.4 76.7564 14.648 76.3084 15.832C75.8924 17.016 75.4284 18.136 74.9164 19.192C74.4044 20.248 73.8924 21.208 73.3804 22.072C72.1644 24.12 70.8204 25.976 69.3484 27.64C69.3484 27.864 69.3964 28.152 69.4924 28.504C69.5564 28.824 69.6844 29.224 69.8764 29.704C70.0684 30.152 70.3724 30.696 70.7884 31.336C71.6204 32.68 72.5324 33.528 73.5244 33.88C74.5484 34.2 75.5244 34.232 76.4524 33.976C77.4124 33.688 78.2444 33.208 78.9484 32.536C79.6524 31.832 80.1324 31.128 80.3884 30.424C80.6444 29.688 80.9004 29.208 81.1564 28.984C81.4124 28.76 81.6364 28.712 81.8284 28.84C82.0524 28.936 82.2124 29.16 82.3084 29.512C82.4364 29.864 82.4844 30.248 82.4524 30.664C81.9084 32.104 81.2204 33.368 80.3884 34.456C80.0364 34.936 79.6204 35.4 79.1404 35.848C78.6604 36.296 78.1324 36.696 77.5564 37.048C76.9804 37.4 76.3404 37.672 75.6364 37.864C74.9644 38.088 74.2284 38.184 73.4284 38.152C71.3804 38.12 69.6684 37.624 68.2924 36.664C66.9484 35.704 65.8604 34.472 65.0284 32.968C64.1964 31.464 63.6044 29.768 63.2524 27.88C62.9004 25.96 62.6924 24.024 62.6284 22.072C62.5964 20.12 62.6764 18.248 62.8684 16.456C63.0924 14.632 63.3484 13.048 63.6364 11.704C63.9564 10.296 64.3724 8.904 64.8844 7.528C65.4284 6.152 66.0844 4.936 66.8524 3.88C67.6524 2.824 68.5804 1.992 69.6364 1.384C70.7244 0.775998 71.9884 0.551998 73.4284 0.711998C74.4844 0.871998 75.3964 1.24 76.1644 1.816C76.8044 2.296 77.3484 3.032 77.7964 4.024C78.2444 4.984 78.3564 6.296 78.1324 7.96ZM68.8684 23.416C69.7004 22.04 70.4684 20.616 71.1724 19.144C71.7804 17.896 72.3724 16.536 72.9484 15.064C73.5244 13.56 73.9404 12.088 74.1964 10.648C74.3244 9.944 74.4364 9.224 74.5324 8.488C74.6604 7.752 74.7084 7.08 74.6764 6.472C74.6764 5.832 74.5644 5.304 74.3404 4.888C74.1164 4.44 73.7484 4.184 73.2364 4.12C72.5644 4.056 71.9564 4.296 71.4124 4.84C70.9004 5.352 70.4524 6.088 70.0684 7.048C69.7164 7.976 69.4284 9.096 69.2044 10.408C68.9804 11.688 68.8204 13.064 68.7244 14.536C68.6284 15.976 68.5964 17.464 68.6284 19C68.6604 20.536 68.7404 22.008 68.8684 23.416Z" fill="#12AE22"/>
<path d="M85.2379 18.376C85.2059 18.696 85.1739 19.24 85.1419 20.008C85.1099 20.776 85.0939 21.64 85.0939 22.6C85.0939 23.528 85.1259 24.504 85.1899 25.528C85.2539 26.552 85.3659 27.496 85.5259 28.36C85.6859 29.192 85.9259 29.88 86.2459 30.424C86.5659 30.968 86.9819 31.24 87.4939 31.24C88.2299 31.24 88.8539 30.968 89.3659 30.424C89.9099 29.88 90.3739 29.192 90.7579 28.36C91.1419 27.528 91.4459 26.6 91.6699 25.576C91.8939 24.52 92.0699 23.496 92.1979 22.504C92.3579 21.512 92.4539 20.584 92.4859 19.72C92.5499 18.856 92.5979 18.184 92.6299 17.704C92.6619 17.128 92.8219 16.712 93.1099 16.456C93.4299 16.2 93.8139 16.072 94.2619 16.072C94.7099 16.04 95.1899 16.12 95.7019 16.312C96.2139 16.504 96.6939 16.744 97.1419 17.032C97.5899 17.32 97.9579 17.656 98.2459 18.04C98.5339 18.392 98.6939 18.744 98.7259 19.096C98.7579 19.576 98.7419 20.28 98.6779 21.208C98.6139 22.104 98.5499 23.128 98.4859 24.28C98.4539 25.4 98.4379 26.568 98.4379 27.784C98.4379 28.968 98.5179 30.072 98.6779 31.096C98.8699 32.088 99.1419 32.952 99.4939 33.688C99.8779 34.392 100.406 34.824 101.078 34.984C101.686 35.144 102.102 35.352 102.326 35.608C102.55 35.864 102.566 36.12 102.374 36.376C102.214 36.6 101.862 36.776 101.318 36.904C100.806 37.032 100.102 37.016 99.2059 36.856C97.7339 36.6 96.5979 36.088 95.7979 35.32C94.9979 34.552 94.4059 33.752 94.0219 32.92C93.5739 31.96 93.3019 30.904 93.2059 29.752C92.7899 31.032 92.2459 32.136 91.5739 33.064C90.9979 33.896 90.2459 34.616 89.3179 35.224C88.4219 35.8 87.3179 35.992 86.0059 35.8C84.6939 35.608 83.6059 35.192 82.7419 34.552C81.9099 33.88 81.2219 33.08 80.6779 32.152C80.1659 31.224 79.7819 30.216 79.5259 29.128C79.2699 28.008 79.0939 26.888 78.9979 25.768C78.9019 24.872 78.8539 23.976 78.8539 23.08C78.8539 22.184 78.8859 21.352 78.9499 20.584C79.0139 19.816 79.1099 19.16 79.2379 18.616C79.3659 18.072 79.5099 17.72 79.6699 17.56C79.8619 17.4 80.2619 17.224 80.8699 17.032C81.4779 16.84 82.1019 16.744 82.7419 16.744C83.4139 16.712 84.0059 16.808 84.5179 17.032C85.0299 17.256 85.2699 17.704 85.2379 18.376Z" fill="#387C0C"/>
<path d="M103.544 19.48C103.736 19.16 104.008 18.872 104.36 18.616C104.744 18.328 105.128 18.088 105.512 17.896C105.928 17.672 106.328 17.512 106.712 17.416C107.128 17.288 107.464 17.224 107.72 17.224C107.848 17.224 107.944 17.352 108.008 17.608C108.104 17.864 108.184 18.2 108.248 18.616C108.344 19.032 108.408 19.512 108.44 20.056C108.472 20.568 108.504 21.096 108.536 21.64C108.6 22.92 108.616 24.376 108.584 26.008C109 25.176 109.448 24.36 109.928 23.56C110.344 22.888 110.824 22.2 111.368 21.496C111.912 20.76 112.472 20.136 113.048 19.624C113.592 19.144 114.184 18.776 114.824 18.52C115.496 18.264 116.168 18.168 116.84 18.232C117.512 18.264 118.152 18.504 118.76 18.952C119.4 19.4 119.96 20.072 120.44 20.968C120.76 21.576 121 22.344 121.16 23.272C121.32 24.168 121.432 25.128 121.496 26.152C121.592 27.144 121.672 28.152 121.736 29.176C121.832 30.2 121.976 31.144 122.168 32.008C122.392 32.872 122.68 33.608 123.032 34.216C123.416 34.824 123.96 35.208 124.664 35.368C125.24 35.528 125.8 35.544 126.344 35.416C126.92 35.256 127.448 35.064 127.928 34.84C128.44 34.584 128.872 34.376 129.224 34.216C129.608 34.024 129.88 33.976 130.04 34.072C130.168 34.2 130.088 34.552 129.8 35.128C129.544 35.704 129.096 36.296 128.456 36.904C127.848 37.512 127.064 38.024 126.104 38.44C125.176 38.888 124.104 39.032 122.888 38.872C120.488 38.552 118.76 37.32 117.704 35.176C116.648 33 116.04 30.168 115.88 26.68C115.816 25.432 115.656 24.504 115.4 23.896C115.176 23.288 114.872 22.968 114.488 22.936C114.104 22.904 113.656 23.128 113.144 23.608C112.664 24.056 112.136 24.712 111.56 25.576C110.888 26.568 110.392 27.56 110.072 28.552C109.752 29.544 109.528 30.472 109.4 31.336C109.304 32.2 109.24 32.968 109.208 33.64C109.176 34.312 109.096 34.808 108.968 35.128C108.808 35.48 108.472 35.72 107.96 35.848C107.448 35.976 106.888 36.04 106.28 36.04C105.704 36.04 105.128 35.976 104.552 35.848C104.008 35.72 103.624 35.56 103.4 35.368C103.272 35.24 103.16 34.792 103.064 34.024C103 33.224 102.952 32.28 102.92 31.192C102.888 30.072 102.872 28.888 102.872 27.64C102.904 26.36 102.936 25.16 102.968 24.04C103.032 22.888 103.112 21.896 103.208 21.064C103.304 20.232 103.416 19.704 103.544 19.48Z" fill="#08D4E1"/>
<path d="M146.771 31.48C147.475 31.192 148.019 31.064 148.403 31.096C148.787 31.128 149.027 31.256 149.123 31.48C149.219 31.672 149.171 31.928 148.979 32.248C148.819 32.568 148.547 32.872 148.163 33.16C147.843 33.384 147.443 33.688 146.963 34.072C146.515 34.456 146.035 34.872 145.523 35.32C145.043 35.736 144.563 36.152 144.083 36.568C143.635 36.984 143.251 37.32 142.931 37.576C143.155 39.08 143.283 40.6 143.315 42.136C143.347 43.704 143.251 45.192 143.027 46.6C142.803 48.04 142.435 49.352 141.923 50.536C141.411 51.752 140.723 52.744 139.859 53.512C138.643 54.6 137.411 55.224 136.163 55.384C134.915 55.544 133.811 55.336 132.851 54.76C131.891 54.184 131.139 53.288 130.595 52.072C130.051 50.888 129.891 49.48 130.115 47.848C130.371 46.184 130.883 44.712 131.651 43.432C132.451 42.152 133.283 41.08 134.147 40.216C135.171 39.192 136.275 38.312 137.459 37.576C137.427 37.32 137.363 36.968 137.267 36.52C137.203 36.136 137.091 35.656 136.931 35.08C136.771 34.472 136.563 33.704 136.307 32.776C136.147 32.232 135.939 31.72 135.683 31.24C135.459 30.728 135.235 30.296 135.011 29.944C134.723 29.528 134.451 29.16 134.195 28.84C133.683 29.416 133.155 29.928 132.611 30.376C132.163 30.76 131.667 31.112 131.123 31.432C130.579 31.72 130.067 31.864 129.587 31.864C129.075 31.864 128.499 31.592 127.859 31.048C127.219 30.504 126.643 29.784 126.131 28.888C125.651 27.992 125.267 26.968 124.979 25.816C124.723 24.664 124.691 23.48 124.883 22.264C125.107 21.048 125.395 20.072 125.747 19.336C126.099 18.6 126.483 18.024 126.899 17.608C127.315 17.16 127.763 16.84 128.243 16.648C128.723 16.456 129.203 16.312 129.683 16.216C130.387 16.088 131.219 16.184 132.179 16.504C133.171 16.824 134.099 17.24 134.963 17.752C135.859 18.232 136.611 18.744 137.219 19.288C137.859 19.8 138.163 20.2 138.131 20.488C138.099 20.776 137.747 20.888 137.075 20.824C136.435 20.728 135.683 20.616 134.819 20.488C133.987 20.36 133.155 20.296 132.323 20.296C131.523 20.296 130.963 20.552 130.643 21.064C130.323 21.576 130.067 22.184 129.875 22.888C129.683 23.592 129.555 24.296 129.491 25C129.459 25.704 129.507 26.36 129.635 26.968C129.763 27.544 130.003 27.976 130.355 28.264C130.547 28.424 130.803 28.376 131.123 28.12C131.475 27.832 131.875 27.496 132.323 27.112C132.771 26.696 133.267 26.312 133.811 25.96C134.355 25.576 134.931 25.352 135.539 25.288C136.179 25.192 136.835 25.352 137.507 25.768C138.179 26.152 138.867 26.92 139.571 28.072C139.987 28.744 140.419 29.528 140.867 30.424C141.347 31.288 141.763 32.536 142.115 34.168C142.947 33.656 143.731 33.176 144.467 32.728C145.203 32.248 145.971 31.832 146.771 31.48ZM136.883 49.096C137.075 48.552 137.187 47.848 137.219 46.984C137.283 46.152 137.315 45.32 137.315 44.488C137.283 43.528 137.235 42.52 137.171 41.464C136.499 42.04 135.907 42.648 135.395 43.288C134.947 43.832 134.547 44.472 134.195 45.208C133.875 45.944 133.747 46.728 133.811 47.56C133.875 48.36 134.051 48.936 134.339 49.288C134.627 49.672 134.931 49.88 135.251 49.912C135.603 49.976 135.923 49.912 136.211 49.72C136.531 49.56 136.755 49.352 136.883 49.096Z" fill="#0006A0"/>
</svg>
