<svg width="391" height="148" viewBox="0 0 391 148" fill="none" xmlns="http://www.w3.org/2000/svg">
<path d="M40.875 138.18C40.0469 138.477 39.3125 138.719 38.6719 138.906C38.0469 139.094 37.5 139.234 37.0312 139.328C36.5625 139.438 36.1641 139.508 35.8359 139.539C35.5078 139.586 35.2422 139.609 35.0391 139.609C34.8828 139.609 34.7578 139.602 34.6641 139.586C34.5859 139.586 34.5156 139.578 34.4531 139.562C34.3906 139.547 34.3359 139.531 34.2891 139.516C34.0547 139.375 33.8281 139.125 33.6094 138.766C33.3906 138.422 33.1875 138 33 137.5C32.8281 137.016 32.6875 136.477 32.5781 135.883C32.4688 135.273 32.4141 134.641 32.4141 133.984C32.4141 133.578 32.4375 133.188 32.4844 132.812C32.5312 132.344 32.6328 131.773 32.7891 131.102C32.9453 130.414 33.125 129.688 33.3281 128.922C33.5312 128.141 33.7422 127.344 33.9609 126.531C34.1797 125.719 34.3828 124.953 34.5703 124.234C34.7578 123.5 34.9062 122.844 35.0156 122.266C35.1406 121.688 35.2031 121.242 35.2031 120.93C35.2031 120.758 35.1797 120.633 35.1328 120.555C35.0547 120.414 34.875 120.344 34.5938 120.344C34.375 120.344 34.125 120.383 33.8438 120.461C33.5625 120.539 33.2656 120.648 32.9531 120.789C32.6406 120.914 32.3281 121.07 32.0156 121.258C31.7031 121.43 31.4141 121.617 31.1484 121.82C31.0234 122.273 30.7891 123.094 30.4453 124.281C30.3047 124.781 30.125 125.391 29.9062 126.109C29.6875 126.828 29.4297 127.672 29.1328 128.641C28.8516 129.609 28.5156 130.719 28.125 131.969C27.75 133.219 27.3281 134.633 26.8594 136.211L24.4219 135.719C24.6406 135.125 24.9141 134.398 25.2422 133.539C25.5703 132.68 25.9062 131.766 26.25 130.797C26.6094 129.828 26.9609 128.844 27.3047 127.844C27.6641 126.828 27.9844 125.883 28.2656 125.008C28.5469 124.133 28.7734 123.359 28.9453 122.688C29.1172 122.016 29.2031 121.523 29.2031 121.211C29.2031 121.086 29.1953 121.008 29.1797 120.977C29.1172 120.805 29.0156 120.688 28.875 120.625C28.7344 120.562 28.5703 120.531 28.3828 120.531C28.1484 120.531 27.8906 120.57 27.6094 120.648C27.3438 120.727 27.0781 120.828 26.8125 120.953C26.5625 121.062 26.3203 121.188 26.0859 121.328C25.8672 121.469 25.6953 121.594 25.5703 121.703C25.4453 121.812 25.2969 121.945 25.125 122.102C24.9688 122.258 24.7969 122.422 24.6094 122.594C24.4688 123.031 24.1953 123.805 23.7891 124.914C23.6172 125.398 23.4062 125.977 23.1562 126.648C22.9219 127.32 22.6406 128.125 22.3125 129.062C21.9844 129.984 21.6094 131.039 21.1875 132.227C20.7812 133.414 20.3125 134.766 19.7812 136.281L17.4141 135.391C18.0234 133.891 18.5625 132.555 19.0312 131.383C19.5156 130.211 19.9375 129.18 20.2969 128.289C20.6562 127.383 20.9609 126.609 21.2109 125.969C21.4609 125.328 21.6719 124.789 21.8438 124.352C22.25 123.32 22.5 122.641 22.5938 122.312C22.6719 122.047 22.7422 121.758 22.8047 121.445C22.8828 121.133 22.9219 120.852 22.9219 120.602C22.9219 120.352 22.875 120.148 22.7812 119.992C22.7031 119.82 22.5625 119.727 22.3594 119.711C22.3281 119.711 22.2422 119.734 22.1016 119.781C21.9766 119.828 21.7734 119.961 21.4922 120.18C21.2109 120.398 20.8438 120.742 20.3906 121.211C19.9375 121.664 19.375 122.312 18.7031 123.156L18.3047 120.695C18.5391 120.445 18.8672 120.156 19.2891 119.828C19.7266 119.484 20.1797 119.164 20.6484 118.867C21.1328 118.555 21.6016 118.297 22.0547 118.094C22.5234 117.891 22.9141 117.789 23.2266 117.789C23.2891 117.789 23.3672 117.805 23.4609 117.836C23.6016 117.867 23.7344 117.961 23.8594 118.117C23.9844 118.258 24.0938 118.438 24.1875 118.656C24.2969 118.875 24.3828 119.125 24.4453 119.406C24.5234 119.672 24.5859 119.945 24.6328 120.227C24.9609 120.008 25.3203 119.789 25.7109 119.57C26.1172 119.352 26.5156 119.164 26.9062 119.008C27.3125 118.836 27.6953 118.703 28.0547 118.609C28.4141 118.5 28.7109 118.445 28.9453 118.445H29.0391C29.3047 118.477 29.5703 118.617 29.8359 118.867C30.1172 119.102 30.3594 119.391 30.5625 119.734C30.8438 119.578 31.1797 119.414 31.5703 119.242C31.9609 119.055 32.3516 118.891 32.7422 118.75C33.1328 118.609 33.5078 118.492 33.8672 118.398C34.2266 118.305 34.5234 118.258 34.7578 118.258H34.7812C35.0625 118.258 35.3672 118.391 35.6953 118.656C36.0391 118.906 36.3516 119.219 36.6328 119.594C36.9297 119.953 37.1797 120.336 37.3828 120.742C37.5859 121.133 37.6953 121.477 37.7109 121.773C37.7109 121.945 37.625 122.32 37.4531 122.898C37.2969 123.461 37.0859 124.156 36.8203 124.984C36.5703 125.797 36.2969 126.695 36 127.68C35.7031 128.664 35.4219 129.656 35.1562 130.656C34.9062 131.641 34.6953 132.594 34.5234 133.516C34.3516 134.438 34.2656 135.234 34.2656 135.906C34.2656 136.766 34.4219 137.352 34.7344 137.664C35.0156 137.898 35.3047 138.062 35.6016 138.156C35.8984 138.266 36.2031 138.32 36.5156 138.32C36.9375 138.32 37.3516 138.242 37.7578 138.086C38.1641 137.945 38.5391 137.781 38.8828 137.594C39.2422 137.406 39.5547 137.219 39.8203 137.031C40.0859 136.844 40.2812 136.711 40.4062 136.633L40.875 138.18ZM44.6719 126.32C44.5469 126.32 44.375 126.414 44.1562 126.602C43.9531 126.789 43.7266 127.039 43.4766 127.352C43.2422 127.648 42.9922 128 42.7266 128.406C42.4609 128.812 42.2266 129.234 42.0234 129.672C41.9453 129.828 41.875 129.984 41.8125 130.141C41.75 130.297 41.6875 130.461 41.625 130.633C42.0312 130.555 42.4531 130.461 42.8906 130.352C43.3438 130.227 43.6797 130.094 43.8984 129.953C44.0078 129.875 44.125 129.719 44.25 129.484C44.3906 129.25 44.5156 128.992 44.625 128.711C44.75 128.414 44.8516 128.109 44.9297 127.797C45.0078 127.469 45.0469 127.188 45.0469 126.953C45.0469 126.781 45.0156 126.633 44.9531 126.508C44.8906 126.383 44.7969 126.32 44.6719 126.32ZM49.875 133C49.5938 133.203 49.2656 133.438 48.8906 133.703C48.5156 133.953 48.1172 134.219 47.6953 134.5C47.2891 134.766 46.875 135.031 46.4531 135.297C46.0469 135.562 45.6641 135.797 45.3047 136C44.9609 136.219 44.6641 136.391 44.4141 136.516C44.1641 136.656 44 136.734 43.9219 136.75C43.875 136.766 43.8125 136.773 43.7344 136.773C43.4688 136.773 43.1172 136.703 42.6797 136.562C42.2578 136.438 41.8281 136.273 41.3906 136.07C40.9531 135.883 40.5469 135.68 40.1719 135.461C39.8125 135.227 39.5703 135.008 39.4453 134.805C39.3516 134.633 39.2812 134.414 39.2344 134.148C39.2031 133.867 39.1875 133.547 39.1875 133.188C39.1875 132.875 39.2031 132.547 39.2344 132.203C39.2656 131.844 39.3047 131.508 39.3516 131.195C39.4141 130.867 39.4766 130.57 39.5391 130.305C39.6172 130.039 39.7031 129.828 39.7969 129.672C39.9062 129.453 40.0781 129.18 40.3125 128.852C40.5469 128.508 40.8125 128.156 41.1094 127.797C41.4219 127.422 41.75 127.047 42.0938 126.672C42.4375 126.297 42.7812 125.961 43.125 125.664C43.4688 125.352 43.7969 125.102 44.1094 124.914C44.4375 124.711 44.7266 124.602 44.9766 124.586C44.9922 124.586 45 124.586 45 124.586C45.0156 124.57 45.0391 124.562 45.0703 124.562C45.3203 124.562 45.5703 124.672 45.8203 124.891C46.0703 125.109 46.2891 125.375 46.4766 125.688C46.6641 126 46.8125 126.336 46.9219 126.695C47.0469 127.039 47.1094 127.352 47.1094 127.633C47.1094 127.773 47.1016 127.875 47.0859 127.938C47.0234 128.188 46.8828 128.5 46.6641 128.875C46.4453 129.234 46.2031 129.594 45.9375 129.953C45.6719 130.297 45.4141 130.609 45.1641 130.891C44.9141 131.156 44.7266 131.336 44.6016 131.43C44.5078 131.508 44.3359 131.586 44.0859 131.664C43.8516 131.727 43.5703 131.797 43.2422 131.875C42.9297 131.938 42.5938 132 42.2344 132.062C41.875 132.125 41.5234 132.18 41.1797 132.227C41.1172 132.539 41.0703 132.812 41.0391 133.047C41.0078 133.266 40.9844 133.422 40.9688 133.516C41 133.688 41.0938 133.859 41.25 134.031C41.4062 134.203 41.6016 134.359 41.8359 134.5C42.0703 134.641 42.3281 134.758 42.6094 134.852C42.9062 134.93 43.2031 134.969 43.5 134.969C43.5625 134.969 43.625 134.969 43.6875 134.969C43.7656 134.969 43.8359 134.961 43.8984 134.945C44.1797 134.867 44.5547 134.688 45.0234 134.406C45.4922 134.125 45.9766 133.805 46.4766 133.445C46.9922 133.086 47.4766 132.719 47.9297 132.344C48.3984 131.953 48.7578 131.609 49.0078 131.312L49.875 133ZM52.2422 125.453C52.2578 125.547 52.2734 125.664 52.2891 125.805C52.3047 125.93 52.3203 126.078 52.3359 126.25C52.3516 126.406 52.3594 126.594 52.3594 126.812V126.836V127C52.6562 126.703 52.9922 126.422 53.3672 126.156C53.7578 125.891 54.1406 125.648 54.5156 125.43C54.9062 125.195 55.2812 124.992 55.6406 124.82C56.0156 124.648 56.3438 124.5 56.625 124.375C56.8281 124.281 57.0547 124.234 57.3047 124.234C57.7578 124.234 58.1719 124.375 58.5469 124.656C58.9375 124.922 59.1562 125.242 59.2031 125.617C59.6875 125.273 60.2031 124.992 60.75 124.773C61.3125 124.539 61.8047 124.422 62.2266 124.422C62.3828 124.422 62.5781 124.508 62.8125 124.68C63.0625 124.852 63.2969 125.062 63.5156 125.312C63.75 125.547 63.9453 125.797 64.1016 126.062C64.2734 126.312 64.3594 126.516 64.3594 126.672V126.719C64.3438 126.797 64.2656 127 64.125 127.328C64 127.656 63.8359 128.055 63.6328 128.523C63.4297 128.992 63.2109 129.508 62.9766 130.07C62.7578 130.633 62.5469 131.195 62.3438 131.758C62.1562 132.32 61.9922 132.859 61.8516 133.375C61.7266 133.875 61.6641 134.305 61.6641 134.664C61.6641 135.164 61.8125 135.453 62.1094 135.531C62.6719 135.422 63.2109 135.266 63.7266 135.062C64.1641 134.891 64.6094 134.664 65.0625 134.383C65.5156 134.086 65.8828 133.719 66.1641 133.281L66.8672 134.852C66.1953 135.352 65.5 135.766 64.7812 136.094C64.0781 136.438 63.4297 136.711 62.8359 136.914C62.1328 137.148 61.4531 137.336 60.7969 137.477C60.4219 137.289 60.1328 137.031 59.9297 136.703C59.7422 136.391 59.6484 135.961 59.6484 135.414C59.6484 135.148 59.6719 134.844 59.7188 134.5C59.7656 134.156 59.8516 133.766 59.9766 133.328C60.1016 132.797 60.2969 132.188 60.5625 131.5C60.8438 130.797 61.125 130.102 61.4062 129.414C61.6875 128.727 61.9297 128.078 62.1328 127.469C62.3359 126.844 62.4375 126.344 62.4375 125.969C61.9844 126.047 61.5078 126.172 61.0078 126.344C60.5234 126.5 60.0469 126.742 59.5781 127.07C59.125 127.383 58.7031 127.781 58.3125 128.266C57.9219 128.75 57.5938 129.344 57.3281 130.047C57.25 130.234 57.1953 130.383 57.1641 130.492C57.1328 130.586 57.1016 130.648 57.0703 130.68C56.9453 130.992 56.8281 131.32 56.7188 131.664C56.6094 131.992 56.5391 132.312 56.5078 132.625C56.4766 132.844 56.4453 133.07 56.4141 133.305C56.3672 133.711 56.3438 134.211 56.3438 134.805C56.3438 135.039 56.3516 135.281 56.3672 135.531C56.3828 135.781 56.4219 136.016 56.4844 136.234L53.9062 136.164C53.9219 135.508 54.0234 134.734 54.2109 133.844C54.4141 132.953 54.6641 132.039 54.9609 131.102C55.2578 130.164 55.5703 129.266 55.8984 128.406C56.2422 127.547 56.5625 126.82 56.8594 126.227C56.4844 126.289 56.0703 126.406 55.6172 126.578C55.1797 126.75 54.7422 126.961 54.3047 127.211C53.8672 127.461 53.4609 127.734 53.0859 128.031C52.7109 128.312 52.4062 128.594 52.1719 128.875C51.9844 129.078 51.8047 129.344 51.6328 129.672C51.4297 130.266 51.1953 130.93 50.9297 131.664C50.7109 132.305 50.4375 133.055 50.1094 133.914C49.7969 134.758 49.4375 135.695 49.0312 136.727L46.9922 136.258C47.4297 135.383 47.8438 134.492 48.2344 133.586C48.6094 132.664 48.9375 131.781 49.2188 130.938C49.5 130.094 49.7188 129.305 49.875 128.57C50.0469 127.836 50.1328 127.211 50.1328 126.695V126.391L52.2422 125.453ZM68.25 134.594C68.4219 134.594 68.6484 134.508 68.9297 134.336C69.2109 134.148 69.5156 133.906 69.8438 133.609C70.1719 133.312 70.5078 132.977 70.8516 132.602C71.2109 132.227 71.5547 131.852 71.8828 131.477C72.0547 130.93 72.2734 130.266 72.5391 129.484C72.8203 128.688 73.1328 127.828 73.4766 126.906L73.1484 127.539C73.1016 127.305 73.0234 127.086 72.9141 126.883C72.8047 126.68 72.6797 126.5 72.5391 126.344C72.3984 126.172 72.25 126.039 72.0938 125.945C71.9531 125.852 71.8281 125.805 71.7188 125.805C71.6406 125.805 71.5859 125.82 71.5547 125.852C71.4922 125.898 71.3516 126.047 71.1328 126.297C70.9297 126.531 70.6797 126.828 70.3828 127.188C70.1016 127.547 69.7969 127.945 69.4688 128.383C69.1562 128.82 68.8594 129.25 68.5781 129.672C68.3125 130.094 68.0781 130.492 67.875 130.867C67.6719 131.227 67.5547 131.516 67.5234 131.734C67.4922 131.953 67.4609 132.18 67.4297 132.414C67.3984 132.633 67.3828 132.852 67.3828 133.07C67.3828 133.477 67.4375 133.828 67.5469 134.125C67.6719 134.422 67.8906 134.578 68.2031 134.594H68.25ZM78.8203 133.023C78.6172 133.258 78.3281 133.586 77.9531 134.008C77.5781 134.43 77.1719 134.852 76.7344 135.273C76.3125 135.68 75.8828 136.031 75.4453 136.328C75.0234 136.641 74.6641 136.797 74.3672 136.797H74.3203C74.0234 136.797 73.7031 136.758 73.3594 136.68C73.0156 136.602 72.6953 136.492 72.3984 136.352C72.1172 136.227 71.875 136.078 71.6719 135.906C71.4844 135.719 71.3906 135.516 71.3906 135.297V135.273C71.3906 135.117 71.3984 134.938 71.4141 134.734C71.4297 134.516 71.4453 134.289 71.4609 134.055C70.7891 134.711 70.1172 135.258 69.4453 135.695C68.7891 136.133 68.2109 136.352 67.7109 136.352C67.5859 136.352 67.5 136.344 67.4531 136.328C67.1719 136.281 66.9141 136.148 66.6797 135.93C66.4453 135.695 66.2422 135.414 66.0703 135.086C65.9141 134.742 65.7891 134.367 65.6953 133.961C65.6016 133.555 65.5547 133.148 65.5547 132.742C65.5547 132.148 65.6484 131.594 65.8359 131.078C65.9609 130.75 66.1406 130.359 66.375 129.906C66.6094 129.453 66.875 128.977 67.1719 128.477C67.4844 127.977 67.8125 127.484 68.1562 127C68.5156 126.5 68.8672 126.047 69.2109 125.641C69.5703 125.234 69.9219 124.906 70.2656 124.656C70.6094 124.391 70.9297 124.234 71.2266 124.188C71.3047 124.172 71.375 124.164 71.4375 124.164C71.5 124.164 71.5625 124.164 71.625 124.164C71.9531 124.164 72.2422 124.211 72.4922 124.305C72.7578 124.398 72.9844 124.523 73.1719 124.68C73.375 124.82 73.5391 124.977 73.6641 125.148C73.7891 125.32 73.8828 125.477 73.9453 125.617C73.9922 125.43 74.0469 125.281 74.1094 125.172L75.6328 125.406C75.2109 126.469 74.8203 127.547 74.4609 128.641C74.1016 129.719 73.8203 130.75 73.6172 131.734L73.6406 131.805L73.5938 131.852C73.5 132.32 73.4219 132.766 73.3594 133.188C73.3125 133.609 73.2891 134 73.2891 134.359C73.2891 134.531 73.2891 134.68 73.2891 134.805C73.3047 134.93 73.3203 135.055 73.3359 135.18C73.7266 135.039 74.1641 134.828 74.6484 134.547C75.1484 134.266 75.6328 133.953 76.1016 133.609C76.5859 133.266 77.0391 132.914 77.4609 132.555C77.8828 132.18 78.2266 131.852 78.4922 131.57L78.8203 133.023ZM79.3359 126.625C79.7578 126.406 80.1328 126.211 80.4609 126.039C80.7422 125.898 81 125.766 81.2344 125.641C81.4844 125.516 81.625 125.453 81.6562 125.453C81.6562 125.531 81.6562 125.594 81.6562 125.641C81.6719 125.688 81.6797 125.734 81.6797 125.781C81.6797 125.859 81.6719 125.938 81.6562 126.016C81.6562 126.094 81.6484 126.172 81.6328 126.25C82.1016 125.812 82.6016 125.453 83.1328 125.172C83.6797 124.875 84.1875 124.664 84.6562 124.539H84.7734C84.9453 124.539 85.1797 124.594 85.4766 124.703C85.7734 124.812 86.0625 124.953 86.3438 125.125C86.625 125.297 86.8672 125.484 87.0703 125.688C87.2891 125.875 87.3984 126.055 87.3984 126.227C87.3984 126.336 87.3359 126.57 87.2109 126.93C87.1016 127.273 86.9531 127.695 86.7656 128.195C86.5938 128.695 86.3984 129.25 86.1797 129.859C85.9766 130.453 85.7812 131.055 85.5938 131.664C85.4219 132.258 85.2734 132.828 85.1484 133.375C85.0234 133.906 84.9609 134.367 84.9609 134.758C84.9609 135.023 85 135.242 85.0781 135.414C85.1562 135.586 85.2812 135.688 85.4531 135.719C86.0312 135.625 86.5859 135.461 87.1172 135.227C87.5703 135.023 88.0469 134.75 88.5469 134.406C89.0625 134.047 89.5156 133.57 89.9062 132.977L90.5859 134.758C90.2109 135.164 89.7656 135.547 89.25 135.906C88.75 136.25 88.2344 136.555 87.7031 136.82C87.1719 137.086 86.6406 137.289 86.1094 137.43C85.5938 137.586 85.1406 137.664 84.75 137.664C84.375 137.664 84.0859 137.586 83.8828 137.43C83.6641 137.273 83.5 136.953 83.3906 136.469C83.2969 135.984 83.25 135.445 83.25 134.852C83.25 134.539 83.2578 134.234 83.2734 133.938C83.3047 133.625 83.3516 133.312 83.4141 133C83.5234 132.359 83.6797 131.703 83.8828 131.031C84.0859 130.359 84.2812 129.719 84.4688 129.109C84.6719 128.484 84.8438 127.922 84.9844 127.422C85.125 126.906 85.2031 126.492 85.2188 126.18C84.2188 126.492 83.3281 127 82.5469 127.703C81.7656 128.406 81.1641 129.195 80.7422 130.07C80.2266 131.117 79.7891 132.211 79.4297 133.352C79.0859 134.477 78.7109 135.602 78.3047 136.727L76.1953 136.188C76.3984 135.875 76.6172 135.477 76.8516 134.992C77.0859 134.492 77.3125 133.945 77.5312 133.352C77.7656 132.758 77.9922 132.141 78.2109 131.5C78.4297 130.859 78.625 130.242 78.7969 129.648C78.9688 129.055 79.1016 128.5 79.1953 127.984C79.3047 127.469 79.3672 127.039 79.3828 126.695L79.3359 126.625ZM91.9688 134.594C92.1406 134.594 92.3672 134.5 92.6484 134.312C92.9297 134.125 93.2344 133.883 93.5625 133.586C93.8906 133.289 94.2266 132.953 94.5703 132.578C94.9297 132.203 95.2734 131.828 95.6016 131.453C95.7734 130.906 95.9922 130.242 96.2578 129.461C96.5391 128.664 96.8516 127.805 97.1953 126.883L96.8672 127.516C96.8203 127.281 96.7422 127.062 96.6328 126.859C96.5234 126.656 96.3984 126.477 96.2578 126.32C96.1172 126.148 95.9688 126.016 95.8125 125.922C95.6719 125.828 95.5469 125.781 95.4375 125.781C95.3906 125.781 95.3359 125.797 95.2734 125.828C95.2109 125.875 95.0703 126.023 94.8516 126.273C94.6484 126.508 94.3984 126.812 94.1016 127.188C93.8203 127.547 93.5156 127.945 93.1875 128.383C92.875 128.805 92.5781 129.227 92.2969 129.648C92.0312 130.07 91.7969 130.469 91.5938 130.844C91.3906 131.203 91.2734 131.492 91.2422 131.711C91.2109 131.93 91.1797 132.156 91.1484 132.391C91.1172 132.609 91.1016 132.828 91.1016 133.047C91.1016 133.453 91.1562 133.805 91.2656 134.102C91.3906 134.398 91.6094 134.562 91.9219 134.594H91.9688ZM91.9688 143.711C92.5312 142.914 93.0078 141.945 93.3984 140.805C93.7891 139.68 94.125 138.5 94.4062 137.266C93.6875 137.906 93.1953 138.508 92.9297 139.07C92.5859 139.82 92.3359 140.531 92.1797 141.203C92.0234 141.875 91.9453 142.539 91.9453 143.195C91.9453 143.273 91.9453 143.359 91.9453 143.453C91.9609 143.547 91.9688 143.633 91.9688 143.711ZM94.8984 134.688C94.9141 134.625 94.9219 134.562 94.9219 134.5C94.9219 134.438 94.9219 134.375 94.9219 134.312C94.25 134.953 93.625 135.453 93.0469 135.812C92.4844 136.172 91.9609 136.352 91.4766 136.352C91.4297 136.352 91.375 136.344 91.3125 136.328C91.2656 136.328 91.2188 136.328 91.1719 136.328C90.875 136.266 90.5938 136.125 90.3281 135.906C90.0781 135.672 89.8594 135.391 89.6719 135.062C89.4844 134.719 89.3359 134.344 89.2266 133.938C89.1172 133.531 89.0625 133.125 89.0625 132.719C89.0625 132.25 89.1484 131.773 89.3203 131.289C89.4453 130.961 89.6328 130.562 89.8828 130.094C90.1328 129.625 90.4141 129.141 90.7266 128.641C91.0547 128.125 91.3984 127.609 91.7578 127.094C92.1328 126.578 92.5078 126.109 92.8828 125.688C93.2578 125.266 93.6172 124.922 93.9609 124.656C94.3203 124.375 94.6484 124.211 94.9453 124.164C95.0234 124.148 95.0938 124.141 95.1562 124.141C95.2188 124.141 95.2812 124.141 95.3438 124.141C95.6719 124.141 95.9609 124.188 96.2109 124.281C96.4766 124.375 96.7031 124.5 96.8906 124.656C97.0938 124.797 97.2578 124.953 97.3828 125.125C97.5078 125.297 97.6016 125.453 97.6641 125.594C97.7109 125.406 97.7656 125.258 97.8281 125.148L99.3516 125.383C98.9297 126.43 98.5391 127.5 98.1797 128.594C97.8203 129.688 97.5391 130.727 97.3359 131.711L97.3594 131.781C97.3594 131.781 97.3438 131.859 97.3125 132.016C97.2812 132.156 97.25 132.312 97.2188 132.484C97.1875 132.656 97.1562 132.812 97.125 132.953C97.0938 133.094 97.0781 133.164 97.0781 133.164C97.3594 132.977 97.7109 132.781 98.1328 132.578C98.5703 132.375 99 132.18 99.4219 131.992C99.8594 131.805 100.25 131.648 100.594 131.523C100.938 131.383 101.156 131.297 101.25 131.266L101.086 132.977C100.961 133.055 100.727 133.18 100.383 133.352C100.039 133.523 99.6406 133.727 99.1875 133.961C98.7344 134.195 98.2578 134.461 97.7578 134.758C97.2578 135.039 96.7891 135.344 96.3516 135.672C96.0391 136.766 95.7109 137.883 95.3672 139.023C95.0391 140.18 94.7188 141.234 94.4062 142.188C94.1094 143.156 93.8359 143.969 93.5859 144.625C93.3516 145.281 93.1797 145.68 93.0703 145.82C92.8516 146.039 92.6328 146.219 92.4141 146.359C92.1953 146.516 91.9688 146.594 91.7344 146.594C91.2656 146.594 90.8516 146.281 90.4922 145.656C90.2891 145.266 90.1875 144.641 90.1875 143.781C90.1875 143.25 90.2266 142.672 90.3047 142.047C90.3828 141.422 90.4844 140.812 90.6094 140.219C90.75 139.625 90.9062 139.078 91.0781 138.578C91.2656 138.078 91.4688 137.68 91.6875 137.383C91.9531 137.055 92.375 136.648 92.9531 136.164C93.5469 135.68 94.1953 135.188 94.8984 134.688ZM126.281 137.523C124.891 138.102 123.742 138.477 122.836 138.648C121.945 138.82 121.266 138.906 120.797 138.906C120.625 138.906 120.477 138.898 120.352 138.883C120.242 138.883 120.148 138.875 120.07 138.859C119.977 138.844 119.906 138.828 119.859 138.812C119.516 138.688 119.234 138.445 119.016 138.086C118.797 137.742 118.617 137.336 118.477 136.867C118.352 136.398 118.258 135.906 118.195 135.391C118.148 134.859 118.125 134.359 118.125 133.891C118.125 133.156 118.172 132.586 118.266 132.18C118.312 131.961 118.422 131.602 118.594 131.102C118.766 130.602 118.969 130.016 119.203 129.344C119.438 128.672 119.68 127.961 119.93 127.211C120.195 126.461 120.438 125.734 120.656 125.031C120.875 124.312 121.055 123.664 121.195 123.086C121.336 122.492 121.406 122.031 121.406 121.703C121.406 121.594 121.391 121.477 121.359 121.352C121.203 120.898 120.984 120.578 120.703 120.391C120.422 120.188 120.109 120.086 119.766 120.086C119.5 120.086 119.242 120.133 118.992 120.227C118.805 120.305 118.555 120.445 118.242 120.648C117.945 120.836 117.633 121.062 117.305 121.328C116.977 121.578 116.656 121.852 116.344 122.148C116.047 122.43 115.797 122.703 115.594 122.969C115.375 123.625 115.109 124.398 114.797 125.289C114.5 126.18 114.18 127.109 113.836 128.078C113.508 129.031 113.164 129.977 112.805 130.914C112.461 131.852 112.141 132.703 111.844 133.469C111.562 134.219 111.305 134.844 111.07 135.344C110.852 135.844 110.703 136.133 110.625 136.211L108.633 135.695C108.805 135.383 109.047 134.836 109.359 134.055C109.688 133.258 110.039 132.352 110.414 131.336C110.805 130.32 111.195 129.258 111.586 128.148C111.992 127.023 112.359 125.969 112.688 124.984C113.031 124 113.312 123.148 113.531 122.43C113.766 121.711 113.906 121.242 113.953 121.023C113.969 120.945 113.977 120.852 113.977 120.742C113.977 120.555 113.938 120.43 113.859 120.367C113.797 120.289 113.703 120.25 113.578 120.25C113.406 120.25 113.219 120.305 113.016 120.414C112.812 120.508 112.656 120.586 112.547 120.648C112.375 120.758 112.195 120.898 112.008 121.07C111.836 121.227 111.633 121.445 111.398 121.727C111.18 121.992 110.938 122.336 110.672 122.758L109.734 120.977C109.984 120.711 110.312 120.422 110.719 120.109C111.125 119.797 111.539 119.508 111.961 119.242C112.383 118.977 112.789 118.758 113.18 118.586C113.57 118.414 113.875 118.328 114.094 118.328C114.125 118.328 114.148 118.336 114.164 118.352C114.18 118.352 114.195 118.352 114.211 118.352C114.352 118.383 114.508 118.445 114.68 118.539C114.852 118.617 115.023 118.727 115.195 118.867C115.367 118.992 115.531 119.148 115.688 119.336C115.844 119.508 115.969 119.703 116.062 119.922C116.312 119.766 116.633 119.594 117.023 119.406C117.414 119.203 117.812 119.016 118.219 118.844C118.641 118.672 119.039 118.531 119.414 118.422C119.805 118.297 120.133 118.234 120.398 118.234C120.492 118.234 120.555 118.242 120.586 118.258C120.82 118.305 121.094 118.43 121.406 118.633C121.719 118.82 122.016 119.055 122.297 119.336C122.578 119.617 122.812 119.938 123 120.297C123.203 120.641 123.305 120.984 123.305 121.328V121.586C123.258 121.961 123.156 122.508 123 123.227C122.859 123.93 122.688 124.695 122.484 125.523C122.297 126.336 122.094 127.148 121.875 127.961C121.656 128.773 121.445 129.461 121.242 130.023C121.117 130.352 120.992 130.719 120.867 131.125C120.758 131.531 120.664 131.945 120.586 132.367C120.508 132.82 120.445 133.273 120.398 133.727C120.367 134.164 120.352 134.586 120.352 134.992C120.352 135.539 120.398 136.008 120.492 136.398C120.586 136.789 120.75 137.023 120.984 137.102C120.984 137.117 121 137.125 121.031 137.125H121.219C121.328 137.125 121.484 137.109 121.688 137.078C121.906 137.047 122.18 136.984 122.508 136.891C122.836 136.797 123.227 136.656 123.68 136.469C124.148 136.281 124.695 136.031 125.32 135.719L126.281 137.523ZM127.359 143.125C127.547 142.875 127.742 142.539 127.945 142.117C128.148 141.711 128.352 141.266 128.555 140.781C128.773 140.297 128.977 139.797 129.164 139.281C129.352 138.766 129.531 138.273 129.703 137.805C129.562 137.961 129.375 138.258 129.141 138.695C128.906 139.133 128.664 139.617 128.414 140.148C128.18 140.68 127.961 141.211 127.758 141.742C127.555 142.289 127.422 142.75 127.359 143.125ZM127.5 125.008C127.656 125.102 127.93 125.148 128.32 125.148C128.633 125.148 128.93 125.133 129.211 125.102C129.508 125.055 129.68 125.023 129.727 125.008C129.211 126.211 128.75 127.367 128.344 128.477C128.172 128.945 128 129.438 127.828 129.953C127.656 130.453 127.508 130.945 127.383 131.43C127.258 131.914 127.156 132.383 127.078 132.836C127 133.273 126.961 133.664 126.961 134.008V134.125C127.227 134.203 127.484 134.242 127.734 134.242C128 134.242 128.266 134.188 128.531 134.078C128.812 133.953 129.086 133.734 129.352 133.422C129.492 133.25 129.68 133 129.914 132.672C130.148 132.344 130.406 131.969 130.688 131.547C130.969 131.125 131.258 130.672 131.555 130.188C131.867 129.688 132.156 129.195 132.422 128.711C132.656 128.32 132.867 127.906 133.055 127.469C133.227 127.109 133.391 126.695 133.547 126.227C133.703 125.758 133.812 125.289 133.875 124.82L135.797 125.102C135.516 125.961 135.219 126.836 134.906 127.727C134.609 128.617 134.328 129.438 134.062 130.188C133.766 131.047 133.469 131.891 133.172 132.719C133.781 132.422 134.383 132.133 134.977 131.852C135.477 131.617 136 131.391 136.547 131.172C137.094 130.938 137.57 130.758 137.977 130.633L137.602 132.438C137.258 132.625 136.844 132.836 136.359 133.07C135.891 133.289 135.406 133.531 134.906 133.797C134.406 134.047 133.922 134.312 133.453 134.594C133 134.859 132.609 135.117 132.281 135.367C131.906 136.461 131.539 137.531 131.18 138.578C130.836 139.641 130.508 140.602 130.195 141.461C129.898 142.32 129.633 143.055 129.398 143.664C129.18 144.273 129.016 144.68 128.906 144.883C128.703 145.289 128.414 145.578 128.039 145.75C127.68 145.922 127.305 146.008 126.914 146.008C126.445 146.008 126.031 145.898 125.672 145.68C125.312 145.461 125.133 145.156 125.133 144.766C125.133 144.719 125.141 144.688 125.156 144.672C125.188 144.328 125.281 143.891 125.438 143.359C125.609 142.844 125.836 142.273 126.117 141.648C126.398 141.023 126.719 140.367 127.078 139.68C127.453 138.992 127.859 138.32 128.297 137.664C128.734 137.008 129.188 136.391 129.656 135.812C130.141 135.234 130.625 134.727 131.109 134.289C131.156 134.242 131.203 134.203 131.25 134.172C131.297 134.125 131.344 134.078 131.391 134.031L132.117 131.945C131.867 132.414 131.602 132.844 131.32 133.234C131.055 133.609 130.789 133.953 130.523 134.266C130.273 134.578 130.031 134.859 129.797 135.109C129.578 135.344 129.398 135.539 129.258 135.695C129.133 135.805 128.93 135.891 128.648 135.953C128.367 136 128.039 136.023 127.664 136.023C127.32 136.023 126.969 136 126.609 135.953C126.25 135.891 125.914 135.805 125.602 135.695C125.305 135.57 125.062 135.414 124.875 135.227C124.688 135.023 124.594 134.789 124.594 134.523C124.594 134.273 124.656 133.914 124.781 133.445C124.906 132.961 125.062 132.43 125.25 131.852C125.438 131.258 125.641 130.633 125.859 129.977C126.094 129.32 126.312 128.68 126.516 128.055C126.734 127.43 126.93 126.852 127.102 126.32C127.273 125.789 127.406 125.352 127.5 125.008ZM142.148 126.32C142.023 126.32 141.852 126.414 141.633 126.602C141.43 126.789 141.203 127.039 140.953 127.352C140.719 127.648 140.469 128 140.203 128.406C139.938 128.812 139.703 129.234 139.5 129.672C139.422 129.828 139.352 129.984 139.289 130.141C139.227 130.297 139.164 130.461 139.102 130.633C139.508 130.555 139.93 130.461 140.367 130.352C140.82 130.227 141.156 130.094 141.375 129.953C141.484 129.875 141.602 129.719 141.727 129.484C141.867 129.25 141.992 128.992 142.102 128.711C142.227 128.414 142.328 128.109 142.406 127.797C142.484 127.469 142.523 127.188 142.523 126.953C142.523 126.781 142.492 126.633 142.43 126.508C142.367 126.383 142.273 126.32 142.148 126.32ZM147.352 133C147.07 133.203 146.742 133.438 146.367 133.703C145.992 133.953 145.594 134.219 145.172 134.5C144.766 134.766 144.352 135.031 143.93 135.297C143.523 135.562 143.141 135.797 142.781 136C142.438 136.219 142.141 136.391 141.891 136.516C141.641 136.656 141.477 136.734 141.398 136.75C141.352 136.766 141.289 136.773 141.211 136.773C140.945 136.773 140.594 136.703 140.156 136.562C139.734 136.438 139.305 136.273 138.867 136.07C138.43 135.883 138.023 135.68 137.648 135.461C137.289 135.227 137.047 135.008 136.922 134.805C136.828 134.633 136.758 134.414 136.711 134.148C136.68 133.867 136.664 133.547 136.664 133.188C136.664 132.875 136.68 132.547 136.711 132.203C136.742 131.844 136.781 131.508 136.828 131.195C136.891 130.867 136.953 130.57 137.016 130.305C137.094 130.039 137.18 129.828 137.273 129.672C137.383 129.453 137.555 129.18 137.789 128.852C138.023 128.508 138.289 128.156 138.586 127.797C138.898 127.422 139.227 127.047 139.57 126.672C139.914 126.297 140.258 125.961 140.602 125.664C140.945 125.352 141.273 125.102 141.586 124.914C141.914 124.711 142.203 124.602 142.453 124.586C142.469 124.586 142.477 124.586 142.477 124.586C142.492 124.57 142.516 124.562 142.547 124.562C142.797 124.562 143.047 124.672 143.297 124.891C143.547 125.109 143.766 125.375 143.953 125.688C144.141 126 144.289 126.336 144.398 126.695C144.523 127.039 144.586 127.352 144.586 127.633C144.586 127.773 144.578 127.875 144.562 127.938C144.5 128.188 144.359 128.5 144.141 128.875C143.922 129.234 143.68 129.594 143.414 129.953C143.148 130.297 142.891 130.609 142.641 130.891C142.391 131.156 142.203 131.336 142.078 131.43C141.984 131.508 141.812 131.586 141.562 131.664C141.328 131.727 141.047 131.797 140.719 131.875C140.406 131.938 140.07 132 139.711 132.062C139.352 132.125 139 132.18 138.656 132.227C138.594 132.539 138.547 132.812 138.516 133.047C138.484 133.266 138.461 133.422 138.445 133.516C138.477 133.688 138.57 133.859 138.727 134.031C138.883 134.203 139.078 134.359 139.312 134.5C139.547 134.641 139.805 134.758 140.086 134.852C140.383 134.93 140.68 134.969 140.977 134.969C141.039 134.969 141.102 134.969 141.164 134.969C141.242 134.969 141.312 134.961 141.375 134.945C141.656 134.867 142.031 134.688 142.5 134.406C142.969 134.125 143.453 133.805 143.953 133.445C144.469 133.086 144.953 132.719 145.406 132.344C145.875 131.953 146.234 131.609 146.484 131.312L147.352 133ZM148.594 134.594C148.766 134.594 148.992 134.5 149.273 134.312C149.555 134.125 149.859 133.883 150.188 133.586C150.516 133.289 150.852 132.953 151.195 132.578C151.555 132.203 151.898 131.828 152.227 131.453C152.398 130.906 152.617 130.242 152.883 129.461C153.164 128.664 153.477 127.805 153.82 126.883L153.492 127.516C153.445 127.281 153.367 127.062 153.258 126.859C153.148 126.656 153.023 126.477 152.883 126.32C152.742 126.148 152.594 126.016 152.438 125.922C152.297 125.828 152.172 125.781 152.062 125.781C152.016 125.781 151.961 125.797 151.898 125.828C151.836 125.875 151.695 126.023 151.477 126.273C151.273 126.508 151.023 126.812 150.727 127.188C150.445 127.547 150.141 127.945 149.812 128.383C149.5 128.805 149.203 129.227 148.922 129.648C148.656 130.07 148.422 130.469 148.219 130.844C148.016 131.203 147.898 131.492 147.867 131.711C147.836 131.93 147.805 132.156 147.773 132.391C147.742 132.609 147.727 132.828 147.727 133.047C147.727 133.453 147.781 133.805 147.891 134.102C148.016 134.398 148.234 134.562 148.547 134.594H148.594ZM148.594 143.711C149.156 142.914 149.633 141.945 150.023 140.805C150.414 139.68 150.75 138.5 151.031 137.266C150.312 137.906 149.82 138.508 149.555 139.07C149.211 139.82 148.961 140.531 148.805 141.203C148.648 141.875 148.57 142.539 148.57 143.195C148.57 143.273 148.57 143.359 148.57 143.453C148.586 143.547 148.594 143.633 148.594 143.711ZM151.523 134.688C151.539 134.625 151.547 134.562 151.547 134.5C151.547 134.438 151.547 134.375 151.547 134.312C150.875 134.953 150.25 135.453 149.672 135.812C149.109 136.172 148.586 136.352 148.102 136.352C148.055 136.352 148 136.344 147.938 136.328C147.891 136.328 147.844 136.328 147.797 136.328C147.5 136.266 147.219 136.125 146.953 135.906C146.703 135.672 146.484 135.391 146.297 135.062C146.109 134.719 145.961 134.344 145.852 133.938C145.742 133.531 145.688 133.125 145.688 132.719C145.688 132.25 145.773 131.773 145.945 131.289C146.07 130.961 146.258 130.562 146.508 130.094C146.758 129.625 147.039 129.141 147.352 128.641C147.68 128.125 148.023 127.609 148.383 127.094C148.758 126.578 149.133 126.109 149.508 125.688C149.883 125.266 150.242 124.922 150.586 124.656C150.945 124.375 151.273 124.211 151.57 124.164C151.648 124.148 151.719 124.141 151.781 124.141C151.844 124.141 151.906 124.141 151.969 124.141C152.297 124.141 152.586 124.188 152.836 124.281C153.102 124.375 153.328 124.5 153.516 124.656C153.719 124.797 153.883 124.953 154.008 125.125C154.133 125.297 154.227 125.453 154.289 125.594C154.336 125.406 154.391 125.258 154.453 125.148L155.977 125.383C155.555 126.43 155.164 127.5 154.805 128.594C154.445 129.688 154.164 130.727 153.961 131.711L153.984 131.781C153.984 131.781 153.969 131.859 153.938 132.016C153.906 132.156 153.875 132.312 153.844 132.484C153.812 132.656 153.781 132.812 153.75 132.953C153.719 133.094 153.703 133.164 153.703 133.164C153.984 132.977 154.336 132.781 154.758 132.578C155.195 132.375 155.625 132.18 156.047 131.992C156.484 131.805 156.875 131.648 157.219 131.523C157.562 131.383 157.781 131.297 157.875 131.266L157.711 132.977C157.586 133.055 157.352 133.18 157.008 133.352C156.664 133.523 156.266 133.727 155.812 133.961C155.359 134.195 154.883 134.461 154.383 134.758C153.883 135.039 153.414 135.344 152.977 135.672C152.664 136.766 152.336 137.883 151.992 139.023C151.664 140.18 151.344 141.234 151.031 142.188C150.734 143.156 150.461 143.969 150.211 144.625C149.977 145.281 149.805 145.68 149.695 145.82C149.477 146.039 149.258 146.219 149.039 146.359C148.82 146.516 148.594 146.594 148.359 146.594C147.891 146.594 147.477 146.281 147.117 145.656C146.914 145.266 146.812 144.641 146.812 143.781C146.812 143.25 146.852 142.672 146.93 142.047C147.008 141.422 147.109 140.812 147.234 140.219C147.375 139.625 147.531 139.078 147.703 138.578C147.891 138.078 148.094 137.68 148.312 137.383C148.578 137.055 149 136.648 149.578 136.164C150.172 135.68 150.82 135.188 151.523 134.688ZM162.469 126.32C162.344 126.32 162.172 126.414 161.953 126.602C161.75 126.789 161.523 127.039 161.273 127.352C161.039 127.648 160.789 128 160.523 128.406C160.258 128.812 160.023 129.234 159.82 129.672C159.742 129.828 159.672 129.984 159.609 130.141C159.547 130.297 159.484 130.461 159.422 130.633C159.828 130.555 160.25 130.461 160.688 130.352C161.141 130.227 161.477 130.094 161.695 129.953C161.805 129.875 161.922 129.719 162.047 129.484C162.188 129.25 162.312 128.992 162.422 128.711C162.547 128.414 162.648 128.109 162.727 127.797C162.805 127.469 162.844 127.188 162.844 126.953C162.844 126.781 162.812 126.633 162.75 126.508C162.688 126.383 162.594 126.32 162.469 126.32ZM167.672 133C167.391 133.203 167.062 133.438 166.688 133.703C166.312 133.953 165.914 134.219 165.492 134.5C165.086 134.766 164.672 135.031 164.25 135.297C163.844 135.562 163.461 135.797 163.102 136C162.758 136.219 162.461 136.391 162.211 136.516C161.961 136.656 161.797 136.734 161.719 136.75C161.672 136.766 161.609 136.773 161.531 136.773C161.266 136.773 160.914 136.703 160.477 136.562C160.055 136.438 159.625 136.273 159.188 136.07C158.75 135.883 158.344 135.68 157.969 135.461C157.609 135.227 157.367 135.008 157.242 134.805C157.148 134.633 157.078 134.414 157.031 134.148C157 133.867 156.984 133.547 156.984 133.188C156.984 132.875 157 132.547 157.031 132.203C157.062 131.844 157.102 131.508 157.148 131.195C157.211 130.867 157.273 130.57 157.336 130.305C157.414 130.039 157.5 129.828 157.594 129.672C157.703 129.453 157.875 129.18 158.109 128.852C158.344 128.508 158.609 128.156 158.906 127.797C159.219 127.422 159.547 127.047 159.891 126.672C160.234 126.297 160.578 125.961 160.922 125.664C161.266 125.352 161.594 125.102 161.906 124.914C162.234 124.711 162.523 124.602 162.773 124.586C162.789 124.586 162.797 124.586 162.797 124.586C162.812 124.57 162.836 124.562 162.867 124.562C163.117 124.562 163.367 124.672 163.617 124.891C163.867 125.109 164.086 125.375 164.273 125.688C164.461 126 164.609 126.336 164.719 126.695C164.844 127.039 164.906 127.352 164.906 127.633C164.906 127.773 164.898 127.875 164.883 127.938C164.82 128.188 164.68 128.5 164.461 128.875C164.242 129.234 164 129.594 163.734 129.953C163.469 130.297 163.211 130.609 162.961 130.891C162.711 131.156 162.523 131.336 162.398 131.43C162.305 131.508 162.133 131.586 161.883 131.664C161.648 131.727 161.367 131.797 161.039 131.875C160.727 131.938 160.391 132 160.031 132.062C159.672 132.125 159.32 132.18 158.977 132.227C158.914 132.539 158.867 132.812 158.836 133.047C158.805 133.266 158.781 133.422 158.766 133.516C158.797 133.688 158.891 133.859 159.047 134.031C159.203 134.203 159.398 134.359 159.633 134.5C159.867 134.641 160.125 134.758 160.406 134.852C160.703 134.93 161 134.969 161.297 134.969C161.359 134.969 161.422 134.969 161.484 134.969C161.562 134.969 161.633 134.961 161.695 134.945C161.977 134.867 162.352 134.688 162.82 134.406C163.289 134.125 163.773 133.805 164.273 133.445C164.789 133.086 165.273 132.719 165.727 132.344C166.195 131.953 166.555 131.609 166.805 131.312L167.672 133ZM178.453 133.539C178.281 133.867 178.07 134.195 177.82 134.523C177.57 134.852 177.281 135.164 176.953 135.461C176.641 135.742 176.297 135.984 175.922 136.188C175.547 136.406 175.156 136.555 174.75 136.633C174.578 136.664 174.414 136.688 174.258 136.703C174.117 136.719 173.969 136.727 173.812 136.727C173.141 136.727 172.555 136.586 172.055 136.305C171.555 136.039 171.273 135.625 171.211 135.062V134.828C171.211 134.484 171.242 134 171.305 133.375C171.383 132.734 171.469 132.062 171.562 131.359C171.672 130.641 171.781 129.938 171.891 129.25C172 128.547 172.094 127.953 172.172 127.469L170.695 126.812L166.828 136.469L164.789 136.164C164.883 135.945 165.062 135.547 165.328 134.969C165.594 134.391 165.891 133.75 166.219 133.047C166.547 132.344 166.867 131.648 167.18 130.961C167.508 130.258 167.773 129.68 167.977 129.227C168.148 128.805 168.336 128.289 168.539 127.68C168.742 127.07 168.93 126.469 169.102 125.875C169.273 125.266 169.414 124.719 169.523 124.234C169.633 123.75 169.688 123.422 169.688 123.25L171.75 123.766C171.703 123.828 171.672 123.898 171.656 123.977C171.641 124.039 171.633 124.109 171.633 124.188C171.633 124.375 171.664 124.562 171.727 124.75C171.805 124.922 171.891 125.086 171.984 125.242C172.094 125.383 172.211 125.5 172.336 125.594C172.477 125.688 172.609 125.734 172.734 125.734C172.828 125.734 172.914 125.695 172.992 125.617C173.086 125.523 173.148 125.367 173.18 125.148C173.195 125.055 173.258 124.969 173.367 124.891C173.492 124.797 173.625 124.719 173.766 124.656C173.922 124.578 174.078 124.523 174.234 124.492C174.406 124.445 174.547 124.422 174.656 124.422C174.812 124.422 174.898 124.453 174.914 124.516C174.992 124.625 175.062 124.758 175.125 124.914C175.203 125.055 175.242 125.211 175.242 125.383C175.242 125.555 175.203 125.719 175.125 125.875C175.062 126.031 174.945 126.172 174.773 126.297C174.523 126.484 174.305 126.789 174.117 127.211C173.93 127.633 173.766 128.117 173.625 128.664C173.5 129.211 173.406 129.797 173.344 130.422C173.281 131.047 173.25 131.664 173.25 132.273C173.25 132.867 173.281 133.438 173.344 133.984C173.406 134.531 173.508 134.984 173.648 135.344C174.133 135.25 174.555 135.133 174.914 134.992C175.273 134.852 175.594 134.672 175.875 134.453C176.172 134.219 176.438 133.945 176.672 133.633C176.922 133.305 177.164 132.906 177.398 132.438L178.453 133.539ZM183.562 118.938C183.203 119.359 182.93 119.766 182.742 120.156C182.555 120.547 182.422 120.891 182.344 121.188C182.25 121.531 182.195 121.852 182.18 122.148L180.352 122.289C180.383 121.586 180.539 120.906 180.82 120.25C181.117 119.594 181.469 119.062 181.875 118.656L183.562 118.938ZM185.859 132.367C185.312 133.008 184.758 133.586 184.195 134.102C183.648 134.617 183.125 135.062 182.625 135.438C182.125 135.812 181.664 136.102 181.242 136.305C180.82 136.523 180.461 136.648 180.164 136.68C180.133 136.695 180.07 136.703 179.977 136.703C179.68 136.703 179.367 136.633 179.039 136.492C178.711 136.352 178.406 136.164 178.125 135.93C177.844 135.695 177.609 135.438 177.422 135.156C177.234 134.859 177.141 134.57 177.141 134.289V134.242C177.172 133.93 177.266 133.398 177.422 132.648C177.547 131.992 177.75 131.07 178.031 129.883C178.312 128.68 178.719 127.078 179.25 125.078L181.172 125.43C180.531 127.602 180.117 129.375 179.93 130.75C179.742 132.125 179.648 133.164 179.648 133.867C179.648 134.07 179.648 134.25 179.648 134.406C179.648 134.547 179.656 134.664 179.672 134.758C179.688 134.867 179.703 134.961 179.719 135.039C180.297 134.742 180.898 134.391 181.523 133.984C182.055 133.625 182.641 133.188 183.281 132.672C183.922 132.156 184.547 131.555 185.156 130.867L185.859 132.367ZM186 126.625C186.422 126.406 186.797 126.211 187.125 126.039C187.406 125.898 187.664 125.766 187.898 125.641C188.148 125.516 188.289 125.453 188.32 125.453C188.32 125.531 188.32 125.594 188.32 125.641C188.336 125.688 188.344 125.734 188.344 125.781C188.344 125.859 188.336 125.938 188.32 126.016C188.32 126.094 188.312 126.172 188.297 126.25C188.766 125.812 189.266 125.453 189.797 125.172C190.344 124.875 190.852 124.664 191.32 124.539H191.438C191.609 124.539 191.844 124.594 192.141 124.703C192.438 124.812 192.727 124.953 193.008 125.125C193.289 125.297 193.531 125.484 193.734 125.688C193.953 125.875 194.062 126.055 194.062 126.227C194.062 126.336 194 126.57 193.875 126.93C193.766 127.273 193.617 127.695 193.43 128.195C193.258 128.695 193.062 129.25 192.844 129.859C192.641 130.453 192.445 131.055 192.258 131.664C192.086 132.258 191.938 132.828 191.812 133.375C191.688 133.906 191.625 134.367 191.625 134.758C191.625 135.023 191.664 135.242 191.742 135.414C191.82 135.586 191.945 135.688 192.117 135.719C192.695 135.625 193.25 135.461 193.781 135.227C194.234 135.023 194.711 134.75 195.211 134.406C195.727 134.047 196.18 133.57 196.57 132.977L197.25 134.758C196.875 135.164 196.43 135.547 195.914 135.906C195.414 136.25 194.898 136.555 194.367 136.82C193.836 137.086 193.305 137.289 192.773 137.43C192.258 137.586 191.805 137.664 191.414 137.664C191.039 137.664 190.75 137.586 190.547 137.43C190.328 137.273 190.164 136.953 190.055 136.469C189.961 135.984 189.914 135.445 189.914 134.852C189.914 134.539 189.922 134.234 189.938 133.938C189.969 133.625 190.016 133.312 190.078 133C190.188 132.359 190.344 131.703 190.547 131.031C190.75 130.359 190.945 129.719 191.133 129.109C191.336 128.484 191.508 127.922 191.648 127.422C191.789 126.906 191.867 126.492 191.883 126.18C190.883 126.492 189.992 127 189.211 127.703C188.43 128.406 187.828 129.195 187.406 130.07C186.891 131.117 186.453 132.211 186.094 133.352C185.75 134.477 185.375 135.602 184.969 136.727L182.859 136.188C183.062 135.875 183.281 135.477 183.516 134.992C183.75 134.492 183.977 133.945 184.195 133.352C184.43 132.758 184.656 132.141 184.875 131.5C185.094 130.859 185.289 130.242 185.461 129.648C185.633 129.055 185.766 128.5 185.859 127.984C185.969 127.469 186.031 127.039 186.047 126.695L186 126.625ZM197.789 136.117C197.508 136.008 197.289 135.805 197.133 135.508C196.977 135.211 196.898 134.922 196.898 134.641C196.898 134.422 196.945 134.242 197.039 134.102C197.102 134.008 197.195 133.914 197.32 133.82C197.445 133.711 197.578 133.617 197.719 133.539C197.875 133.461 198.031 133.398 198.188 133.352C198.359 133.289 198.516 133.258 198.656 133.258C198.875 133.258 199.031 133.344 199.125 133.516C199.25 133.688 199.336 133.891 199.383 134.125C199.445 134.359 199.477 134.586 199.477 134.805C199.477 134.93 199.469 135.047 199.453 135.156C199.438 135.25 199.406 135.336 199.359 135.414C199.281 135.586 199.141 135.766 198.938 135.953C198.734 136.125 198.492 136.211 198.211 136.211C198.055 136.211 197.914 136.18 197.789 136.117ZM202.031 136.117C201.75 136.008 201.531 135.805 201.375 135.508C201.219 135.211 201.141 134.922 201.141 134.641C201.141 134.422 201.188 134.242 201.281 134.102C201.344 134.008 201.438 133.914 201.562 133.82C201.688 133.711 201.82 133.617 201.961 133.539C202.117 133.461 202.273 133.398 202.43 133.352C202.602 133.289 202.758 133.258 202.898 133.258C203.117 133.258 203.273 133.344 203.367 133.516C203.492 133.688 203.578 133.891 203.625 134.125C203.688 134.359 203.719 134.586 203.719 134.805C203.719 134.93 203.711 135.047 203.695 135.156C203.68 135.25 203.648 135.336 203.602 135.414C203.523 135.586 203.383 135.766 203.18 135.953C202.977 136.125 202.734 136.211 202.453 136.211C202.297 136.211 202.156 136.18 202.031 136.117ZM206.273 136.117C205.992 136.008 205.773 135.805 205.617 135.508C205.461 135.211 205.383 134.922 205.383 134.641C205.383 134.422 205.43 134.242 205.523 134.102C205.586 134.008 205.68 133.914 205.805 133.82C205.93 133.711 206.062 133.617 206.203 133.539C206.359 133.461 206.516 133.398 206.672 133.352C206.844 133.289 207 133.258 207.141 133.258C207.359 133.258 207.516 133.344 207.609 133.516C207.734 133.688 207.82 133.891 207.867 134.125C207.93 134.359 207.961 134.586 207.961 134.805C207.961 134.93 207.953 135.047 207.938 135.156C207.922 135.25 207.891 135.336 207.844 135.414C207.766 135.586 207.625 135.766 207.422 135.953C207.219 136.125 206.977 136.211 206.695 136.211C206.539 136.211 206.398 136.18 206.273 136.117Z" fill="#00C0FD"/>
<path d="M215.202 4.168C217.218 4.168 218.978 4.648 220.482 5.608C221.986 6.568 223.218 7.832 224.178 9.4C225.138 10.968 225.81 12.76 226.194 14.776C226.61 16.76 226.722 18.808 226.53 20.92C226.338 23 225.842 25.048 225.042 27.064C224.274 29.048 223.17 30.824 221.73 32.392C220.322 33.96 218.594 35.224 216.546 36.184C214.53 37.144 212.162 37.624 209.442 37.624C208.514 37.624 207.794 37.64 207.282 37.672C206.77 37.736 206.21 37.752 205.602 37.72C205.314 37.688 205.138 37.48 205.074 37.096C205.01 36.744 205.074 36.344 205.266 35.896C205.458 35.416 205.778 34.968 206.226 34.552C206.674 34.104 207.266 33.816 208.002 33.688C208.066 32.76 208.114 31.608 208.146 30.232C208.21 28.824 208.258 27.32 208.29 25.72C208.354 24.12 208.402 22.472 208.434 20.776C208.466 19.08 208.482 17.464 208.482 15.928C208.482 14.392 208.466 13.016 208.434 11.8C208.434 10.552 208.418 9.56 208.386 8.824C208.258 8.856 208.114 8.872 207.954 8.872C207.602 8.904 207.234 8.808 206.85 8.584C206.498 8.328 206.178 8.024 205.89 7.672C205.634 7.288 205.426 6.888 205.266 6.472C205.138 6.024 205.09 5.624 205.122 5.272C205.154 4.888 205.298 4.6 205.554 4.408C205.81 4.184 206.226 4.104 206.802 4.168C207.058 4.2 207.57 4.216 208.338 4.216C209.138 4.216 209.986 4.216 210.882 4.216C211.778 4.184 212.626 4.168 213.426 4.168C214.258 4.136 214.85 4.136 215.202 4.168ZM212.562 33.112C214.322 32.664 215.81 31.976 217.026 31.048C218.274 30.12 219.282 29.048 220.05 27.832C220.85 26.616 221.426 25.304 221.778 23.896C222.162 22.488 222.338 21.08 222.306 19.672C222.306 18.264 222.13 16.92 221.778 15.64C221.426 14.328 220.914 13.176 220.242 12.184C219.602 11.16 218.818 10.344 217.89 9.736C216.994 9.096 215.986 8.76 214.866 8.728H213.714C213.554 9.976 213.394 11.688 213.234 13.864C213.106 16.008 212.978 18.28 212.85 20.68C212.754 23.048 212.674 25.352 212.61 27.592C212.546 29.832 212.53 31.672 212.562 33.112ZM240.219 29.32C240.315 28.936 240.571 28.632 240.987 28.408C241.435 28.184 241.883 28.056 242.331 28.024C242.779 27.96 243.179 28.024 243.531 28.216C243.915 28.376 244.107 28.664 244.107 29.08C244.139 30.232 243.883 31.304 243.339 32.296C242.827 33.288 242.155 34.136 241.323 34.84C240.523 35.544 239.627 36.088 238.635 36.472C237.675 36.856 236.747 37.032 235.851 37C233.963 36.968 232.443 36.424 231.291 35.368C230.171 34.312 229.371 33.016 228.891 31.48C228.443 29.944 228.315 28.28 228.507 26.488C228.667 24.696 229.131 23.064 229.899 21.592C230.667 20.12 231.707 18.92 233.019 17.992C234.331 17.064 235.899 16.68 237.723 16.84C239.067 16.968 240.123 17.464 240.891 18.328C241.659 19.16 242.139 20.168 242.331 21.352C242.555 22.536 242.507 23.768 242.187 25.048C241.899 26.328 241.339 27.448 240.507 28.408C239.675 29.336 238.603 30.024 237.291 30.472C235.979 30.888 234.427 30.824 232.635 30.28C232.763 31.56 233.211 32.472 233.979 33.016C234.747 33.56 235.563 33.768 236.427 33.64C237.323 33.512 238.139 33.08 238.875 32.344C239.643 31.608 240.091 30.6 240.219 29.32ZM237.531 22.216C236.955 22.088 236.411 22.152 235.899 22.408C235.419 22.632 234.987 22.984 234.603 23.464C234.219 23.912 233.883 24.456 233.595 25.096C233.307 25.704 233.083 26.312 232.923 26.92C234.235 27.496 235.355 27.624 236.283 27.304C237.211 26.952 237.883 26.424 238.299 25.72C238.747 25.016 238.907 24.312 238.779 23.608C238.683 22.872 238.267 22.408 237.531 22.216ZM250.695 23.32C250.599 23.736 250.759 24.008 251.175 24.136C251.623 24.264 252.183 24.36 252.855 24.424C253.559 24.456 254.327 24.504 255.159 24.568C255.991 24.632 256.759 24.824 257.463 25.144C258.167 25.464 258.743 25.976 259.191 26.68C259.671 27.352 259.895 28.328 259.863 29.608C259.799 31.336 259.415 32.76 258.711 33.88C258.039 34.968 257.207 35.768 256.215 36.28C255.223 36.792 254.135 37.032 252.951 37C251.799 36.936 250.727 36.616 249.735 36.04C248.775 35.432 247.975 34.568 247.335 33.448C246.695 32.328 246.375 30.952 246.375 29.32C246.439 28.712 246.679 28.328 247.095 28.168C247.543 27.976 248.023 27.912 248.535 27.976C249.047 28.04 249.511 28.2 249.927 28.456C250.343 28.712 250.567 28.968 250.599 29.224C250.535 30.792 250.775 31.944 251.319 32.68C251.863 33.416 252.471 33.8 253.143 33.832C253.815 33.832 254.439 33.528 255.015 32.92C255.623 32.28 255.927 31.384 255.927 30.232C255.959 29.528 255.735 29.048 255.255 28.792C254.775 28.536 254.183 28.376 253.479 28.312C252.775 28.216 252.007 28.152 251.175 28.12C250.375 28.088 249.623 27.944 248.919 27.688C248.215 27.4 247.623 26.952 247.143 26.344C246.695 25.704 246.487 24.744 246.519 23.464C246.551 22.248 246.791 21.224 247.239 20.392C247.687 19.528 248.263 18.84 248.967 18.328C249.703 17.784 250.503 17.4 251.367 17.176C252.263 16.92 253.143 16.776 254.007 16.744C254.903 16.68 255.735 16.712 256.503 16.84C257.303 16.936 257.959 17.08 258.471 17.272C259.079 17.528 259.511 17.992 259.767 18.664C260.023 19.336 260.119 20.024 260.055 20.728C260.023 21.432 259.879 22.04 259.623 22.552C259.367 23.064 259.047 23.272 258.663 23.176C258.119 23.048 257.415 22.888 256.551 22.696C255.687 22.504 254.839 22.376 254.007 22.312C253.175 22.216 252.439 22.232 251.799 22.36C251.159 22.488 250.791 22.808 250.695 23.32ZM276.228 35.416C276.324 35.864 276.116 36.232 275.604 36.52C275.124 36.808 274.564 36.968 273.924 37C273.316 37.032 272.74 36.936 272.196 36.712C271.652 36.456 271.364 36.04 271.332 35.464C270.564 36.232 269.636 36.712 268.548 36.904C267.492 37.096 266.484 37 265.524 36.616C264.564 36.2 263.748 35.496 263.076 34.504C262.404 33.512 262.068 32.2 262.068 30.568C262.068 28.872 262.42 27.496 263.124 26.44C263.86 25.384 264.74 24.632 265.764 24.184C266.788 23.704 267.86 23.512 268.98 23.608C270.1 23.672 271.06 23.976 271.86 24.52V23.992C271.828 23.384 271.524 22.968 270.948 22.744C270.404 22.488 269.748 22.36 268.98 22.36C268.212 22.36 267.396 22.44 266.532 22.6C265.7 22.76 264.98 22.92 264.372 23.08C263.988 23.176 263.652 22.968 263.364 22.456C263.108 21.944 262.964 21.336 262.932 20.632C262.9 19.928 262.996 19.24 263.22 18.568C263.476 17.864 263.924 17.4 264.564 17.176C265.076 17.016 265.716 16.888 266.484 16.792C267.252 16.664 268.052 16.632 268.884 16.696C269.748 16.76 270.596 16.92 271.428 17.176C272.292 17.4 273.06 17.784 273.732 18.328C274.436 18.84 274.996 19.512 275.412 20.344C275.86 21.144 276.1 22.152 276.132 23.368C276.164 24.744 276.164 26.008 276.132 27.16C276.1 28.312 276.068 29.384 276.036 30.376C276.004 31.368 275.988 32.28 275.988 33.112C275.988 33.944 276.068 34.712 276.228 35.416ZM265.86 30.664C265.86 31.592 266.084 32.344 266.532 32.92C267.012 33.464 267.556 33.832 268.164 34.024C268.804 34.184 269.444 34.136 270.084 33.88C270.756 33.624 271.268 33.144 271.62 32.44C271.684 31.768 271.732 31.096 271.764 30.424C271.796 29.752 271.828 29.096 271.86 28.456C271.572 27.656 271.108 27.112 270.468 26.824C269.828 26.536 269.172 26.504 268.5 26.728C267.828 26.92 267.22 27.352 266.676 28.024C266.164 28.696 265.892 29.576 265.86 30.664ZM315.053 5.656C315.501 10.072 315.565 14.216 315.245 18.088C314.925 21.96 314.317 25.352 313.421 28.264C312.525 31.176 311.373 33.464 309.965 35.128C308.589 36.792 307.053 37.624 305.357 37.624C304.525 37.656 303.709 37.416 302.909 36.904C302.109 36.392 301.405 35.56 300.797 34.408C300.029 35.432 299.213 36.232 298.349 36.808C297.485 37.352 296.557 37.624 295.565 37.624C294.349 37.656 293.197 37.144 292.109 36.088C291.053 35 290.221 33.208 289.613 30.712C289.037 28.216 288.765 24.952 288.797 20.92C288.861 16.888 289.389 11.944 290.381 6.088C290.509 5.256 290.861 4.712 291.437 4.456C292.013 4.168 292.621 4.072 293.261 4.168C293.933 4.232 294.557 4.44 295.133 4.792C295.709 5.144 296.093 5.544 296.285 5.992C295.229 10.248 294.477 14.024 294.029 17.32C293.613 20.584 293.421 23.368 293.453 25.672C293.485 27.944 293.693 29.752 294.077 31.096C294.461 32.408 294.941 33.24 295.517 33.592C296.093 33.944 296.717 33.816 297.389 33.208C298.061 32.6 298.685 31.512 299.261 29.944C299.005 28.696 298.781 27.48 298.589 26.296C298.397 25.112 298.269 23.912 298.205 22.696C298.173 21.48 298.237 20.2 298.397 18.856C298.589 17.512 298.941 16.056 299.453 14.488C299.677 13.816 300.029 13.4 300.509 13.24C301.021 13.048 301.533 13.016 302.045 13.144C302.557 13.24 303.021 13.432 303.437 13.72C303.853 13.976 304.093 14.184 304.157 14.344C304.605 15.336 304.861 16.536 304.925 17.944C304.989 19.32 304.941 20.728 304.781 22.168C304.621 23.608 304.365 25.016 304.013 26.392C303.661 27.736 303.293 28.856 302.909 29.752C303.261 31.384 303.725 32.536 304.301 33.208C304.909 33.848 305.533 34.008 306.173 33.688C306.813 33.336 307.437 32.504 308.045 31.192C308.653 29.88 309.149 28.088 309.533 25.816C309.917 23.544 310.125 20.808 310.157 17.608C310.221 14.376 310.029 10.664 309.581 6.472C309.581 6.12 309.837 5.736 310.349 5.32C310.893 4.904 311.501 4.6 312.173 4.408C312.845 4.184 313.469 4.152 314.045 4.312C314.621 4.44 314.957 4.888 315.053 5.656ZM317.625 20.2C317.561 19.624 317.817 19.144 318.393 18.76C319.001 18.344 319.657 18.104 320.361 18.04C321.065 17.976 321.689 18.136 322.233 18.52C322.777 18.872 322.985 19.496 322.857 20.392C322.729 21.32 322.585 22.408 322.425 23.656C322.297 24.872 322.201 26.152 322.137 27.496C322.073 28.84 322.041 30.2 322.041 31.576C322.041 32.92 322.121 34.168 322.281 35.32C322.345 35.8 322.121 36.2 321.609 36.52C321.097 36.808 320.521 36.968 319.881 37C319.273 37.032 318.729 36.92 318.249 36.664C317.769 36.376 317.577 35.864 317.673 35.128C317.801 34.136 317.897 32.952 317.961 31.576C318.025 30.2 318.041 28.808 318.009 27.4C317.977 25.96 317.929 24.6 317.865 23.32C317.801 22.04 317.721 21 317.625 20.2ZM320.457 17.416C319.625 17.416 319.001 17.272 318.585 16.984C318.169 16.696 317.961 16.376 317.961 16.024C317.961 15.672 318.169 15.352 318.585 15.064C319.033 14.776 319.705 14.632 320.601 14.632C321.305 14.632 321.865 14.776 322.281 15.064C322.697 15.352 322.905 15.672 322.905 16.024C322.937 16.376 322.745 16.696 322.329 16.984C321.945 17.272 321.321 17.416 320.457 17.416ZM329.914 23.32C329.818 23.736 329.978 24.008 330.394 24.136C330.842 24.264 331.402 24.36 332.074 24.424C332.778 24.456 333.546 24.504 334.378 24.568C335.21 24.632 335.978 24.824 336.682 25.144C337.386 25.464 337.962 25.976 338.41 26.68C338.89 27.352 339.114 28.328 339.082 29.608C339.018 31.336 338.634 32.76 337.93 33.88C337.258 34.968 336.426 35.768 335.434 36.28C334.442 36.792 333.354 37.032 332.17 37C331.018 36.936 329.946 36.616 328.954 36.04C327.994 35.432 327.194 34.568 326.554 33.448C325.914 32.328 325.594 30.952 325.594 29.32C325.658 28.712 325.898 28.328 326.314 28.168C326.762 27.976 327.242 27.912 327.754 27.976C328.266 28.04 328.73 28.2 329.146 28.456C329.562 28.712 329.786 28.968 329.818 29.224C329.754 30.792 329.994 31.944 330.538 32.68C331.082 33.416 331.69 33.8 332.362 33.832C333.034 33.832 333.658 33.528 334.234 32.92C334.842 32.28 335.146 31.384 335.146 30.232C335.178 29.528 334.954 29.048 334.474 28.792C333.994 28.536 333.402 28.376 332.698 28.312C331.994 28.216 331.226 28.152 330.394 28.12C329.594 28.088 328.842 27.944 328.138 27.688C327.434 27.4 326.842 26.952 326.362 26.344C325.914 25.704 325.706 24.744 325.738 23.464C325.77 22.248 326.01 21.224 326.458 20.392C326.906 19.528 327.482 18.84 328.186 18.328C328.922 17.784 329.722 17.4 330.586 17.176C331.482 16.92 332.362 16.776 333.226 16.744C334.122 16.68 334.954 16.712 335.722 16.84C336.522 16.936 337.178 17.08 337.69 17.272C338.298 17.528 338.73 17.992 338.986 18.664C339.242 19.336 339.338 20.024 339.274 20.728C339.242 21.432 339.098 22.04 338.842 22.552C338.586 23.064 338.266 23.272 337.882 23.176C337.338 23.048 336.634 22.888 335.77 22.696C334.906 22.504 334.058 22.376 333.226 22.312C332.394 22.216 331.658 22.232 331.018 22.36C330.378 22.488 330.01 22.808 329.914 23.32ZM355.447 35.416C355.543 35.864 355.335 36.232 354.823 36.52C354.343 36.808 353.783 36.968 353.143 37C352.535 37.032 351.959 36.936 351.415 36.712C350.871 36.456 350.583 36.04 350.551 35.464C349.783 36.232 348.855 36.712 347.767 36.904C346.711 37.096 345.703 37 344.743 36.616C343.783 36.2 342.967 35.496 342.295 34.504C341.623 33.512 341.287 32.2 341.287 30.568C341.287 28.872 341.639 27.496 342.343 26.44C343.079 25.384 343.959 24.632 344.983 24.184C346.007 23.704 347.079 23.512 348.199 23.608C349.319 23.672 350.279 23.976 351.079 24.52V23.992C351.047 23.384 350.743 22.968 350.167 22.744C349.623 22.488 348.967 22.36 348.199 22.36C347.431 22.36 346.615 22.44 345.751 22.6C344.919 22.76 344.199 22.92 343.591 23.08C343.207 23.176 342.871 22.968 342.583 22.456C342.327 21.944 342.183 21.336 342.151 20.632C342.119 19.928 342.215 19.24 342.439 18.568C342.695 17.864 343.143 17.4 343.783 17.176C344.295 17.016 344.935 16.888 345.703 16.792C346.471 16.664 347.271 16.632 348.103 16.696C348.967 16.76 349.815 16.92 350.647 17.176C351.511 17.4 352.279 17.784 352.951 18.328C353.655 18.84 354.215 19.512 354.631 20.344C355.079 21.144 355.319 22.152 355.351 23.368C355.383 24.744 355.383 26.008 355.351 27.16C355.319 28.312 355.287 29.384 355.255 30.376C355.223 31.368 355.207 32.28 355.207 33.112C355.207 33.944 355.287 34.712 355.447 35.416ZM345.079 30.664C345.079 31.592 345.303 32.344 345.751 32.92C346.231 33.464 346.775 33.832 347.383 34.024C348.023 34.184 348.663 34.136 349.303 33.88C349.975 33.624 350.487 33.144 350.839 32.44C350.903 31.768 350.951 31.096 350.983 30.424C351.015 29.752 351.047 29.096 351.079 28.456C350.791 27.656 350.327 27.112 349.687 26.824C349.047 26.536 348.391 26.504 347.719 26.728C347.047 26.92 346.439 27.352 345.895 28.024C345.383 28.696 345.111 29.576 345.079 30.664ZM358.795 8.248C358.731 7.768 358.939 7.48 359.419 7.384C359.931 7.256 360.491 7.32 361.099 7.576C361.739 7.8 362.315 8.232 362.827 8.872C363.371 9.48 363.675 10.296 363.739 11.32H365.419C366.027 11.32 366.363 11.544 366.427 11.992C366.491 12.408 366.395 12.872 366.139 13.384C365.915 13.896 365.595 14.376 365.179 14.824C364.795 15.24 364.459 15.448 364.171 15.448H363.643C363.483 17.784 363.355 20.008 363.259 22.12C363.195 24.2 363.147 26.12 363.115 27.88C363.083 29.64 363.083 31.224 363.115 32.632C363.147 34.008 363.195 35.144 363.259 36.04C363.323 36.904 363.083 37.512 362.539 37.864C362.027 38.248 361.435 38.44 360.763 38.44C360.123 38.44 359.531 38.296 358.987 38.008C358.443 37.72 358.203 37.352 358.267 36.904C358.395 36.136 358.507 34.984 358.603 33.448C358.699 31.912 358.779 30.168 358.843 28.216C358.907 26.264 358.955 24.184 358.987 21.976C359.019 19.768 359.035 17.608 359.035 15.496C358.971 15.56 358.891 15.592 358.795 15.592C358.731 15.56 358.539 15.512 358.219 15.448C357.835 15.384 357.499 15.144 357.211 14.728C356.923 14.312 356.731 13.864 356.635 13.384C356.507 12.904 356.507 12.472 356.635 12.088C356.763 11.672 357.067 11.448 357.547 11.416C358.027 11.384 358.331 11.368 358.459 11.368C358.587 11.336 358.715 11.32 358.843 11.32C358.843 11.192 358.827 11 358.795 10.744C358.795 10.456 358.795 10.152 358.795 9.832C358.795 9.512 358.795 9.208 358.795 8.92C358.795 8.632 358.795 8.408 358.795 8.248ZM379.962 35.416C380.058 35.864 379.85 36.232 379.338 36.52C378.858 36.808 378.298 36.968 377.658 37C377.05 37.032 376.474 36.936 375.93 36.712C375.386 36.456 375.098 36.04 375.066 35.464C374.298 36.232 373.37 36.712 372.282 36.904C371.226 37.096 370.218 37 369.258 36.616C368.298 36.2 367.482 35.496 366.81 34.504C366.138 33.512 365.802 32.2 365.802 30.568C365.802 28.872 366.154 27.496 366.858 26.44C367.594 25.384 368.474 24.632 369.498 24.184C370.522 23.704 371.594 23.512 372.714 23.608C373.834 23.672 374.794 23.976 375.594 24.52V23.992C375.562 23.384 375.258 22.968 374.682 22.744C374.138 22.488 373.482 22.36 372.714 22.36C371.946 22.36 371.13 22.44 370.266 22.6C369.434 22.76 368.714 22.92 368.106 23.08C367.722 23.176 367.386 22.968 367.098 22.456C366.842 21.944 366.698 21.336 366.666 20.632C366.634 19.928 366.73 19.24 366.954 18.568C367.21 17.864 367.658 17.4 368.298 17.176C368.81 17.016 369.45 16.888 370.218 16.792C370.986 16.664 371.786 16.632 372.618 16.696C373.482 16.76 374.33 16.92 375.162 17.176C376.026 17.4 376.794 17.784 377.466 18.328C378.17 18.84 378.73 19.512 379.146 20.344C379.594 21.144 379.834 22.152 379.866 23.368C379.898 24.744 379.898 26.008 379.866 27.16C379.834 28.312 379.802 29.384 379.77 30.376C379.738 31.368 379.722 32.28 379.722 33.112C379.722 33.944 379.802 34.712 379.962 35.416ZM369.594 30.664C369.594 31.592 369.818 32.344 370.266 32.92C370.746 33.464 371.29 33.832 371.898 34.024C372.538 34.184 373.178 34.136 373.818 33.88C374.49 33.624 375.002 33.144 375.354 32.44C375.418 31.768 375.466 31.096 375.498 30.424C375.53 29.752 375.562 29.096 375.594 28.456C375.306 27.656 374.842 27.112 374.202 26.824C373.562 26.536 372.906 26.504 372.234 26.728C371.562 26.92 370.954 27.352 370.41 28.024C369.898 28.696 369.626 29.576 369.594 30.664Z" fill="#B4130D"/>
<path d="M111.488 108.24C103.125 107.557 96.5547 104.101 91.776 97.872C86.9973 91.5573 83.712 83.2373 81.92 72.912C81.2373 69.2427 80.768 65.488 80.512 61.648C80.3413 57.808 80.2133 54.0107 80.128 50.256C80.0427 46.416 80 42.6613 80 38.992C80 35.2373 79.9573 31.6107 79.872 28.112C77.312 28.4533 75.0933 30.2453 73.216 33.488C71.3387 36.6453 69.7173 40.5707 68.352 45.264C67.072 49.872 66.0053 54.9067 65.152 60.368C64.2987 65.744 63.5307 70.864 62.848 75.728C62.2507 80.5067 61.7387 84.688 61.312 88.272C60.8853 91.7707 60.4587 93.904 60.032 94.672C59.52 95.8667 58.6667 96.8053 57.472 97.488C56.2773 98.1707 54.9547 98.5547 53.504 98.64C52.1387 98.8107 50.7307 98.6827 49.28 98.256C47.9147 97.9147 46.8053 97.2747 45.952 96.336C43.904 94.1173 42.3253 91.1733 41.216 87.504C40.1067 83.7493 39.4667 79.9947 39.296 76.24C38.9547 67.1947 38.272 57.9787 37.248 48.592C36.3093 39.12 34.8587 30.032 32.896 21.328C32.2987 21.7547 31.6587 22.224 30.976 22.736C30.3787 23.1627 29.7387 23.8453 29.056 24.784C28.4587 25.6373 27.776 26.7893 27.008 28.24C26.3253 29.6907 25.6 31.568 24.832 33.872C24.2347 35.664 23.68 38.1387 23.168 41.296C22.656 44.4533 22.1867 47.952 21.76 51.792C21.4187 55.632 21.0773 59.6427 20.736 63.824C20.48 68.0053 20.224 72.016 19.968 75.856C19.7973 79.6107 19.6267 83.024 19.456 86.096C19.3707 89.0827 19.2853 91.3867 19.2 93.008C19.1147 94.288 18.432 95.3547 17.152 96.208C15.9573 96.976 14.5493 97.4027 12.928 97.488C11.3067 97.5733 9.68533 97.2747 8.064 96.592C6.44267 95.9093 5.248 94.7573 4.48 93.136C3.28533 90.7467 2.51733 88.1013 2.176 85.2C1.83467 82.2133 1.70667 79.184 1.792 76.112C1.96267 73.04 2.26133 70.0107 2.688 67.024C3.2 64.0373 3.66933 61.2213 4.096 58.576C4.43733 56.272 4.94933 53.328 5.632 49.744C6.31467 46.0747 7.168 42.2773 8.192 38.352C9.30133 34.3413 10.624 30.416 12.16 26.576C13.696 22.736 15.5307 19.4507 17.664 16.72C19.7973 13.904 22.272 11.8987 25.088 10.704C27.9893 9.50933 31.232 9.55199 34.816 10.832C37.12 11.6853 39.0827 13.5627 40.704 16.464C42.3253 19.3653 43.648 22.864 44.672 26.96C45.696 31.056 46.464 35.536 46.976 40.4C47.5733 45.1787 48 49.872 48.256 54.48C48.512 59.088 48.64 63.3547 48.64 67.28C48.7253 71.2053 48.8107 74.32 48.896 76.624C49.5787 74.832 50.3467 72.4 51.2 69.328C52.1387 66.1707 53.1627 62.7147 54.272 58.96C55.4667 55.12 56.7467 51.1947 58.112 47.184C59.5627 43.088 61.1413 39.2053 62.848 35.536C64.5547 31.7813 66.3893 28.4107 68.352 25.424C70.3147 22.4373 72.4053 20.176 74.624 18.64C76.8427 17.104 79.1893 16.464 81.664 16.72C84.224 16.8907 86.912 18.2987 89.728 20.944C91.6053 22.736 93.1413 25.6373 94.336 29.648C95.616 33.5733 96.6827 38.0533 97.536 43.088C98.4747 48.1227 99.2853 53.4133 99.968 58.96C100.651 64.5067 101.333 69.712 102.016 74.576C102.784 79.44 103.595 83.7067 104.448 87.376C105.301 90.96 106.411 93.392 107.776 94.672C109.824 96.72 111.787 98 113.664 98.512C115.541 99.1093 117.205 99.4507 118.656 99.536C120.107 99.6213 121.344 99.664 122.368 99.664C123.477 99.664 124.245 100.133 124.672 101.072C125.013 101.84 124.885 102.651 124.288 103.504C123.776 104.443 122.923 105.253 121.728 105.936C120.533 106.704 119.04 107.301 117.248 107.728C115.456 108.24 113.536 108.411 111.488 108.24Z" fill="#FF5C00"/>
<path d="M115.138 49.104C116.333 46.8 117.911 44.7947 119.874 43.088C121.837 41.3813 123.97 40.016 126.274 38.992C128.663 37.8827 131.138 37.072 133.698 36.56C136.343 36.048 138.903 35.792 141.378 35.792C143.938 35.9627 146.114 36.816 147.906 38.352C149.783 39.8027 151.106 41.7227 151.874 44.112C152.642 46.416 152.77 49.0187 152.258 51.92C151.831 54.8213 150.594 57.7653 148.546 60.752C146.327 63.9947 143.938 66.4267 141.378 68.048C138.903 69.6693 136.599 70.8213 134.466 71.504C131.991 72.3573 129.559 72.7413 127.17 72.656C127.085 75.8987 127.426 78.672 128.194 80.976C128.535 82 128.919 82.9813 129.346 83.92C129.858 84.7733 130.498 85.5413 131.266 86.224C132.034 86.9067 132.973 87.4187 134.082 87.76C135.191 88.016 136.471 88.016 137.922 87.76C140.994 87.248 143.469 86.1387 145.346 84.432C147.309 82.64 148.93 80.848 150.21 79.056C151.49 77.264 152.514 75.728 153.282 74.448C154.135 73.0827 154.946 72.5707 155.714 72.912C156.653 73.3387 157.122 74.4053 157.122 76.112C157.207 77.8187 156.823 79.824 155.97 82.128C155.117 84.432 153.837 86.8213 152.13 89.296C150.509 91.6853 148.418 93.7333 145.858 95.44C143.298 97.1467 140.354 98.2987 137.026 98.896C133.698 99.5787 129.986 99.28 125.89 98C122.562 96.976 119.789 95.3547 117.57 93.136C115.351 90.9173 113.602 88.3573 112.322 85.456C111.042 82.5547 110.189 79.44 109.762 76.112C109.335 72.784 109.25 69.4987 109.506 66.256C109.847 62.928 110.487 59.7707 111.426 56.784C112.45 53.7973 113.687 51.2373 115.138 49.104ZM127.042 63.056C128.151 62.8853 129.389 62.544 130.754 62.032C131.949 61.6053 133.229 60.9653 134.594 60.112C136.045 59.2587 137.581 58.064 139.202 56.528C140.738 55.0773 141.762 53.6693 142.274 52.304C142.871 50.9387 143.213 49.7867 143.298 48.848C143.383 47.7387 143.213 46.7147 142.786 45.776C141.591 45.4347 140.311 45.4347 138.946 45.776C137.751 46.1173 136.429 46.8 134.978 47.824C133.527 48.848 132.034 50.4693 130.498 52.688C129.303 54.3947 128.45 55.9307 127.938 57.296C127.426 58.576 127.085 59.6427 126.914 60.496C126.743 61.52 126.786 62.3733 127.042 63.056Z" fill="#E1CD15"/>
<path d="M200.353 20.56C200.012 24.4 199.414 28.0693 198.561 31.568C197.708 35.0667 196.684 38.3947 195.489 41.552C194.38 44.7093 193.142 47.696 191.777 50.512C190.412 53.328 189.046 55.888 187.681 58.192C184.438 63.6533 180.854 68.6027 176.929 73.04C176.929 73.6373 177.057 74.4053 177.313 75.344C177.484 76.1973 177.825 77.264 178.337 78.544C178.849 79.7387 179.66 81.1893 180.769 82.896C182.988 86.48 185.42 88.7413 188.065 89.68C190.796 90.5333 193.398 90.6187 195.873 89.936C198.433 89.168 200.652 87.888 202.529 86.096C204.406 84.2187 205.686 82.3413 206.369 80.464C207.052 78.5013 207.734 77.2213 208.417 76.624C209.1 76.0267 209.697 75.8987 210.209 76.24C210.806 76.496 211.233 77.0933 211.489 78.032C211.83 78.9707 211.958 79.9947 211.873 81.104C210.422 84.944 208.588 88.3147 206.369 91.216C205.43 92.496 204.321 93.7333 203.041 94.928C201.761 96.1227 200.353 97.1893 198.817 98.128C197.281 99.0667 195.574 99.792 193.697 100.304C191.905 100.901 189.942 101.157 187.809 101.072C182.348 100.987 177.782 99.664 174.113 97.104C170.529 94.544 167.628 91.2587 165.409 87.248C163.19 83.2373 161.612 78.7147 160.673 73.68C159.734 68.56 159.18 63.3973 159.009 58.192C158.924 52.9867 159.137 47.9947 159.649 43.216C160.246 38.352 160.929 34.128 161.697 30.544C162.55 26.7893 163.66 23.0773 165.025 19.408C166.476 15.7387 168.225 12.496 170.273 9.67999C172.406 6.86399 174.881 4.64533 177.697 3.02399C180.598 1.40266 183.969 0.805328 187.809 1.23199C190.625 1.65866 193.057 2.63999 195.105 4.17599C196.812 5.45599 198.262 7.41866 199.457 10.064C200.652 12.624 200.95 16.1227 200.353 20.56ZM175.649 61.776C177.868 58.1067 179.916 54.3093 181.793 50.384C183.414 47.056 184.993 43.4293 186.529 39.504C188.065 35.4933 189.174 31.568 189.857 27.728C190.198 25.8507 190.497 23.9307 190.753 21.968C191.094 20.0053 191.222 18.2133 191.137 16.592C191.137 14.8853 190.838 13.4773 190.241 12.368C189.644 11.1733 188.662 10.4907 187.297 10.32C185.505 10.1493 183.884 10.7893 182.433 12.24C181.068 13.6053 179.873 15.568 178.849 18.128C177.91 20.6027 177.142 23.5893 176.545 27.088C175.948 30.5013 175.521 34.1707 175.265 38.096C175.009 41.936 174.924 45.904 175.009 50C175.094 54.096 175.308 58.0213 175.649 61.776Z" fill="#12AE22"/>
<path d="M219.301 48.336C219.216 49.1893 219.13 50.64 219.045 52.688C218.96 54.736 218.917 57.04 218.917 59.6C218.917 62.0747 219.002 64.6773 219.173 67.408C219.344 70.1387 219.642 72.656 220.069 74.96C220.496 77.1787 221.136 79.0133 221.989 80.464C222.842 81.9147 223.952 82.64 225.317 82.64C227.28 82.64 228.944 81.9147 230.309 80.464C231.76 79.0133 232.997 77.1787 234.021 74.96C235.045 72.7413 235.856 70.2667 236.453 67.536C237.05 64.72 237.52 61.9893 237.861 59.344C238.288 56.6987 238.544 54.224 238.629 51.92C238.8 49.616 238.928 47.824 239.013 46.544C239.098 45.008 239.525 43.8987 240.293 43.216C241.146 42.5333 242.17 42.192 243.365 42.192C244.56 42.1067 245.84 42.32 247.205 42.832C248.57 43.344 249.85 43.984 251.045 44.752C252.24 45.52 253.221 46.416 253.989 47.44C254.757 48.3787 255.184 49.3173 255.269 50.256C255.354 51.536 255.312 53.4133 255.141 55.888C254.97 58.2773 254.8 61.008 254.629 64.08C254.544 67.0667 254.501 70.1813 254.501 73.424C254.501 76.5813 254.714 79.5253 255.141 82.256C255.653 84.9013 256.378 87.2053 257.317 89.168C258.341 91.0453 259.749 92.1973 261.541 92.624C263.162 93.0507 264.272 93.6053 264.869 94.288C265.466 94.9707 265.509 95.6533 264.997 96.336C264.57 96.9333 263.632 97.4027 262.181 97.744C260.816 98.0853 258.938 98.0427 256.549 97.616C252.624 96.9333 249.594 95.568 247.461 93.52C245.328 91.472 243.749 89.3387 242.725 87.12C241.53 84.56 240.805 81.744 240.549 78.672C239.44 82.0853 237.989 85.0293 236.197 87.504C234.661 89.7227 232.656 91.6427 230.181 93.264C227.792 94.8 224.848 95.312 221.349 94.8C217.85 94.288 214.949 93.1787 212.645 91.472C210.426 89.68 208.592 87.5467 207.141 85.072C205.776 82.5973 204.752 79.9093 204.069 77.008C203.386 74.0213 202.917 71.0347 202.661 68.048C202.405 65.6587 202.277 63.2693 202.277 60.88C202.277 58.4907 202.362 56.272 202.533 54.224C202.704 52.176 202.96 50.4267 203.301 48.976C203.642 47.5253 204.026 46.5867 204.453 46.16C204.965 45.7333 206.032 45.264 207.653 44.752C209.274 44.24 210.938 43.984 212.645 43.984C214.437 43.8987 216.016 44.1547 217.381 44.752C218.746 45.3493 219.386 46.544 219.301 48.336Z" fill="#387C0C"/>
<path d="M268.117 51.28C268.629 50.4267 269.354 49.6587 270.293 48.976C271.317 48.208 272.341 47.568 273.365 47.056C274.474 46.4587 275.541 46.032 276.565 45.776C277.674 45.4347 278.57 45.264 279.253 45.264C279.594 45.264 279.85 45.6053 280.021 46.288C280.277 46.9707 280.49 47.8667 280.661 48.976C280.917 50.0853 281.088 51.3653 281.173 52.816C281.258 54.1813 281.344 55.5893 281.429 57.04C281.6 60.4533 281.642 64.336 281.557 68.688C282.666 66.4693 283.861 64.2933 285.141 62.16C286.25 60.368 287.53 58.5333 288.981 56.656C290.432 54.6933 291.925 53.0293 293.461 51.664C294.912 50.384 296.49 49.4027 298.197 48.72C299.989 48.0373 301.781 47.7813 303.573 47.952C305.365 48.0373 307.072 48.6773 308.693 49.872C310.4 51.0667 311.893 52.8587 313.173 55.248C314.026 56.8693 314.666 58.9173 315.093 61.392C315.52 63.7813 315.818 66.3413 315.989 69.072C316.245 71.7173 316.458 74.4053 316.629 77.136C316.885 79.8667 317.269 82.384 317.781 84.688C318.378 86.992 319.146 88.9547 320.085 90.576C321.109 92.1973 322.56 93.2213 324.437 93.648C325.973 94.0747 327.466 94.1173 328.917 93.776C330.453 93.3493 331.861 92.8373 333.141 92.24C334.506 91.5573 335.658 91.0027 336.597 90.576C337.621 90.064 338.346 89.936 338.773 90.192C339.114 90.5333 338.901 91.472 338.133 93.008C337.45 94.544 336.256 96.1227 334.549 97.744C332.928 99.3653 330.837 100.731 328.277 101.84C325.802 103.035 322.944 103.419 319.701 102.992C313.301 102.139 308.693 98.8533 305.877 93.136C303.061 87.3333 301.44 79.7813 301.013 70.48C300.842 67.152 300.416 64.6773 299.733 63.056C299.136 61.4347 298.325 60.5813 297.301 60.496C296.277 60.4107 295.082 61.008 293.717 62.288C292.437 63.4827 291.029 65.232 289.493 67.536C287.701 70.1813 286.378 72.8267 285.525 75.472C284.672 78.1173 284.074 80.592 283.733 82.896C283.477 85.2 283.306 87.248 283.221 89.04C283.136 90.832 282.922 92.1547 282.581 93.008C282.154 93.9467 281.258 94.5867 279.893 94.928C278.528 95.2693 277.034 95.44 275.413 95.44C273.877 95.44 272.341 95.2693 270.805 94.928C269.354 94.5867 268.33 94.16 267.733 93.648C267.392 93.3067 267.093 92.112 266.837 90.064C266.666 87.9307 266.538 85.4133 266.453 82.512C266.368 79.5253 266.325 76.368 266.325 73.04C266.41 69.6267 266.496 66.4267 266.581 63.44C266.752 60.368 266.965 57.7227 267.221 55.504C267.477 53.2853 267.776 51.8773 268.117 51.28Z" fill="#08D4E1"/>
<path d="M383.389 83.28C385.266 82.512 386.717 82.1707 387.741 82.256C388.765 82.3413 389.405 82.6827 389.661 83.28C389.917 83.792 389.789 84.4747 389.277 85.328C388.85 86.1813 388.125 86.992 387.101 87.76C386.248 88.3573 385.181 89.168 383.901 90.192C382.706 91.216 381.426 92.3253 380.061 93.52C378.781 94.6293 377.501 95.7387 376.221 96.848C375.026 97.9573 374.002 98.8533 373.149 99.536C373.746 103.547 374.088 107.6 374.173 111.696C374.258 115.877 374.002 119.845 373.405 123.6C372.808 127.44 371.826 130.939 370.461 134.096C369.096 137.339 367.261 139.984 364.957 142.032C361.714 144.933 358.429 146.597 355.101 147.024C351.773 147.451 348.829 146.896 346.269 145.36C343.709 143.824 341.704 141.435 340.253 138.192C338.802 135.035 338.376 131.28 338.973 126.928C339.656 122.491 341.021 118.565 343.069 115.152C345.202 111.739 347.421 108.88 349.725 106.576C352.456 103.845 355.4 101.499 358.557 99.536C358.472 98.8533 358.301 97.9147 358.045 96.72C357.874 95.696 357.576 94.416 357.149 92.88C356.722 91.2587 356.168 89.2107 355.485 86.736C355.058 85.2853 354.504 83.92 353.821 82.64C353.224 81.2747 352.626 80.1227 352.029 79.184C351.261 78.0747 350.536 77.0933 349.853 76.24C348.488 77.776 347.08 79.1413 345.629 80.336C344.434 81.36 343.112 82.2987 341.661 83.152C340.21 83.92 338.845 84.304 337.565 84.304C336.2 84.304 334.664 83.5787 332.957 82.128C331.25 80.6773 329.714 78.7573 328.349 76.368C327.069 73.9787 326.045 71.248 325.277 68.176C324.594 65.104 324.509 61.9467 325.021 58.704C325.618 55.4613 326.386 52.8587 327.325 50.896C328.264 48.9333 329.288 47.3973 330.397 46.288C331.506 45.0933 332.701 44.24 333.981 43.728C335.261 43.216 336.541 42.832 337.821 42.576C339.698 42.2347 341.917 42.4907 344.477 43.344C347.122 44.1973 349.597 45.3067 351.901 46.672C354.29 47.952 356.296 49.3173 357.917 50.768C359.624 52.1333 360.434 53.2 360.349 53.968C360.264 54.736 359.325 55.0347 357.533 54.864C355.826 54.608 353.821 54.3093 351.517 53.968C349.298 53.6267 347.08 53.456 344.861 53.456C342.728 53.456 341.234 54.1387 340.381 55.504C339.528 56.8693 338.845 58.4907 338.333 60.368C337.821 62.2453 337.48 64.1227 337.309 66C337.224 67.8773 337.352 69.6267 337.693 71.248C338.034 72.784 338.674 73.936 339.613 74.704C340.125 75.1307 340.808 75.0027 341.661 74.32C342.6 73.552 343.666 72.656 344.861 71.632C346.056 70.5227 347.378 69.4987 348.829 68.56C350.28 67.536 351.816 66.9387 353.437 66.768C355.144 66.512 356.893 66.9387 358.685 68.048C360.477 69.072 362.312 71.12 364.189 74.192C365.298 75.984 366.45 78.0747 367.645 80.464C368.925 82.768 370.034 86.096 370.973 90.448C373.192 89.0827 375.282 87.8027 377.245 86.608C379.208 85.328 381.256 84.2187 383.389 83.28ZM357.021 130.256C357.533 128.805 357.832 126.928 357.917 124.624C358.088 122.405 358.173 120.187 358.173 117.968C358.088 115.408 357.96 112.72 357.789 109.904C355.997 111.44 354.418 113.061 353.053 114.768C351.858 116.219 350.792 117.925 349.853 119.888C349 121.851 348.658 123.941 348.829 126.16C349 128.293 349.469 129.829 350.237 130.768C351.005 131.792 351.816 132.347 352.669 132.432C353.608 132.603 354.461 132.432 355.229 131.92C356.082 131.493 356.68 130.939 357.021 130.256Z" fill="#0006A0"/>
</svg>
